<svg width="40" height="38" viewBox="0 0 40 38" fill="none" xmlns="http://www.w3.org/2000/svg">
<rect width="40" height="38" rx="10" fill="#00A4A6"/>
<path d="M10.7501 10.2499L12.8301 10.6099L13.7931 22.0829C13.8701 23.0199 14.6531 23.7389 15.5931 23.7359H26.5021C27.3991 23.7379 28.1601 23.0779 28.2871 22.1899L29.2361 15.6319C29.3421 14.8989 28.8331 14.2189 28.1011 14.1129C28.0371 14.1039 13.1641 14.0989 13.1641 14.0989" stroke="white" stroke-width="1.5" stroke-linecap="round" stroke-linejoin="round"/>
<path d="M22.1251 17.7948H24.8981" stroke="white" stroke-width="1.5" stroke-linecap="round" stroke-linejoin="round"/>
<path fill-rule="evenodd" clip-rule="evenodd" d="M15.1544 27.2025C15.4554 27.2025 15.6984 27.4465 15.6984 27.7465C15.6984 28.0475 15.4554 28.2915 15.1544 28.2915C14.8534 28.2915 14.6104 28.0475 14.6104 27.7465C14.6104 27.4465 14.8534 27.2025 15.1544 27.2025Z" fill="white" stroke="white" stroke-width="1.5" stroke-linecap="round" stroke-linejoin="round"/>
<path fill-rule="evenodd" clip-rule="evenodd" d="M26.4347 27.2025C26.7357 27.2025 26.9797 27.4465 26.9797 27.7465C26.9797 28.0475 26.7357 28.2915 26.4347 28.2915C26.1337 28.2915 25.8907 28.0475 25.8907 27.7465C25.8907 27.4465 26.1337 27.2025 26.4347 27.2025Z" fill="white" stroke="white" stroke-width="1.5" stroke-linecap="round" stroke-linejoin="round"/>
</svg>
