<svg width="116" height="48" viewBox="0 0 116 48" fill="none" xmlns="http://www.w3.org/2000/svg">
<path d="M64.0002 6C63.3902 6 62.8302 5.65 62.5502 5.11L61.8302 3.66C61.3702 2.75 60.1702 2 59.1502 2H56.8602C55.8302 2 54.6302 2.75 54.1702 3.66L53.4502 5.11C53.1702 5.65 52.6102 6 52.0002 6C49.8302 6 48.1102 7.83 48.2502 9.99L48.7702 18.25C48.8902 20.31 50.0002 22 52.7602 22H63.2402C66.0002 22 67.1002 20.31 67.2302 18.25L67.7502 9.99C67.8902 7.83 66.1702 6 64.0002 6ZM56.5002 7.25H59.5002C59.9102 7.25 60.2502 7.59 60.2502 8C60.2502 8.41 59.9102 8.75 59.5002 8.75H56.5002C56.0902 8.75 55.7502 8.41 55.7502 8C55.7502 7.59 56.0902 7.25 56.5002 7.25ZM58.0002 18.12C56.1402 18.12 54.6202 16.61 54.6202 14.74C54.6202 12.87 56.1302 11.36 58.0002 11.36C59.8702 11.36 61.3802 12.87 61.3802 14.74C61.3802 16.61 59.8602 18.12 58.0002 18.12Z" fill="white"/>
<path d="M25.4964 36.1108H24.1669C24.1158 35.8267 24.0206 35.5767 23.8814 35.3608C23.7422 35.1449 23.5717 34.9616 23.37 34.8111C23.1683 34.6605 22.9425 34.5469 22.6925 34.4702C22.4453 34.3935 22.1825 34.3551 21.9041 34.3551C21.4013 34.3551 20.951 34.4815 20.5533 34.7344C20.1584 34.9872 19.8459 35.358 19.6158 35.8466C19.3885 36.3352 19.2749 36.9318 19.2749 37.6364C19.2749 38.3466 19.3885 38.946 19.6158 39.4347C19.8459 39.9233 20.1598 40.2926 20.5575 40.5426C20.9553 40.7926 21.4027 40.9176 21.8999 40.9176C22.1754 40.9176 22.4368 40.8807 22.6839 40.8068C22.9339 40.7301 23.1598 40.6179 23.3615 40.4702C23.5632 40.3224 23.7337 40.142 23.8729 39.929C24.0149 39.7131 24.1129 39.4659 24.1669 39.1875L25.4964 39.1918C25.4254 39.6207 25.2876 40.0156 25.0831 40.3764C24.8814 40.7344 24.6214 41.044 24.3033 41.3054C23.9879 41.5639 23.6271 41.7642 23.2209 41.9062C22.8146 42.0483 22.3714 42.1193 21.8913 42.1193C21.1357 42.1193 20.4624 41.9403 19.8714 41.5824C19.2805 41.2216 18.8146 40.706 18.4737 40.0355C18.1357 39.3651 17.9666 38.5653 17.9666 37.6364C17.9666 36.7045 18.1371 35.9048 18.478 35.2372C18.8189 34.5668 19.2848 34.0526 19.8757 33.6946C20.4666 33.3338 21.1385 33.1534 21.8913 33.1534C22.3544 33.1534 22.7862 33.2202 23.1868 33.3537C23.5902 33.4844 23.9524 33.6776 24.2734 33.9332C24.5945 34.1861 24.8601 34.4957 25.0703 34.8622C25.2805 35.2259 25.4226 35.642 25.4964 36.1108ZM28.244 38.1136V42H26.9698V33.2727H28.2269V36.5199H28.3079C28.4613 36.1676 28.6957 35.8878 29.011 35.6804C29.3263 35.473 29.7383 35.3693 30.2468 35.3693C30.6957 35.3693 31.0877 35.4616 31.4229 35.6463C31.761 35.831 32.0224 36.1065 32.207 36.473C32.3945 36.8366 32.4883 37.2912 32.4883 37.8366V42H31.2141V37.9901C31.2141 37.5099 31.0906 37.1378 30.8434 36.8736C30.5962 36.6065 30.2525 36.473 29.8121 36.473C29.511 36.473 29.2411 36.5369 29.0025 36.6648C28.7667 36.7926 28.5806 36.9801 28.4442 37.2273C28.3107 37.4716 28.244 37.767 28.244 38.1136ZM36.0934 42.1449C35.6786 42.1449 35.3036 42.0682 34.9684 41.9148C34.6332 41.7585 34.3675 41.5327 34.1715 41.2372C33.9783 40.9418 33.8817 40.5795 33.8817 40.1506C33.8817 39.7812 33.9528 39.4773 34.0948 39.2386C34.2369 39 34.4286 38.8111 34.6701 38.6719C34.9116 38.5327 35.1815 38.4276 35.4798 38.3565C35.7781 38.2855 36.082 38.2315 36.3917 38.1946C36.7837 38.1491 37.1019 38.1122 37.3462 38.0838C37.5906 38.0526 37.7681 38.0028 37.8789 37.9347C37.9897 37.8665 38.0451 37.7557 38.0451 37.6023V37.5724C38.0451 37.2003 37.94 36.9119 37.7298 36.7074C37.5224 36.5028 37.2127 36.4006 36.8008 36.4006C36.3718 36.4006 36.0337 36.4957 35.7866 36.6861C35.5423 36.8736 35.3732 37.0824 35.2795 37.3125L34.082 37.0398C34.2241 36.642 34.4315 36.321 34.7042 36.0767C34.9798 35.8295 35.2965 35.6506 35.6545 35.5398C36.0124 35.4261 36.3888 35.3693 36.7837 35.3693C37.0451 35.3693 37.3221 35.4006 37.6147 35.4631C37.9102 35.5227 38.1857 35.6335 38.4414 35.7955C38.6999 35.9574 38.9116 36.1889 39.0763 36.4901C39.2411 36.7884 39.3235 37.1761 39.3235 37.6534V42H38.0792V41.1051H38.0281C37.9457 41.2699 37.8221 41.4318 37.6573 41.5909C37.4925 41.75 37.2809 41.8821 37.0224 41.9872C36.7638 42.0923 36.4542 42.1449 36.0934 42.1449ZM36.3704 41.1222C36.7227 41.1222 37.0238 41.0526 37.2738 40.9134C37.5266 40.7741 37.7184 40.5923 37.8491 40.3679C37.9826 40.1406 38.0494 39.8977 38.0494 39.6392V38.7955C38.0039 38.8409 37.9158 38.8835 37.7852 38.9233C37.6573 38.9602 37.511 38.9929 37.3462 39.0213C37.1815 39.0469 37.021 39.071 36.8647 39.0938C36.7085 39.1136 36.5778 39.1307 36.4727 39.1449C36.2255 39.1761 35.9996 39.2287 35.7951 39.3026C35.5934 39.3764 35.4315 39.483 35.3093 39.6222C35.19 39.7585 35.1303 39.9403 35.1303 40.1676C35.1303 40.483 35.2468 40.7216 35.4798 40.8835C35.7127 41.0426 36.0096 41.1222 36.3704 41.1222ZM42.2947 38.1136V42H41.0206V35.4545H42.2436V36.5199H42.3246C42.4751 36.1733 42.7109 35.8949 43.032 35.6847C43.3558 35.4744 43.7635 35.3693 44.255 35.3693C44.701 35.3693 45.0916 35.4631 45.4268 35.6506C45.7621 35.8352 46.022 36.1108 46.2067 36.4773C46.3913 36.8437 46.4837 37.2969 46.4837 37.8366V42H45.2095V37.9901C45.2095 37.5156 45.0859 37.1449 44.8388 36.8778C44.5916 36.608 44.2521 36.473 43.8203 36.473C43.5249 36.473 43.2621 36.5369 43.032 36.6648C42.8047 36.7926 42.6243 36.9801 42.4908 37.2273C42.3601 37.4716 42.2947 37.767 42.2947 38.1136ZM50.9368 44.5909C50.4169 44.5909 49.9695 44.5227 49.5945 44.3864C49.2223 44.25 48.9183 44.0696 48.6825 43.8452C48.4467 43.6207 48.2706 43.375 48.1541 43.108L49.2493 42.6562C49.326 42.7812 49.4283 42.9134 49.5561 43.0526C49.6868 43.1946 49.8629 43.3153 50.0845 43.4148C50.3089 43.5142 50.5973 43.5639 50.9496 43.5639C51.4325 43.5639 51.8317 43.446 52.147 43.2102C52.4624 42.9773 52.62 42.6051 52.62 42.0938V40.8068H52.5391C52.4624 40.946 52.3516 41.1009 52.2067 41.2713C52.0646 41.4418 51.8686 41.5895 51.6186 41.7145C51.3686 41.8395 51.0433 41.902 50.6428 41.902C50.1257 41.902 49.6598 41.7812 49.245 41.5398C48.8331 41.2955 48.5064 40.9361 48.2649 40.4616C48.0263 39.9844 47.907 39.3977 47.907 38.7017C47.907 38.0057 48.0249 37.4091 48.2607 36.9119C48.4993 36.4148 48.826 36.0341 49.2408 35.7699C49.6555 35.5028 50.1257 35.3693 50.6513 35.3693C51.0575 35.3693 51.3857 35.4375 51.6357 35.5739C51.8857 35.7074 52.0803 35.8636 52.2195 36.0426C52.3615 36.2216 52.4709 36.3793 52.5476 36.5156H52.6413V35.4545H53.8899V42.1449C53.8899 42.7074 53.7592 43.169 53.4979 43.5298C53.2365 43.8906 52.8828 44.1577 52.4368 44.331C51.9936 44.5043 51.4936 44.5909 50.9368 44.5909ZM50.924 40.8452C51.2905 40.8452 51.6001 40.7599 51.853 40.5895C52.1087 40.4162 52.3018 40.169 52.4325 39.848C52.5661 39.5241 52.6328 39.1364 52.6328 38.6847C52.6328 38.2443 52.5675 37.8565 52.4368 37.5213C52.3061 37.1861 52.1143 36.9247 51.8615 36.7372C51.6087 36.5469 51.2962 36.4517 50.924 36.4517C50.5405 36.4517 50.2209 36.5511 49.9652 36.75C49.7095 36.946 49.5163 37.2131 49.3857 37.5511C49.2578 37.8892 49.1939 38.267 49.1939 38.6847C49.1939 39.1136 49.2592 39.4901 49.3899 39.8139C49.5206 40.1378 49.7138 40.3906 49.9695 40.5724C50.228 40.7543 50.5462 40.8452 50.924 40.8452ZM58.4197 42.1321C57.7749 42.1321 57.2195 41.9943 56.7536 41.7188C56.2905 41.4403 55.9325 41.0497 55.6797 40.5469C55.4297 40.0412 55.3047 39.4489 55.3047 38.7699C55.3047 38.0994 55.4297 37.5085 55.6797 36.9972C55.9325 36.4858 56.2848 36.0866 56.7365 35.7997C57.1911 35.5128 57.7223 35.3693 58.3303 35.3693C58.6996 35.3693 59.0575 35.4304 59.4041 35.5526C59.7507 35.6747 60.0618 35.8665 60.3374 36.1278C60.6129 36.3892 60.8303 36.7287 60.9893 37.1463C61.1484 37.5611 61.228 38.0653 61.228 38.6591V39.1108H56.0249V38.1562H59.9794C59.9794 37.821 59.9112 37.5241 59.7749 37.2656C59.6385 37.0043 59.4467 36.7983 59.1996 36.6477C58.9553 36.4972 58.6683 36.4219 58.3388 36.4219C57.9808 36.4219 57.6683 36.5099 57.4013 36.6861C57.1371 36.8594 56.9325 37.0866 56.7876 37.3679C56.6456 37.6463 56.5746 37.9489 56.5746 38.2756V39.0213C56.5746 39.4588 56.6513 39.831 56.8047 40.1378C56.9609 40.4446 57.1783 40.679 57.4567 40.8409C57.7351 41 58.0604 41.0795 58.4325 41.0795C58.674 41.0795 58.8942 41.0455 59.093 40.9773C59.2919 40.9062 59.4638 40.8011 59.6087 40.6619C59.7536 40.5227 59.8643 40.3509 59.9411 40.1463L61.147 40.3636C61.0504 40.7187 60.8771 41.0298 60.6271 41.2969C60.38 41.5611 60.0689 41.767 59.6939 41.9148C59.3217 42.0597 58.897 42.1321 58.4197 42.1321ZM65.9197 42V33.2727H69.0305C69.7095 33.2727 70.272 33.3963 70.718 33.6435C71.1641 33.8906 71.4979 34.2287 71.7195 34.6577C71.9411 35.0838 72.0518 35.5639 72.0518 36.098C72.0518 36.6349 71.9396 37.1179 71.7152 37.5469C71.4936 37.973 71.1584 38.3111 70.7095 38.5611C70.2635 38.8082 69.7024 38.9318 69.0263 38.9318H66.8871V37.8153H68.907C69.3359 37.8153 69.6839 37.7415 69.951 37.5938C70.218 37.4432 70.4141 37.2386 70.5391 36.9801C70.6641 36.7216 70.7266 36.4276 70.7266 36.098C70.7266 35.7685 70.6641 35.4759 70.5391 35.2202C70.4141 34.9645 70.2166 34.7642 69.9467 34.6193C69.6797 34.4744 69.3274 34.402 68.8899 34.402H67.2365V42H65.9197ZM74.7674 38.1136V42H73.4933V33.2727H74.7504V36.5199H74.8313C74.9847 36.1676 75.2191 35.8878 75.5344 35.6804C75.8498 35.473 76.2617 35.3693 76.7702 35.3693C77.2191 35.3693 77.6112 35.4616 77.9464 35.6463C78.2844 35.831 78.5458 36.1065 78.7305 36.473C78.918 36.8366 79.0117 37.2912 79.0117 37.8366V42H77.7376V37.9901C77.7376 37.5099 77.614 37.1378 77.3668 36.8736C77.1197 36.6065 76.7759 36.473 76.3356 36.473C76.0344 36.473 75.7646 36.5369 75.5259 36.6648C75.2901 36.7926 75.104 36.9801 74.9677 37.2273C74.8342 37.4716 74.7674 37.767 74.7674 38.1136ZM83.4691 42.1321C82.8555 42.1321 82.32 41.9915 81.8626 41.7102C81.4052 41.429 81.0501 41.0355 80.7972 40.5298C80.5444 40.0241 80.418 39.4332 80.418 38.7571C80.418 38.0781 80.5444 37.4844 80.7972 36.9759C81.0501 36.4673 81.4052 36.0724 81.8626 35.7912C82.32 35.5099 82.8555 35.3693 83.4691 35.3693C84.0827 35.3693 84.6183 35.5099 85.0756 35.7912C85.533 36.0724 85.8881 36.4673 86.141 36.9759C86.3938 37.4844 86.5202 38.0781 86.5202 38.7571C86.5202 39.4332 86.3938 40.0241 86.141 40.5298C85.8881 41.0355 85.533 41.429 85.0756 41.7102C84.6183 41.9915 84.0827 42.1321 83.4691 42.1321ZM83.4734 41.0625C83.8711 41.0625 84.2006 40.9574 84.462 40.7472C84.7234 40.5369 84.9165 40.2571 85.0415 39.9077C85.1694 39.5582 85.2333 39.1733 85.2333 38.7528C85.2333 38.3352 85.1694 37.9517 85.0415 37.6023C84.9165 37.25 84.7234 36.9673 84.462 36.7543C84.2006 36.5412 83.8711 36.4347 83.4734 36.4347C83.0728 36.4347 82.7404 36.5412 82.4762 36.7543C82.2148 36.9673 82.0202 37.25 81.8924 37.6023C81.7674 37.9517 81.7049 38.3352 81.7049 38.7528C81.7049 39.1733 81.7674 39.5582 81.8924 39.9077C82.0202 40.2571 82.2148 40.5369 82.4762 40.7472C82.7404 40.9574 83.0728 41.0625 83.4734 41.0625ZM90.9979 35.4545V36.4773H87.4226V35.4545H90.9979ZM88.3814 33.8864H89.6555V40.0781C89.6555 40.3253 89.6925 40.5114 89.7663 40.6364C89.8402 40.7585 89.9354 40.8423 90.0518 40.8878C90.1712 40.9304 90.3004 40.9517 90.4396 40.9517C90.5419 40.9517 90.6314 40.9446 90.7081 40.9304C90.7848 40.9162 90.8445 40.9048 90.8871 40.8963L91.1172 41.9489C91.0433 41.9773 90.9382 42.0057 90.8018 42.0341C90.6655 42.0653 90.495 42.0824 90.2905 42.0852C89.9553 42.0909 89.6428 42.0312 89.353 41.9062C89.0632 41.7812 88.8288 41.5881 88.6499 41.3267C88.4709 41.0653 88.3814 40.7372 88.3814 40.3423V33.8864ZM95.0941 42.1321C94.4805 42.1321 93.945 41.9915 93.4876 41.7102C93.0302 41.429 92.6751 41.0355 92.4222 40.5298C92.1694 40.0241 92.043 39.4332 92.043 38.7571C92.043 38.0781 92.1694 37.4844 92.4222 36.9759C92.6751 36.4673 93.0302 36.0724 93.4876 35.7912C93.945 35.5099 94.4805 35.3693 95.0941 35.3693C95.7077 35.3693 96.2433 35.5099 96.7006 35.7912C97.158 36.0724 97.5131 36.4673 97.766 36.9759C98.0188 37.4844 98.1452 38.0781 98.1452 38.7571C98.1452 39.4332 98.0188 40.0241 97.766 40.5298C97.5131 41.0355 97.158 41.429 96.7006 41.7102C96.2433 41.9915 95.7077 42.1321 95.0941 42.1321ZM95.0984 41.0625C95.4961 41.0625 95.8256 40.9574 96.087 40.7472C96.3484 40.5369 96.5415 40.2571 96.6665 39.9077C96.7944 39.5582 96.8583 39.1733 96.8583 38.7528C96.8583 38.3352 96.7944 37.9517 96.6665 37.6023C96.5415 37.25 96.3484 36.9673 96.087 36.7543C95.8256 36.5412 95.4961 36.4347 95.0984 36.4347C94.6978 36.4347 94.3654 36.5412 94.1012 36.7543C93.8398 36.9673 93.6452 37.25 93.5174 37.6023C93.3924 37.9517 93.3299 38.3352 93.3299 38.7528C93.3299 39.1733 93.3924 39.5582 93.5174 39.9077C93.6452 40.2571 93.8398 40.5369 94.1012 40.7472C94.3654 40.9574 94.6978 41.0625 95.0984 41.0625Z" fill="white"/>
</svg>
