<svg width="359" height="22" viewBox="0 0 359 22" fill="none" xmlns="http://www.w3.org/2000/svg">
<path d="M9.92614 9H8.69318C8.62027 8.64536 8.49266 8.33381 8.31037 8.06534C8.13139 7.79688 7.91264 7.5715 7.65412 7.3892C7.39891 7.2036 7.11553 7.06439 6.80398 6.97159C6.49242 6.87879 6.16761 6.83239 5.82955 6.83239C5.21307 6.83239 4.65459 6.98816 4.15412 7.29972C3.65696 7.61127 3.26089 8.07031 2.96591 8.67685C2.67424 9.28338 2.52841 10.0275 2.52841 10.9091C2.52841 11.7907 2.67424 12.5348 2.96591 13.1413C3.26089 13.7479 3.65696 14.2069 4.15412 14.5185C4.65459 14.83 5.21307 14.9858 5.82955 14.9858C6.16761 14.9858 6.49242 14.9394 6.80398 14.8466C7.11553 14.7538 7.39891 14.6162 7.65412 14.4339C7.91264 14.2483 8.13139 14.0213 8.31037 13.7528C8.49266 13.4811 8.62027 13.1695 8.69318 12.8182H9.92614C9.83333 13.3385 9.6643 13.8042 9.41903 14.2152C9.17377 14.6262 8.86885 14.9759 8.50426 15.2642C8.13968 15.5492 7.73035 15.7663 7.27628 15.9155C6.82552 16.0646 6.34328 16.1392 5.82955 16.1392C4.96117 16.1392 4.18892 15.9271 3.51278 15.5028C2.83665 15.0786 2.30469 14.4754 1.9169 13.6932C1.52912 12.911 1.33523 11.983 1.33523 10.9091C1.33523 9.83523 1.52912 8.9072 1.9169 8.125C2.30469 7.3428 2.83665 6.73958 3.51278 6.31534C4.18892 5.8911 4.96117 5.67898 5.82955 5.67898C6.34328 5.67898 6.82552 5.75355 7.27628 5.9027C7.73035 6.05185 8.13968 6.2706 8.50426 6.55895C8.86885 6.84399 9.17377 7.192 9.41903 7.60298C9.6643 8.01065 9.83333 8.47633 9.92614 9ZM14.8617 16.1591C14.1723 16.1591 13.5674 15.995 13.0471 15.6669C12.53 15.3388 12.1257 14.8797 11.834 14.2898C11.5456 13.6998 11.4015 13.0104 11.4015 12.2216C11.4015 11.4261 11.5456 10.7318 11.834 10.1385C12.1257 9.54522 12.53 9.08452 13.0471 8.75639C13.5674 8.42827 14.1723 8.2642 14.8617 8.2642C15.5511 8.2642 16.1543 8.42827 16.6713 8.75639C17.1917 9.08452 17.5961 9.54522 17.8844 10.1385C18.1761 10.7318 18.3219 11.4261 18.3219 12.2216C18.3219 13.0104 18.1761 13.6998 17.8844 14.2898C17.5961 14.8797 17.1917 15.3388 16.6713 15.6669C16.1543 15.995 15.5511 16.1591 14.8617 16.1591ZM14.8617 15.1051C15.3854 15.1051 15.8162 14.9709 16.1543 14.7024C16.4924 14.4339 16.7426 14.081 16.905 13.6435C17.0674 13.206 17.1486 12.732 17.1486 12.2216C17.1486 11.7112 17.0674 11.2356 16.905 10.7947C16.7426 10.3539 16.4924 9.99763 16.1543 9.72585C15.8162 9.45407 15.3854 9.31818 14.8617 9.31818C14.338 9.31818 13.9071 9.45407 13.5691 9.72585C13.231 9.99763 12.9808 10.3539 12.8184 10.7947C12.656 11.2356 12.5748 11.7112 12.5748 12.2216C12.5748 12.732 12.656 13.206 12.8184 13.6435C12.9808 14.081 13.231 14.4339 13.5691 14.7024C13.9071 14.9709 14.338 15.1051 14.8617 15.1051ZM20.1129 16V8.36364H21.2464V9.55682H21.3459C21.505 9.14915 21.7618 8.83262 22.1165 8.60724C22.4711 8.37855 22.897 8.2642 23.3942 8.2642C23.898 8.2642 24.3172 8.37855 24.652 8.60724C24.9901 8.83262 25.2536 9.14915 25.4425 9.55682H25.522C25.7176 9.16241 26.0109 8.84919 26.402 8.61719C26.7931 8.38187 27.2621 8.2642 27.8089 8.2642C28.4917 8.2642 29.0502 8.47798 29.4844 8.90554C29.9186 9.32978 30.1357 9.991 30.1357 10.8892V16H28.9624V10.8892C28.9624 10.3258 28.8082 9.92306 28.5 9.68111C28.1918 9.43916 27.8288 9.31818 27.4112 9.31818C26.8743 9.31818 26.4583 9.48059 26.1634 9.8054C25.8684 10.1269 25.7209 10.5346 25.7209 11.0284V16H24.5277V10.7699C24.5277 10.3357 24.3868 9.98603 24.1051 9.72088C23.8234 9.45241 23.4605 9.31818 23.0163 9.31818C22.7114 9.31818 22.4264 9.39938 22.1612 9.56179C21.8994 9.72419 21.6873 9.94957 21.5249 10.2379C21.3658 10.523 21.2862 10.8527 21.2862 11.2273V16H20.1129ZM32.2809 16V8.36364H33.4144V9.55682H33.5138C33.6729 9.14915 33.9298 8.83262 34.2844 8.60724C34.6391 8.37855 35.065 8.2642 35.5621 8.2642C36.0659 8.2642 36.4852 8.37855 36.82 8.60724C37.158 8.83262 37.4215 9.14915 37.6104 9.55682H37.69C37.8855 9.16241 38.1789 8.84919 38.57 8.61719C38.9611 8.38187 39.43 8.2642 39.9769 8.2642C40.6597 8.2642 41.2182 8.47798 41.6523 8.90554C42.0865 9.32978 42.3036 9.991 42.3036 10.8892V16H41.1303V10.8892C41.1303 10.3258 40.9762 9.92306 40.668 9.68111C40.3597 9.43916 39.9968 9.31818 39.5792 9.31818C39.0423 9.31818 38.6263 9.48059 38.3313 9.8054C38.0363 10.1269 37.8888 10.5346 37.8888 11.0284V16H36.6957V10.7699C36.6957 10.3357 36.5548 9.98603 36.2731 9.72088C35.9914 9.45241 35.6284 9.31818 35.1843 9.31818C34.8794 9.31818 34.5943 9.39938 34.3292 9.56179C34.0674 9.72419 33.8552 9.94957 33.6928 10.2379C33.5337 10.523 33.4542 10.8527 33.4542 11.2273V16H32.2809ZM47.6506 16.1591C46.9148 16.1591 46.2801 15.9967 45.7464 15.6719C45.2161 15.3438 44.8068 14.8864 44.5185 14.2997C44.2334 13.7098 44.0909 13.0237 44.0909 12.2415C44.0909 11.4593 44.2334 10.7699 44.5185 10.1733C44.8068 9.57339 45.2079 9.10606 45.7216 8.77131C46.2386 8.43324 46.8419 8.2642 47.5312 8.2642C47.929 8.2642 48.3217 8.33049 48.7095 8.46307C49.0973 8.59564 49.4503 8.81108 49.7685 9.10938C50.0866 9.40436 50.3402 9.79545 50.5291 10.2827C50.718 10.7699 50.8125 11.3698 50.8125 12.0824V12.5795H44.9261V11.5653H49.6193C49.6193 11.1345 49.5331 10.75 49.3608 10.4119C49.1918 10.0739 48.9498 9.80705 48.6349 9.61151C48.3234 9.41596 47.9555 9.31818 47.5312 9.31818C47.0639 9.31818 46.6596 9.43419 46.3182 9.66619C45.9801 9.89489 45.7199 10.1932 45.5376 10.5611C45.3554 10.929 45.2642 11.3234 45.2642 11.7443V12.4205C45.2642 12.9972 45.3636 13.486 45.5625 13.8871C45.7647 14.2848 46.0447 14.5881 46.4027 14.7969C46.7607 15.0024 47.1766 15.1051 47.6506 15.1051C47.9588 15.1051 48.2372 15.062 48.4858 14.9759C48.7377 14.8864 48.9548 14.7538 49.1371 14.5781C49.3194 14.3991 49.4602 14.1771 49.5597 13.9119L50.6932 14.2301C50.5739 14.6146 50.3733 14.9527 50.0916 15.2443C49.8099 15.5327 49.4619 15.758 49.0476 15.9205C48.6333 16.0795 48.1676 16.1591 47.6506 16.1591ZM53.7706 11.4062V16H52.5973V8.36364H53.7308V9.55682H53.8303C54.0092 9.16903 54.281 8.85748 54.6456 8.62216C55.0102 8.38352 55.4808 8.2642 56.0575 8.2642C56.5746 8.2642 57.027 8.37027 57.4148 8.58239C57.8026 8.79119 58.1042 9.10938 58.3196 9.53693C58.535 9.96117 58.6428 10.4981 58.6428 11.1477V16H57.4695V11.2273C57.4695 10.6274 57.3137 10.16 57.0021 9.82528C56.6906 9.48722 56.263 9.31818 55.7195 9.31818C55.3449 9.31818 55.0102 9.39938 54.7152 9.56179C54.4235 9.72419 54.1932 9.96117 54.0241 10.2727C53.8551 10.5843 53.7706 10.9621 53.7706 11.4062ZM64.1078 8.36364V9.35795H60.1504V8.36364H64.1078ZM61.3038 6.53409H62.4771V13.8125C62.4771 14.1439 62.5252 14.3925 62.6213 14.5582C62.7207 14.7206 62.8467 14.83 62.9991 14.8864C63.1549 14.9394 63.319 14.9659 63.4913 14.9659C63.6206 14.9659 63.7266 14.9593 63.8095 14.946C63.8923 14.9295 63.9586 14.9162 64.0083 14.9062L64.247 15.9602C64.1674 15.9901 64.0564 16.0199 63.9139 16.0497C63.7714 16.0829 63.5907 16.0994 63.372 16.0994C63.0405 16.0994 62.7157 16.0282 62.3975 15.8857C62.0827 15.7431 61.8208 15.526 61.612 15.2344C61.4065 14.9427 61.3038 14.5748 61.3038 14.1307V6.53409ZM71.1451 10.0739L70.0911 10.3722C70.0248 10.1965 69.927 10.0258 69.7978 9.86009C69.6718 9.69105 69.4995 9.55185 69.2807 9.44247C69.062 9.3331 68.7819 9.27841 68.4405 9.27841C67.9732 9.27841 67.5837 9.38613 67.2722 9.60156C66.964 9.81368 66.8098 10.0838 66.8098 10.4119C66.8098 10.7036 66.9159 10.9339 67.128 11.103C67.3401 11.272 67.6716 11.4129 68.1223 11.5256L69.2559 11.804C69.9386 11.9697 70.4474 12.2232 70.7821 12.5646C71.1169 12.9027 71.2843 13.3385 71.2843 13.8722C71.2843 14.3097 71.1583 14.7008 70.9064 15.0455C70.6578 15.3902 70.3098 15.6619 69.8624 15.8608C69.415 16.0597 68.8946 16.1591 68.3013 16.1591C67.5224 16.1591 66.8778 15.9901 66.3674 15.652C65.8569 15.3139 65.5338 14.8201 65.3979 14.1705L66.5115 13.892C66.6176 14.303 66.8181 14.6113 67.1131 14.8168C67.4114 15.0223 67.8008 15.125 68.2814 15.125C68.8283 15.125 69.2625 15.009 69.584 14.777C69.9088 14.5417 70.0712 14.2599 70.0712 13.9318C70.0712 13.6667 69.9784 13.4446 69.7928 13.2656C69.6072 13.0833 69.3221 12.9474 68.9377 12.858L67.665 12.5597C66.9656 12.3939 66.4519 12.1371 66.1238 11.7891C65.7989 11.4377 65.6365 10.9986 65.6365 10.4716C65.6365 10.0407 65.7575 9.65956 65.9995 9.32812C66.2447 8.99669 66.5778 8.73651 66.9988 8.54758C67.423 8.35866 67.9036 8.2642 68.4405 8.2642C69.1962 8.2642 69.7895 8.42992 70.2203 8.76136C70.6545 9.0928 70.9628 9.5303 71.1451 10.0739Z" fill="#1C1B1F"/>
<mask id="path-2-inside-1_4029_5347" fill="white">
<path d="M355.78 8.96655L351.434 13.3132C350.92 13.8266 350.08 13.8266 349.567 13.3132L345.22 8.96655"/>
</mask>
<path d="M355.78 8.96655L351.434 13.3132C350.92 13.8266 350.08 13.8266 349.567 13.3132L345.22 8.96655" fill="#828282"/>
<path d="M356.841 10.0272C357.427 9.44143 357.427 8.49168 356.841 7.90589C356.255 7.32011 355.305 7.32011 354.72 7.90589L356.841 10.0272ZM346.281 7.90589C345.695 7.32011 344.745 7.32011 344.16 7.90589C343.574 8.49168 343.574 9.44143 344.16 10.0272L346.281 7.90589ZM354.72 7.90589L350.373 12.2526L352.494 14.3739L356.841 10.0272L354.72 7.90589ZM350.373 12.2526C350.411 12.2142 350.46 12.1982 350.5 12.1982C350.54 12.1982 350.589 12.2142 350.628 12.2526L348.506 14.3739C349.605 15.473 351.395 15.473 352.494 14.3739L350.373 12.2526ZM350.628 12.2526L346.281 7.90589L344.16 10.0272L348.506 14.3739L350.628 12.2526Z" fill="#828282" mask="url(#path-2-inside-1_4029_5347)"/>
</svg>
