<svg width="20" height="20" viewBox="0 0 20 20" fill="none" xmlns="http://www.w3.org/2000/svg">
<path d="M12.9916 10.3333V13.725C12.9916 14.025 12.9583 14.3083 12.8833 14.5667C12.575 15.7917 11.5583 16.5583 10.1583 16.5583H7.89163L5.37496 18.2333C4.99996 18.4917 4.49996 18.2167 4.49996 17.7667V16.5583C3.64996 16.5583 2.94163 16.275 2.44996 15.7833C1.94996 15.2833 1.66663 14.575 1.66663 13.725V10.3333C1.66663 8.75 2.64996 7.65833 4.16663 7.51667C4.27496 7.50833 4.38329 7.5 4.49996 7.5H10.1583C11.8583 7.5 12.9916 8.63333 12.9916 10.3333Z" fill="url(#paint0_linear_7_3488)"/>
<path d="M14.7916 13.0001C15.85 13.0001 16.7416 12.6501 17.3583 12.0251C17.9833 11.4084 18.3333 10.5167 18.3333 9.45842V5.20841C18.3333 3.25008 16.75 1.66675 14.7916 1.66675H7.70829C5.74996 1.66675 4.16663 3.25008 4.16663 5.20841V5.83341C4.16663 6.06675 4.34996 6.25008 4.58329 6.25008H10.1583C12.4166 6.25008 14.2416 8.07508 14.2416 10.3334V12.5834C14.2416 12.8167 14.425 13.0001 14.6583 13.0001H14.7916Z" fill="url(#paint1_linear_7_3488)"/>
<defs>
<linearGradient id="paint0_linear_7_3488" x1="1.66663" y1="16.1263" x2="12.7642" y2="16.0037" gradientUnits="userSpaceOnUse">
<stop stop-color="#4CA2FF"/>
<stop offset="1" stop-color="#1887FF"/>
</linearGradient>
<linearGradient id="paint1_linear_7_3488" x1="4.16663" y1="10.6914" x2="18.048" y2="10.5081" gradientUnits="userSpaceOnUse">
<stop stop-color="#4CA2FF"/>
<stop offset="1" stop-color="#1887FF"/>
</linearGradient>
</defs>
</svg>
