<svg width="110" height="38" viewBox="0 0 110 38" fill="none" xmlns="http://www.w3.org/2000/svg">
<rect width="110" height="38" rx="10" fill="#00A4A6"/>
<path d="M38.516 18.812C38.516 17.996 38.7 17.264 39.068 16.616C39.436 15.96 39.936 15.448 40.568 15.08C41.208 14.712 41.916 14.528 42.692 14.528C43.604 14.528 44.4 14.748 45.08 15.188C45.76 15.628 46.256 16.252 46.568 17.06H45.26C45.028 16.556 44.692 16.168 44.252 15.896C43.82 15.624 43.3 15.488 42.692 15.488C42.108 15.488 41.584 15.624 41.12 15.896C40.656 16.168 40.292 16.556 40.028 17.06C39.764 17.556 39.632 18.14 39.632 18.812C39.632 19.476 39.764 20.06 40.028 20.564C40.292 21.06 40.656 21.444 41.12 21.716C41.584 21.988 42.108 22.124 42.692 22.124C43.3 22.124 43.82 21.992 44.252 21.728C44.692 21.456 45.028 21.068 45.26 20.564H46.568C46.256 21.364 45.76 21.984 45.08 22.424C44.4 22.856 43.604 23.072 42.692 23.072C41.916 23.072 41.208 22.892 40.568 22.532C39.936 22.164 39.436 21.656 39.068 21.008C38.7 20.36 38.516 19.628 38.516 18.812ZM51.0615 23.108C50.4455 23.108 49.8855 22.968 49.3815 22.688C48.8855 22.408 48.4935 22.012 48.2055 21.5C47.9255 20.98 47.7855 20.38 47.7855 19.7C47.7855 19.028 47.9295 18.436 48.2175 17.924C48.5135 17.404 48.9135 17.008 49.4175 16.736C49.9215 16.456 50.4855 16.316 51.1095 16.316C51.7335 16.316 52.2975 16.456 52.8015 16.736C53.3055 17.008 53.7015 17.4 53.9895 17.912C54.2855 18.424 54.4335 19.02 54.4335 19.7C54.4335 20.38 54.2815 20.98 53.9775 21.5C53.6815 22.012 53.2775 22.408 52.7655 22.688C52.2535 22.968 51.6855 23.108 51.0615 23.108ZM51.0615 22.148C51.4535 22.148 51.8215 22.056 52.1655 21.872C52.5095 21.688 52.7855 21.412 52.9935 21.044C53.2095 20.676 53.3175 20.228 53.3175 19.7C53.3175 19.172 53.2135 18.724 53.0055 18.356C52.7975 17.988 52.5255 17.716 52.1895 17.54C51.8535 17.356 51.4895 17.264 51.0975 17.264C50.6975 17.264 50.3295 17.356 49.9935 17.54C49.6655 17.716 49.4015 17.988 49.2015 18.356C49.0015 18.724 48.9015 19.172 48.9015 19.7C48.9015 20.236 48.9975 20.688 49.1895 21.056C49.3895 21.424 49.6535 21.7 49.9815 21.884C50.3095 22.06 50.6695 22.148 51.0615 22.148ZM63.7773 16.304C64.2893 16.304 64.7453 16.412 65.1453 16.628C65.5453 16.836 65.8613 17.152 66.0933 17.576C66.3253 18 66.4413 18.516 66.4413 19.124V23H65.3613V19.28C65.3613 18.624 65.1973 18.124 64.8693 17.78C64.5493 17.428 64.1133 17.252 63.5613 17.252C62.9933 17.252 62.5413 17.436 62.2053 17.804C61.8693 18.164 61.7013 18.688 61.7013 19.376V23H60.6213V19.28C60.6213 18.624 60.4573 18.124 60.1293 17.78C59.8093 17.428 59.3733 17.252 58.8213 17.252C58.2533 17.252 57.8013 17.436 57.4653 17.804C57.1293 18.164 56.9613 18.688 56.9613 19.376V23H55.8693V16.424H56.9613V17.372C57.1773 17.028 57.4653 16.764 57.8253 16.58C58.1933 16.396 58.5973 16.304 59.0373 16.304C59.5893 16.304 60.0773 16.428 60.5013 16.676C60.9253 16.924 61.2413 17.288 61.4493 17.768C61.6333 17.304 61.9373 16.944 62.3613 16.688C62.7853 16.432 63.2573 16.304 63.7773 16.304ZM69.3246 17.636C69.5406 17.26 69.8606 16.948 70.2846 16.7C70.7166 16.444 71.2166 16.316 71.7846 16.316C72.3686 16.316 72.8966 16.456 73.3686 16.736C73.8486 17.016 74.2246 17.412 74.4966 17.924C74.7686 18.428 74.9046 19.016 74.9046 19.688C74.9046 20.352 74.7686 20.944 74.4966 21.464C74.2246 21.984 73.8486 22.388 73.3686 22.676C72.8966 22.964 72.3686 23.108 71.7846 23.108C71.2246 23.108 70.7286 22.984 70.2966 22.736C69.8726 22.48 69.5486 22.164 69.3246 21.788V26.12H68.2326V16.424H69.3246V17.636ZM73.7886 19.688C73.7886 19.192 73.6886 18.76 73.4886 18.392C73.2886 18.024 73.0166 17.744 72.6726 17.552C72.3366 17.36 71.9646 17.264 71.5566 17.264C71.1566 17.264 70.7846 17.364 70.4406 17.564C70.1046 17.756 69.8326 18.04 69.6246 18.416C69.4246 18.784 69.3246 19.212 69.3246 19.7C69.3246 20.196 69.4246 20.632 69.6246 21.008C69.8326 21.376 70.1046 21.66 70.4406 21.86C70.7846 22.052 71.1566 22.148 71.5566 22.148C71.9646 22.148 72.3366 22.052 72.6726 21.86C73.0166 21.66 73.2886 21.376 73.4886 21.008C73.6886 20.632 73.7886 20.192 73.7886 19.688ZM75.934 19.688C75.934 19.016 76.07 18.428 76.342 17.924C76.614 17.412 76.986 17.016 77.458 16.736C77.938 16.456 78.47 16.316 79.054 16.316C79.63 16.316 80.13 16.44 80.554 16.688C80.978 16.936 81.294 17.248 81.502 17.624V16.424H82.606V23H81.502V21.776C81.286 22.16 80.962 22.48 80.53 22.736C80.106 22.984 79.61 23.108 79.042 23.108C78.458 23.108 77.93 22.964 77.458 22.676C76.986 22.388 76.614 21.984 76.342 21.464C76.07 20.944 75.934 20.352 75.934 19.688ZM81.502 19.7C81.502 19.204 81.402 18.772 81.202 18.404C81.002 18.036 80.73 17.756 80.386 17.564C80.05 17.364 79.678 17.264 79.27 17.264C78.862 17.264 78.49 17.36 78.154 17.552C77.818 17.744 77.55 18.024 77.35 18.392C77.15 18.76 77.05 19.192 77.05 19.688C77.05 20.192 77.15 20.632 77.35 21.008C77.55 21.376 77.818 21.66 78.154 21.86C78.49 22.052 78.862 22.148 79.27 22.148C79.678 22.148 80.05 22.052 80.386 21.86C80.73 21.66 81.002 21.376 81.202 21.008C81.402 20.632 81.502 20.196 81.502 19.7ZM85.5433 17.492C85.7353 17.116 86.0073 16.824 86.3593 16.616C86.7193 16.408 87.1553 16.304 87.6673 16.304V17.432H87.3793C86.1553 17.432 85.5433 18.096 85.5433 19.424V23H84.4513V16.424H85.5433V17.492ZM94.9279 19.46C94.9279 19.668 94.9159 19.888 94.8919 20.12H89.6359C89.6759 20.768 89.8959 21.276 90.2959 21.644C90.7039 22.004 91.1959 22.184 91.7719 22.184C92.2439 22.184 92.6359 22.076 92.9479 21.86C93.2679 21.636 93.4919 21.34 93.6199 20.972H94.7959C94.6199 21.604 94.2679 22.12 93.7399 22.52C93.2119 22.912 92.5559 23.108 91.7719 23.108C91.1479 23.108 90.5879 22.968 90.0919 22.688C89.6039 22.408 89.2199 22.012 88.9399 21.5C88.6599 20.98 88.5199 20.38 88.5199 19.7C88.5199 19.02 88.6559 18.424 88.9279 17.912C89.1999 17.4 89.5799 17.008 90.0679 16.736C90.5639 16.456 91.1319 16.316 91.7719 16.316C92.3959 16.316 92.9479 16.452 93.4279 16.724C93.9079 16.996 94.2759 17.372 94.5319 17.852C94.7959 18.324 94.9279 18.86 94.9279 19.46ZM93.7999 19.232C93.7999 18.816 93.7079 18.46 93.5239 18.164C93.3399 17.86 93.0879 17.632 92.7679 17.48C92.4559 17.32 92.1079 17.24 91.7239 17.24C91.1719 17.24 90.6999 17.416 90.3079 17.768C89.9239 18.12 89.7039 18.608 89.6479 19.232H93.7999Z" fill="white"/>
<path d="M21.6085 22.8274H16.3579" stroke="white" stroke-width="1.2" stroke-linecap="round" stroke-linejoin="round"/>
<path d="M23.9504 14.7503H29.201" stroke="white" stroke-width="1.2" stroke-linecap="round" stroke-linejoin="round"/>
<path fill-rule="evenodd" clip-rule="evenodd" d="M20.2719 14.7052C20.2719 13.6255 19.3901 12.75 18.3026 12.75C17.2151 12.75 16.3333 13.6255 16.3333 14.7052C16.3333 15.7849 17.2151 16.6604 18.3026 16.6604C19.3901 16.6604 20.2719 15.7849 20.2719 14.7052Z" stroke="white" stroke-width="1.2" stroke-linecap="round" stroke-linejoin="round"/>
<path fill-rule="evenodd" clip-rule="evenodd" d="M29.6667 22.7948C29.6667 21.7151 28.7855 20.8396 27.6981 20.8396C26.6099 20.8396 25.7281 21.7151 25.7281 22.7948C25.7281 23.8745 26.6099 24.75 27.6981 24.75C28.7855 24.75 29.6667 23.8745 29.6667 22.7948Z" stroke="white" stroke-width="1.2" stroke-linecap="round" stroke-linejoin="round"/>
</svg>
