<svg width="32" height="30" viewBox="0 0 32 30" fill="none" xmlns="http://www.w3.org/2000/svg">
<rect x="0.592712" y="0.10498" width="30.8642" height="29.321" rx="7.71605" fill="#00A4A6"/>
<path d="M21.4804 12.3062C21.4804 12.3062 21.0613 17.5033 20.8183 19.6925C20.7025 20.7382 20.0566 21.3509 18.9987 21.3701C16.9854 21.4064 14.9698 21.4087 12.9573 21.3663C11.9395 21.3455 11.3044 20.725 11.191 19.6979C10.9463 17.4894 10.5296 12.3062 10.5296 12.3062" stroke="white" stroke-width="1.5" stroke-linecap="round" stroke-linejoin="round"/>
<path d="M22.5478 9.81479H9.46188" stroke="white" stroke-width="1.5" stroke-linecap="round" stroke-linejoin="round"/>
<path d="M20.0263 9.8149C19.4205 9.8149 18.8989 9.38663 18.7801 8.79322L18.5925 7.85487C18.4768 7.42197 18.0848 7.12256 17.638 7.12256H14.3715C13.9247 7.12256 13.5327 7.42197 13.417 7.85487L13.2295 8.79322C13.1106 9.38663 12.589 9.8149 11.9832 9.8149" stroke="white" stroke-width="1.5" stroke-linecap="round" stroke-linejoin="round"/>
</svg>
