<svg width="327" height="56" viewBox="0 0 327 56" fill="none" xmlns="http://www.w3.org/2000/svg">
<rect x="0.5" y="0.5" width="326" height="55" rx="27.5" fill="white"/>
<rect x="0.5" y="0.5" width="326" height="55" rx="27.5" stroke="#A0A0A0"/>
<path d="M130.358 33.5V22.3H137.382V24.252H132.31V26.524H136.334V28.476H132.31V31.548H137.382V33.5H130.358ZM139.14 33.5V25.5H141.092V26.212C141.364 25.924 141.689 25.6973 142.068 25.532C142.446 25.3613 142.854 25.276 143.292 25.276C143.846 25.276 144.356 25.4067 144.82 25.668C145.289 25.9293 145.662 26.2787 145.94 26.716C146.222 26.2787 146.596 25.9293 147.06 25.668C147.524 25.4067 148.033 25.276 148.588 25.276C149.174 25.276 149.705 25.42 150.18 25.708C150.66 25.9907 151.041 26.372 151.324 26.852C151.612 27.3267 151.756 27.8573 151.756 28.444V33.5H149.804V28.964C149.804 28.6547 149.726 28.372 149.572 28.116C149.422 27.8547 149.22 27.6467 148.964 27.492C148.713 27.332 148.43 27.252 148.116 27.252C147.801 27.252 147.516 27.3293 147.26 27.484C147.009 27.6333 146.806 27.836 146.652 28.092C146.497 28.348 146.42 28.6387 146.42 28.964V33.5H144.468V28.964C144.468 28.6387 144.393 28.348 144.244 28.092C144.094 27.836 143.892 27.6333 143.636 27.484C143.38 27.3293 143.094 27.252 142.78 27.252C142.47 27.252 142.188 27.332 141.932 27.492C141.676 27.6467 141.47 27.8547 141.316 28.116C141.166 28.372 141.092 28.6547 141.092 28.964V33.5H139.14ZM159.234 25.5H161.186V33.5H159.234L159.146 32.508C158.928 32.8653 158.637 33.156 158.274 33.38C157.917 33.5987 157.493 33.708 157.002 33.708C156.41 33.708 155.856 33.596 155.338 33.372C154.821 33.148 154.365 32.8387 153.97 32.444C153.581 32.0493 153.274 31.5933 153.05 31.076C152.832 30.5587 152.722 30.004 152.722 29.412C152.722 28.8413 152.826 28.3053 153.034 27.804C153.248 27.3027 153.544 26.8627 153.922 26.484C154.301 26.1053 154.738 25.8093 155.234 25.596C155.73 25.3827 156.264 25.276 156.834 25.276C157.362 25.276 157.834 25.3933 158.25 25.628C158.672 25.8627 159.029 26.1613 159.322 26.524L159.234 25.5ZM156.954 31.828C157.37 31.828 157.738 31.724 158.058 31.516C158.378 31.308 158.629 31.028 158.81 30.676C158.992 30.3187 159.082 29.9267 159.082 29.5C159.082 29.068 158.992 28.676 158.81 28.324C158.629 27.9667 158.376 27.684 158.05 27.476C157.73 27.268 157.365 27.164 156.954 27.164C156.544 27.164 156.168 27.2707 155.826 27.484C155.49 27.692 155.221 27.972 155.018 28.324C154.821 28.676 154.722 29.068 154.722 29.5C154.722 29.932 154.824 30.324 155.026 30.676C155.229 31.028 155.498 31.308 155.834 31.516C156.176 31.724 156.549 31.828 156.954 31.828ZM162.78 25.5H164.732V33.5H162.78V25.5ZM163.772 24.468C163.484 24.468 163.242 24.3747 163.044 24.188C162.847 23.996 162.748 23.756 162.748 23.468C162.748 23.1853 162.847 22.948 163.044 22.756C163.242 22.564 163.482 22.468 163.764 22.468C164.047 22.468 164.284 22.564 164.476 22.756C164.674 22.948 164.772 23.1853 164.772 23.468C164.772 23.756 164.676 23.996 164.484 24.188C164.292 24.3747 164.055 24.468 163.772 24.468ZM166.687 33.5V21.5H168.639V33.5H166.687Z" fill="#262626"/>
<path d="M192.167 35.0833H183.833C181.333 35.0833 179.667 33.8333 179.667 30.9166V25.0833C179.667 22.1666 181.333 20.9166 183.833 20.9166H192.167C194.667 20.9166 196.333 22.1666 196.333 25.0833V30.9166C196.333 33.8333 194.667 35.0833 192.167 35.0833Z" stroke="#262626" stroke-width="1.5" stroke-miterlimit="10" stroke-linecap="round" stroke-linejoin="round"/>
<path d="M192.167 25.5L189.558 27.5833C188.7 28.2667 187.292 28.2667 186.433 27.5833L183.833 25.5" stroke="#262626" stroke-width="1.5" stroke-miterlimit="10" stroke-linecap="round" stroke-linejoin="round"/>
</svg>
