<svg width="32" height="32" viewBox="0 0 32 32" fill="none" xmlns="http://www.w3.org/2000/svg">
<rect width="32" height="32" rx="8" fill="#F7F8F8"/>
<path d="M14.6085 19.8274H9.35788" stroke="#1D1617" stroke-width="1.2" stroke-linecap="round" stroke-linejoin="round"/>
<path d="M16.9504 11.7503H22.201" stroke="#1D1617" stroke-width="1.2" stroke-linecap="round" stroke-linejoin="round"/>
<path fill-rule="evenodd" clip-rule="evenodd" d="M13.2719 11.7052C13.2719 10.6255 12.3901 9.75 11.3026 9.75C10.2151 9.75 9.33334 10.6255 9.33334 11.7052C9.33334 12.7849 10.2151 13.6604 11.3026 13.6604C12.3901 13.6604 13.2719 12.7849 13.2719 11.7052Z" stroke="#1D1617" stroke-width="1.2" stroke-linecap="round" stroke-linejoin="round"/>
<path fill-rule="evenodd" clip-rule="evenodd" d="M22.6667 19.7948C22.6667 18.7151 21.7855 17.8396 20.6981 17.8396C19.6099 17.8396 18.7281 18.7151 18.7281 19.7948C18.7281 20.8745 19.6099 21.75 20.6981 21.75C21.7855 21.75 22.6667 20.8745 22.6667 19.7948Z" stroke="#1D1617" stroke-width="1.2" stroke-linecap="round" stroke-linejoin="round"/>
</svg>
