<svg width="65" height="24" viewBox="0 0 65 24" fill="none" xmlns="http://www.w3.org/2000/svg">
<rect width="65" height="24" rx="4" fill="url(#paint0_linear_4029_3639)"/>
<path d="M9.05682 16V7.27273H14.2898V8.21023H10.1136V11.1591H13.8977V12.0966H10.1136V16H9.05682ZM15.9634 16V9.45455H16.9691V16H15.9634ZM16.4748 8.36364C16.2788 8.36364 16.1097 8.29688 15.9677 8.16335C15.8285 8.02983 15.7589 7.86932 15.7589 7.68182C15.7589 7.49432 15.8285 7.33381 15.9677 7.20028C16.1097 7.06676 16.2788 7 16.4748 7C16.6708 7 16.8384 7.06676 16.9776 7.20028C17.1197 7.33381 17.1907 7.49432 17.1907 7.68182C17.1907 7.86932 17.1197 8.02983 16.9776 8.16335C16.8384 8.29688 16.6708 8.36364 16.4748 8.36364ZM19.8168 7.27273V16H18.8111V7.27273H19.8168ZM24.5053 9.45455V10.3068H21.1133V9.45455H24.5053ZM22.1019 7.88636H23.1076V14.125C23.1076 14.4091 23.1488 14.6222 23.2312 14.7642C23.3164 14.9034 23.4244 14.9972 23.555 15.0455C23.6886 15.0909 23.8292 15.1136 23.9769 15.1136C24.0877 15.1136 24.1786 15.108 24.2496 15.0966C24.3207 15.0824 24.3775 15.071 24.4201 15.0625L24.6246 15.9659C24.5565 15.9915 24.4613 16.017 24.3391 16.0426C24.217 16.071 24.0621 16.0852 23.8746 16.0852C23.5906 16.0852 23.3121 16.0241 23.0394 15.902C22.7695 15.7798 22.5451 15.5938 22.3661 15.3438C22.19 15.0938 22.1019 14.7784 22.1019 14.3977V7.88636ZM28.6921 16.1364C28.0614 16.1364 27.5174 15.9972 27.06 15.7188C26.6055 15.4375 26.2546 15.0455 26.0075 14.5426C25.7631 14.0369 25.641 13.4489 25.641 12.7784C25.641 12.108 25.7631 11.517 26.0075 11.0057C26.2546 10.4915 26.5984 10.0909 27.0387 9.80398C27.4819 9.5142 27.9989 9.36932 28.5898 9.36932C28.9308 9.36932 29.2674 9.42614 29.5998 9.53977C29.9322 9.65341 30.2347 9.83807 30.5075 10.0938C30.7802 10.3466 30.9975 10.6818 31.1594 11.0994C31.3214 11.517 31.4023 12.0312 31.4023 12.642V13.0682H26.3569V12.1989H30.3796C30.3796 11.8295 30.3058 11.5 30.158 11.2102C30.0131 10.9205 29.8058 10.6918 29.5359 10.5241C29.2688 10.3565 28.9535 10.2727 28.5898 10.2727C28.1893 10.2727 27.8427 10.3722 27.5501 10.571C27.2603 10.767 27.0373 11.0227 26.881 11.3381C26.7248 11.6534 26.6467 11.9915 26.6467 12.3523V12.9318C26.6467 13.4261 26.7319 13.8452 26.9023 14.1889C27.0756 14.5298 27.3157 14.7898 27.6225 14.9688C27.9293 15.1449 28.2859 15.233 28.6921 15.233C28.9563 15.233 29.195 15.196 29.408 15.1222C29.6239 15.0455 29.81 14.9318 29.9663 14.7812C30.1225 14.6278 30.2433 14.4375 30.3285 14.2102L31.3001 14.483C31.1978 14.8125 31.0259 15.1023 30.7844 15.3523C30.543 15.5994 30.2447 15.7926 29.8896 15.9318C29.5344 16.0682 29.1353 16.1364 28.6921 16.1364ZM32.9322 16V9.45455H33.9038V10.4432H33.9719C34.0913 10.1193 34.3072 9.85653 34.6197 9.65483C34.9322 9.45312 35.2844 9.35227 35.6765 9.35227C35.7504 9.35227 35.8427 9.35369 35.9535 9.35653C36.0643 9.35937 36.1481 9.36364 36.2049 9.36932V10.392C36.1708 10.3835 36.0927 10.3707 35.9705 10.3537C35.8512 10.3338 35.7248 10.3239 35.5913 10.3239C35.2731 10.3239 34.989 10.3906 34.739 10.5241C34.4918 10.6548 34.2958 10.8366 34.1509 11.0696C34.0089 11.2997 33.9379 11.5625 33.9379 11.858V16H32.9322Z" fill="white"/>
<path d="M44.5999 5.39999H53.3999C54.1333 5.39999 54.7333 5.99999 54.7333 6.73333V8.19999C54.7333 8.73333 54.3999 9.39999 54.0666 9.73333L51.1999 12.2667C50.7999 12.6 50.5333 13.2667 50.5333 13.8V16.6667C50.5333 17.0667 50.2666 17.6 49.9333 17.8L48.9999 18.4C48.1333 18.9333 46.9333 18.3333 46.9333 17.2667V13.7333C46.9333 13.2667 46.6666 12.6667 46.3999 12.3333L43.8666 9.66666C43.5333 9.33333 43.2666 8.73333 43.2666 8.33333V6.79999C43.2666 5.99999 43.8666 5.39999 44.5999 5.39999Z" stroke="white" stroke-width="1.5" stroke-miterlimit="10" stroke-linecap="round" stroke-linejoin="round"/>
<path d="M48.2867 5.39999L45 10.6667" stroke="white" stroke-width="1.5" stroke-miterlimit="10" stroke-linecap="round" stroke-linejoin="round"/>
<defs>
<linearGradient id="paint0_linear_4029_3639" x1="1.2457e-07" y1="19.1111" x2="63.6501" y2="17.2895" gradientUnits="userSpaceOnUse">
<stop stop-color="#4CA2FF"/>
<stop offset="1" stop-color="#1887FF"/>
</linearGradient>
</defs>
</svg>
