<svg width="327" height="56" viewBox="0 0 327 56" fill="none" xmlns="http://www.w3.org/2000/svg">
<rect width="327" height="56" rx="28" fill="#1E3ECE"/>
<path d="M126.777 33.708C125.998 33.708 125.273 33.556 124.601 33.252C123.934 32.948 123.353 32.5293 122.857 31.996C122.361 31.4573 121.971 30.8387 121.689 30.14C121.411 29.436 121.273 28.684 121.273 27.884C121.273 27.0413 121.422 26.268 121.721 25.564C122.025 24.86 122.438 24.2493 122.961 23.732C123.483 23.2147 124.075 22.8147 124.737 22.532C125.403 22.2493 126.097 22.108 126.817 22.108C127.622 22.108 128.403 22.2973 129.161 22.676C129.923 23.0493 130.595 23.628 131.177 24.412L129.433 25.348C129.075 24.9107 128.665 24.5853 128.201 24.372C127.742 24.1533 127.273 24.044 126.793 24.044C126.323 24.044 125.873 24.14 125.441 24.332C125.014 24.524 124.633 24.796 124.297 25.148C123.966 25.4947 123.705 25.9053 123.513 26.38C123.321 26.8493 123.225 27.364 123.225 27.924C123.225 28.452 123.318 28.9507 123.505 29.42C123.691 29.884 123.947 30.292 124.273 30.644C124.603 30.9907 124.985 31.2627 125.417 31.46C125.849 31.6573 126.313 31.756 126.809 31.756C127.139 31.756 127.462 31.7053 127.777 31.604C128.097 31.4973 128.395 31.3453 128.673 31.148C128.955 30.9507 129.206 30.7107 129.425 30.428C129.649 30.1453 129.835 29.8253 129.985 29.468H127.945V27.764H132.281C132.302 28.58 132.174 29.3453 131.897 30.06C131.619 30.7747 131.227 31.4067 130.721 31.956C130.214 32.5053 129.625 32.9347 128.953 33.244C128.281 33.5533 127.555 33.708 126.777 33.708ZM137.16 33.708C136.424 33.708 135.752 33.5187 135.144 33.14C134.541 32.7613 134.058 32.252 133.696 31.612C133.338 30.972 133.16 30.2653 133.16 29.492C133.16 28.9107 133.264 28.3667 133.472 27.86C133.68 27.348 133.965 26.9 134.328 26.516C134.696 26.1267 135.122 25.8227 135.608 25.604C136.093 25.3853 136.61 25.276 137.16 25.276C137.784 25.276 138.354 25.4093 138.872 25.676C139.394 25.9373 139.837 26.2973 140.2 26.756C140.562 27.2147 140.826 27.7373 140.992 28.324C141.157 28.9107 141.194 29.524 141.104 30.164H135.256C135.33 30.4627 135.453 30.732 135.624 30.972C135.794 31.2067 136.01 31.396 136.272 31.54C136.533 31.6787 136.829 31.7507 137.16 31.756C137.501 31.7613 137.81 31.6813 138.088 31.516C138.37 31.3453 138.605 31.116 138.792 30.828L140.784 31.292C140.458 32.0013 139.973 32.5827 139.328 33.036C138.682 33.484 137.96 33.708 137.16 33.708ZM135.192 28.7H139.128C139.069 28.38 138.944 28.092 138.752 27.836C138.565 27.5747 138.333 27.3667 138.056 27.212C137.778 27.0573 137.48 26.98 137.16 26.98C136.84 26.98 136.544 27.0573 136.272 27.212C136 27.3613 135.768 27.5667 135.576 27.828C135.389 28.084 135.261 28.3747 135.192 28.7ZM146.693 27.452H145.141V33.5H143.189V27.452H142.005V25.5H143.189V22.988H145.141V25.5H146.693V27.452ZM156.015 33.708C155.397 33.708 154.802 33.612 154.231 33.42C153.666 33.2227 153.17 32.9427 152.743 32.58C152.317 32.212 152.01 31.772 151.823 31.26L153.655 30.588C153.73 30.8013 153.882 30.996 154.111 31.172C154.341 31.348 154.621 31.4893 154.951 31.596C155.282 31.7027 155.637 31.756 156.015 31.756C156.405 31.756 156.767 31.6973 157.103 31.58C157.445 31.4573 157.719 31.2893 157.927 31.076C158.135 30.8573 158.239 30.604 158.239 30.316C158.239 30.0227 158.13 29.7827 157.911 29.596C157.693 29.404 157.413 29.252 157.071 29.14C156.73 29.028 156.378 28.9427 156.015 28.884C155.221 28.7613 154.509 28.572 153.879 28.316C153.25 28.06 152.751 27.7053 152.383 27.252C152.021 26.7987 151.839 26.212 151.839 25.492C151.839 24.8147 152.034 24.2227 152.423 23.716C152.813 23.2093 153.325 22.8147 153.959 22.532C154.594 22.2493 155.279 22.108 156.015 22.108C156.629 22.108 157.221 22.204 157.791 22.396C158.362 22.588 158.861 22.868 159.287 23.236C159.719 23.604 160.029 24.0467 160.215 24.564L158.375 25.228C158.301 25.0147 158.149 24.82 157.919 24.644C157.69 24.468 157.41 24.3293 157.079 24.228C156.749 24.1213 156.394 24.068 156.015 24.068C155.637 24.0627 155.277 24.124 154.935 24.252C154.599 24.3747 154.325 24.5427 154.111 24.756C153.898 24.9693 153.791 25.2147 153.791 25.492C153.791 25.8493 153.89 26.1187 154.087 26.3C154.29 26.4813 154.559 26.6147 154.895 26.7C155.231 26.78 155.605 26.8547 156.015 26.924C156.762 27.0413 157.453 27.2387 158.087 27.516C158.722 27.7933 159.231 28.164 159.615 28.628C159.999 29.0867 160.191 29.6493 160.191 30.316C160.191 30.9933 159.999 31.588 159.615 32.1C159.231 32.6067 158.722 33.0013 158.087 33.284C157.453 33.5667 156.762 33.708 156.015 33.708ZM166.068 27.452H164.516V33.5H162.564V27.452H161.38V25.5H162.564V22.988H164.516V25.5H166.068V27.452ZM173.359 25.5H175.311V33.5H173.359L173.271 32.508C173.053 32.8653 172.762 33.156 172.399 33.38C172.042 33.5987 171.618 33.708 171.127 33.708C170.535 33.708 169.981 33.596 169.463 33.372C168.946 33.148 168.49 32.8387 168.095 32.444C167.706 32.0493 167.399 31.5933 167.175 31.076C166.957 30.5587 166.847 30.004 166.847 29.412C166.847 28.8413 166.951 28.3053 167.159 27.804C167.373 27.3027 167.669 26.8627 168.047 26.484C168.426 26.1053 168.863 25.8093 169.359 25.596C169.855 25.3827 170.389 25.276 170.959 25.276C171.487 25.276 171.959 25.3933 172.375 25.628C172.797 25.8627 173.154 26.1613 173.447 26.524L173.359 25.5ZM171.079 31.828C171.495 31.828 171.863 31.724 172.183 31.516C172.503 31.308 172.754 31.028 172.935 30.676C173.117 30.3187 173.207 29.9267 173.207 29.5C173.207 29.068 173.117 28.676 172.935 28.324C172.754 27.9667 172.501 27.684 172.175 27.476C171.855 27.268 171.49 27.164 171.079 27.164C170.669 27.164 170.293 27.2707 169.951 27.484C169.615 27.692 169.346 27.972 169.143 28.324C168.946 28.676 168.847 29.068 168.847 29.5C168.847 29.932 168.949 30.324 169.151 30.676C169.354 31.028 169.623 31.308 169.959 31.516C170.301 31.724 170.674 31.828 171.079 31.828ZM176.913 33.5L176.905 25.5H178.857L178.865 26.212C179.137 25.924 179.463 25.6973 179.841 25.532C180.22 25.3613 180.628 25.276 181.065 25.276C181.359 25.276 181.652 25.3187 181.945 25.404L181.177 27.372C180.975 27.292 180.772 27.252 180.569 27.252C180.255 27.252 179.967 27.3293 179.705 27.484C179.449 27.6333 179.244 27.8387 179.089 28.1C178.94 28.356 178.865 28.6413 178.865 28.956V33.5H176.913ZM187.35 27.452H185.798V33.5H183.846V27.452H182.662V25.5H183.846V22.988H185.798V25.5H187.35V27.452ZM192.128 33.708C191.392 33.708 190.72 33.5187 190.112 33.14C189.51 32.7613 189.027 32.252 188.664 31.612C188.307 30.972 188.128 30.2653 188.128 29.492C188.128 28.9107 188.232 28.3667 188.44 27.86C188.648 27.348 188.934 26.9 189.296 26.516C189.664 26.1267 190.091 25.8227 190.576 25.604C191.062 25.3853 191.579 25.276 192.128 25.276C192.752 25.276 193.323 25.4093 193.84 25.676C194.363 25.9373 194.806 26.2973 195.168 26.756C195.531 27.2147 195.795 27.7373 195.96 28.324C196.126 28.9107 196.163 29.524 196.072 30.164H190.224C190.299 30.4627 190.422 30.732 190.592 30.972C190.763 31.2067 190.979 31.396 191.24 31.54C191.502 31.6787 191.798 31.7507 192.128 31.756C192.47 31.7613 192.779 31.6813 193.056 31.516C193.339 31.3453 193.574 31.116 193.76 30.828L195.752 31.292C195.427 32.0013 194.942 32.5827 194.296 33.036C193.651 33.484 192.928 33.708 192.128 33.708ZM190.16 28.7H194.096C194.038 28.38 193.912 28.092 193.72 27.836C193.534 27.5747 193.302 27.3667 193.024 27.212C192.747 27.0573 192.448 26.98 192.128 26.98C191.808 26.98 191.512 27.0573 191.24 27.212C190.968 27.3613 190.736 27.5667 190.544 27.828C190.358 28.084 190.23 28.3747 190.16 28.7ZM203.453 21.5H205.405V33.5H203.453V32.5C203.197 32.8573 202.875 33.148 202.485 33.372C202.096 33.596 201.645 33.708 201.133 33.708C200.552 33.708 200.008 33.5987 199.501 33.38C198.995 33.1613 198.547 32.86 198.157 32.476C197.773 32.0867 197.472 31.6387 197.253 31.132C197.035 30.6253 196.925 30.0813 196.925 29.5C196.925 28.9187 197.035 28.3747 197.253 27.868C197.472 27.3613 197.773 26.916 198.157 26.532C198.547 26.1427 198.995 25.8387 199.501 25.62C200.008 25.4013 200.552 25.292 201.133 25.292C201.645 25.292 202.096 25.404 202.485 25.628C202.875 25.8467 203.197 26.1373 203.453 26.5V21.5ZM201.157 31.828C201.573 31.828 201.941 31.724 202.261 31.516C202.581 31.308 202.832 31.028 203.013 30.676C203.195 30.3187 203.285 29.9267 203.285 29.5C203.285 29.068 203.195 28.676 203.013 28.324C202.832 27.9667 202.579 27.684 202.253 27.476C201.933 27.268 201.568 27.164 201.157 27.164C200.747 27.164 200.371 27.2707 200.029 27.484C199.693 27.692 199.424 27.972 199.221 28.324C199.024 28.676 198.925 29.068 198.925 29.5C198.925 29.932 199.027 30.324 199.229 30.676C199.432 31.028 199.701 31.308 200.037 31.516C200.379 31.724 200.752 31.828 201.157 31.828Z" fill="white"/>
</svg>
