<svg width="359" height="104" viewBox="0 0 359 104" fill="none" xmlns="http://www.w3.org/2000/svg">
<g filter="url(#filter0_d_113_314)">
<rect x="22" y="12" width="315" height="60" rx="30" fill="#0FA4A6"/>
<path fill-rule="evenodd" clip-rule="evenodd" d="M151.886 32H156.925C159.445 32 161.5 34 161.5 36.44V47.56C161.5 50.01 159.445 52 156.905 52H151.876C149.356 52 147.291 50.01 147.291 47.57V42.77H153.693L152.041 44.37C151.731 44.67 151.731 45.16 152.041 45.46C152.196 45.61 152.402 45.68 152.609 45.68C152.805 45.68 153.012 45.61 153.167 45.46L156.182 42.55C156.337 42.41 156.419 42.21 156.419 42C156.419 41.8 156.337 41.6 156.182 41.46L153.167 38.55C152.857 38.25 152.351 38.25 152.041 38.55C151.731 38.85 151.731 39.34 152.041 39.64L153.693 41.23H147.291V36.45C147.291 34 149.356 32 151.886 32ZM142.5 41.9999C142.5 41.5799 142.855 41.2299 143.282 41.2299H147.291V42.7699H143.282C142.855 42.7699 142.5 42.4299 142.5 41.9999Z" fill="white"/>
<path d="M177.728 45.888H181.312V48H174.992V36.768H177.728V45.888ZM186.681 48.128C185.806 48.128 185.017 47.9413 184.313 47.568C183.62 47.1947 183.07 46.6613 182.665 45.968C182.27 45.2747 182.073 44.464 182.073 43.536C182.073 42.6187 182.276 41.8133 182.681 41.12C183.086 40.416 183.641 39.8773 184.345 39.504C185.049 39.1307 185.838 38.944 186.713 38.944C187.588 38.944 188.377 39.1307 189.081 39.504C189.785 39.8773 190.34 40.416 190.745 41.12C191.15 41.8133 191.353 42.6187 191.353 43.536C191.353 44.4533 191.145 45.264 190.729 45.968C190.324 46.6613 189.764 47.1947 189.049 47.568C188.345 47.9413 187.556 48.128 186.681 48.128ZM186.681 45.76C187.204 45.76 187.646 45.568 188.009 45.184C188.382 44.8 188.569 44.2507 188.569 43.536C188.569 42.8213 188.388 42.272 188.025 41.888C187.673 41.504 187.236 41.312 186.713 41.312C186.18 41.312 185.737 41.504 185.385 41.888C185.033 42.2613 184.857 42.8107 184.857 43.536C184.857 44.2507 185.028 44.8 185.369 45.184C185.721 45.568 186.158 45.76 186.681 45.76ZM196.197 38.944C196.826 38.944 197.375 39.072 197.845 39.328C198.325 39.584 198.693 39.92 198.949 40.336V39.072H201.685V47.984C201.685 48.8053 201.519 49.5467 201.189 50.208C200.869 50.88 200.373 51.4133 199.701 51.808C199.039 52.2027 198.213 52.4 197.221 52.4C195.898 52.4 194.826 52.0853 194.005 51.456C193.183 50.8373 192.714 49.9947 192.597 48.928H195.301C195.386 49.2693 195.589 49.536 195.909 49.728C196.229 49.9307 196.623 50.032 197.093 50.032C197.658 50.032 198.106 49.8667 198.437 49.536C198.778 49.216 198.949 48.6987 198.949 47.984V46.72C198.682 47.136 198.314 47.4773 197.845 47.744C197.375 48 196.826 48.128 196.197 48.128C195.461 48.128 194.794 47.9413 194.197 47.568C193.599 47.184 193.125 46.6453 192.773 45.952C192.431 45.248 192.261 44.4373 192.261 43.52C192.261 42.6027 192.431 41.7973 192.773 41.104C193.125 40.4107 193.599 39.8773 194.197 39.504C194.794 39.1307 195.461 38.944 196.197 38.944ZM198.949 43.536C198.949 42.8533 198.757 42.3147 198.373 41.92C197.999 41.5253 197.541 41.328 196.997 41.328C196.453 41.328 195.989 41.5253 195.605 41.92C195.231 42.304 195.045 42.8373 195.045 43.52C195.045 44.2027 195.231 44.7467 195.605 45.152C195.989 45.5467 196.453 45.744 196.997 45.744C197.541 45.744 197.999 45.5467 198.373 45.152C198.757 44.7573 198.949 44.2187 198.949 43.536ZM205.04 38.144C204.56 38.144 204.165 38.0053 203.856 37.728C203.557 37.44 203.408 37.088 203.408 36.672C203.408 36.2453 203.557 35.8933 203.856 35.616C204.165 35.328 204.56 35.184 205.04 35.184C205.509 35.184 205.893 35.328 206.192 35.616C206.501 35.8933 206.656 36.2453 206.656 36.672C206.656 37.088 206.501 37.44 206.192 37.728C205.893 38.0053 205.509 38.144 205.04 38.144ZM206.4 39.072V48H203.664V39.072H206.4ZM213.823 38.976C214.868 38.976 215.7 39.3173 216.319 40C216.948 40.672 217.263 41.6 217.263 42.784V48H214.543V43.152C214.543 42.5547 214.388 42.0907 214.079 41.76C213.769 41.4293 213.353 41.264 212.831 41.264C212.308 41.264 211.892 41.4293 211.583 41.76C211.273 42.0907 211.119 42.5547 211.119 43.152V48H208.383V39.072H211.119V40.256C211.396 39.8613 211.769 39.552 212.239 39.328C212.708 39.0933 213.236 38.976 213.823 38.976Z" fill="white"/>
</g>
<defs>
<filter id="filter0_d_113_314" x="0" y="0" width="359" height="104" filterUnits="userSpaceOnUse" color-interpolation-filters="sRGB">
<feFlood flood-opacity="0" result="BackgroundImageFix"/>
<feColorMatrix in="SourceAlpha" type="matrix" values="0 0 0 0 0 0 0 0 0 0 0 0 0 0 0 0 0 0 127 0" result="hardAlpha"/>
<feOffset dy="10"/>
<feGaussianBlur stdDeviation="11"/>
<feColorMatrix type="matrix" values="0 0 0 0 0.909804 0 0 0 0 0.980392 0 0 0 0 0.815686 0 0 0 0.3 0"/>
<feBlend mode="normal" in2="BackgroundImageFix" result="effect1_dropShadow_113_314"/>
<feBlend mode="normal" in="SourceGraphic" in2="effect1_dropShadow_113_314" result="shape"/>
</filter>
</defs>
</svg>
