<svg width="359" height="104" viewBox="0 0 359 104" fill="none" xmlns="http://www.w3.org/2000/svg">
<g filter="url(#filter0_d_183_1289)">
<rect x="22" y="12" width="315" height="60" rx="30" fill="#00A4A6"/>
<path fill-rule="evenodd" clip-rule="evenodd" d="M142.886 32H147.925C150.445 32 152.5 34 152.5 36.44V47.56C152.5 50.01 150.445 52 147.905 52H142.876C140.356 52 138.291 50.01 138.291 47.57V42.77H144.693L143.041 44.37C142.731 44.67 142.731 45.16 143.041 45.46C143.196 45.61 143.402 45.68 143.609 45.68C143.805 45.68 144.012 45.61 144.167 45.46L147.182 42.55C147.337 42.41 147.419 42.21 147.419 42C147.419 41.8 147.337 41.6 147.182 41.46L144.167 38.55C143.857 38.25 143.351 38.25 143.041 38.55C142.731 38.85 142.731 39.34 143.041 39.64L144.693 41.23H138.291V36.45C138.291 34 140.356 32 142.886 32ZM133.5 41.9999C133.5 41.5799 133.855 41.2299 134.282 41.2299H138.291V42.7699H134.282C133.855 42.7699 133.5 42.4299 133.5 41.9999Z" fill="white"/>
<path d="M168.728 45.888H172.312V48H165.992V36.768H168.728V45.888ZM177.681 48.128C176.806 48.128 176.017 47.9413 175.313 47.568C174.62 47.1947 174.07 46.6613 173.665 45.968C173.27 45.2747 173.073 44.464 173.073 43.536C173.073 42.6187 173.276 41.8133 173.681 41.12C174.086 40.416 174.641 39.8773 175.345 39.504C176.049 39.1307 176.838 38.944 177.713 38.944C178.588 38.944 179.377 39.1307 180.081 39.504C180.785 39.8773 181.34 40.416 181.745 41.12C182.15 41.8133 182.353 42.6187 182.353 43.536C182.353 44.4533 182.145 45.264 181.729 45.968C181.324 46.6613 180.764 47.1947 180.049 47.568C179.345 47.9413 178.556 48.128 177.681 48.128ZM177.681 45.76C178.204 45.76 178.646 45.568 179.009 45.184C179.382 44.8 179.569 44.2507 179.569 43.536C179.569 42.8213 179.388 42.272 179.025 41.888C178.673 41.504 178.236 41.312 177.713 41.312C177.18 41.312 176.737 41.504 176.385 41.888C176.033 42.2613 175.857 42.8107 175.857 43.536C175.857 44.2507 176.028 44.8 176.369 45.184C176.721 45.568 177.158 45.76 177.681 45.76ZM187.197 38.944C187.826 38.944 188.375 39.072 188.845 39.328C189.325 39.584 189.693 39.92 189.949 40.336V39.072H192.685V47.984C192.685 48.8053 192.519 49.5467 192.189 50.208C191.869 50.88 191.373 51.4133 190.701 51.808C190.039 52.2027 189.213 52.4 188.221 52.4C186.898 52.4 185.826 52.0853 185.005 51.456C184.183 50.8373 183.714 49.9947 183.597 48.928H186.301C186.386 49.2693 186.589 49.536 186.909 49.728C187.229 49.9307 187.623 50.032 188.093 50.032C188.658 50.032 189.106 49.8667 189.437 49.536C189.778 49.216 189.949 48.6987 189.949 47.984V46.72C189.682 47.136 189.314 47.4773 188.845 47.744C188.375 48 187.826 48.128 187.197 48.128C186.461 48.128 185.794 47.9413 185.197 47.568C184.599 47.184 184.125 46.6453 183.773 45.952C183.431 45.248 183.261 44.4373 183.261 43.52C183.261 42.6027 183.431 41.7973 183.773 41.104C184.125 40.4107 184.599 39.8773 185.197 39.504C185.794 39.1307 186.461 38.944 187.197 38.944ZM189.949 43.536C189.949 42.8533 189.757 42.3147 189.373 41.92C188.999 41.5253 188.541 41.328 187.997 41.328C187.453 41.328 186.989 41.5253 186.605 41.92C186.231 42.304 186.045 42.8373 186.045 43.52C186.045 44.2027 186.231 44.7467 186.605 45.152C186.989 45.5467 187.453 45.744 187.997 45.744C188.541 45.744 188.999 45.5467 189.373 45.152C189.757 44.7573 189.949 44.2187 189.949 43.536ZM203.367 48.112C202.311 48.112 201.34 47.8667 200.455 47.376C199.58 46.8853 198.881 46.2027 198.359 45.328C197.846 44.4427 197.59 43.4507 197.59 42.352C197.59 41.2533 197.846 40.2667 198.359 39.392C198.881 38.5173 199.58 37.8347 200.455 37.344C201.34 36.8533 202.311 36.608 203.367 36.608C204.423 36.608 205.388 36.8533 206.263 37.344C207.148 37.8347 207.841 38.5173 208.343 39.392C208.855 40.2667 209.111 41.2533 209.111 42.352C209.111 43.4507 208.855 44.4427 208.343 45.328C207.831 46.2027 207.137 46.8853 206.263 47.376C205.388 47.8667 204.423 48.112 203.367 48.112ZM203.367 45.616C204.263 45.616 204.977 45.3173 205.51 44.72C206.055 44.1227 206.327 43.3333 206.327 42.352C206.327 41.36 206.055 40.5707 205.51 39.984C204.977 39.3867 204.263 39.088 203.367 39.088C202.46 39.088 201.735 39.3813 201.191 39.968C200.657 40.5547 200.391 41.3493 200.391 42.352C200.391 43.344 200.657 44.1387 201.191 44.736C201.735 45.3227 202.46 45.616 203.367 45.616ZM219.449 39.072V48H216.713V46.784C216.435 47.1787 216.057 47.4987 215.577 47.744C215.107 47.9787 214.585 48.096 214.009 48.096C213.326 48.096 212.723 47.9467 212.201 47.648C211.678 47.3387 211.273 46.896 210.985 46.32C210.697 45.744 210.553 45.0667 210.553 44.288V39.072H213.273V43.92C213.273 44.5173 213.427 44.9813 213.737 45.312C214.046 45.6427 214.462 45.808 214.985 45.808C215.518 45.808 215.939 45.6427 216.249 45.312C216.558 44.9813 216.713 44.5173 216.713 43.92V39.072H219.449ZM226.39 45.68V48H224.998C224.006 48 223.233 47.76 222.678 47.28C222.123 46.7893 221.846 45.9947 221.846 44.896V41.344H220.758V39.072H221.846V36.896H224.582V39.072H226.374V41.344H224.582V44.928C224.582 45.1947 224.646 45.3867 224.774 45.504C224.902 45.6213 225.115 45.68 225.414 45.68H226.39Z" fill="white"/>
</g>
<defs>
<filter id="filter0_d_183_1289" x="0" y="0" width="359" height="104" filterUnits="userSpaceOnUse" color-interpolation-filters="sRGB">
<feFlood flood-opacity="0" result="BackgroundImageFix"/>
<feColorMatrix in="SourceAlpha" type="matrix" values="0 0 0 0 0 0 0 0 0 0 0 0 0 0 0 0 0 0 127 0" result="hardAlpha"/>
<feOffset dy="10"/>
<feGaussianBlur stdDeviation="11"/>
<feColorMatrix type="matrix" values="0 0 0 0 0.909804 0 0 0 0 0.980392 0 0 0 0 0.815686 0 0 0 0.3 0"/>
<feBlend mode="normal" in2="BackgroundImageFix" result="effect1_dropShadow_183_1289"/>
<feBlend mode="normal" in="SourceGraphic" in2="effect1_dropShadow_183_1289" result="shape"/>
</filter>
</defs>
</svg>
