<svg width="20" height="20" viewBox="0 0 20 20" fill="none" xmlns="http://www.w3.org/2000/svg">
<path d="M1.9082 6.48332V14.5917C1.9082 16.175 3.0332 16.825 4.39987 16.0417L6.3582 14.925C6.7832 14.6833 7.49154 14.6583 7.9332 14.8833L12.3082 17.075C12.7499 17.2917 13.4582 17.275 13.8832 17.0333L17.4915 14.9667C17.9499 14.7 18.3332 14.05 18.3332 13.5167V5.40832C18.3332 3.82499 17.2082 3.17499 15.8415 3.95832L13.8832 5.07499C13.4582 5.31666 12.7499 5.34166 12.3082 5.11666L7.9332 2.93332C7.49154 2.71666 6.7832 2.73332 6.3582 2.97499L2.74987 5.04166C2.2832 5.30832 1.9082 5.95832 1.9082 6.48332Z" stroke="#1C1B1F" stroke-width="1.5" stroke-linecap="round" stroke-linejoin="round"/>
<path d="M7.1333 3.33334V14.1667" stroke="#1C1B1F" stroke-width="1.5" stroke-linecap="round" stroke-linejoin="round"/>
<path d="M13.1084 5.51666V16.6667" stroke="#1C1B1F" stroke-width="1.5" stroke-linecap="round" stroke-linejoin="round"/>
</svg>
