<svg width="390" height="22" viewBox="0 0 390 22" fill="none" xmlns="http://www.w3.org/2000/svg">
<path d="M9.99996 2.66675C5.40829 2.66675 1.66663 6.40841 1.66663 11.0001C1.66663 15.5917 5.40829 19.3334 9.99996 19.3334C14.5916 19.3334 18.3333 15.5917 18.3333 11.0001C18.3333 6.40841 14.5916 2.66675 9.99996 2.66675ZM9.37496 7.66675C9.37496 7.32508 9.65829 7.04175 9.99996 7.04175C10.3416 7.04175 10.625 7.32508 10.625 7.66675V11.8334C10.625 12.1751 10.3416 12.4584 9.99996 12.4584C9.65829 12.4584 9.37496 12.1751 9.37496 11.8334V7.66675ZM10.7666 14.6501C10.725 14.7584 10.6666 14.8417 10.5916 14.9251C10.5083 15.0001 10.4166 15.0584 10.3166 15.1001C10.2166 15.1417 10.1083 15.1667 9.99996 15.1667C9.89163 15.1667 9.78329 15.1417 9.68329 15.1001C9.58329 15.0584 9.49163 15.0001 9.40829 14.9251C9.33329 14.8417 9.27496 14.7584 9.23329 14.6501C9.19163 14.5501 9.16663 14.4417 9.16663 14.3334C9.16663 14.2251 9.19163 14.1167 9.23329 14.0167C9.27496 13.9167 9.33329 13.8251 9.40829 13.7417C9.49163 13.6667 9.58329 13.6084 9.68329 13.5667C9.88329 13.4834 10.1166 13.4834 10.3166 13.5667C10.4166 13.6084 10.5083 13.6667 10.5916 13.7417C10.6666 13.8251 10.725 13.9167 10.7666 14.0167C10.8083 14.1167 10.8333 14.2251 10.8333 14.3334C10.8333 14.4417 10.8083 14.5501 10.7666 14.6501Z" fill="#BFBFBF"/>
<path d="M33.3068 5.81818V16H32.1136L26.5653 8.00568H26.4659V16H25.233V5.81818H26.4261L31.9943 13.8324H32.0938V5.81818H33.3068ZM38.7172 16.1591C38.0278 16.1591 37.4229 15.995 36.9025 15.6669C36.3855 15.3388 35.9811 14.8797 35.6895 14.2898C35.4011 13.6998 35.2569 13.0104 35.2569 12.2216C35.2569 11.4261 35.4011 10.7318 35.6895 10.1385C35.9811 9.54522 36.3855 9.08452 36.9025 8.75639C37.4229 8.42827 38.0278 8.2642 38.7172 8.2642C39.4065 8.2642 40.0098 8.42827 40.5268 8.75639C41.0472 9.08452 41.4515 9.54522 41.7399 10.1385C42.0315 10.7318 42.1774 11.4261 42.1774 12.2216C42.1774 13.0104 42.0315 13.6998 41.7399 14.2898C41.4515 14.8797 41.0472 15.3388 40.5268 15.6669C40.0098 15.995 39.4065 16.1591 38.7172 16.1591ZM38.7172 15.1051C39.2408 15.1051 39.6717 14.9709 40.0098 14.7024C40.3478 14.4339 40.5981 14.081 40.7605 13.6435C40.9229 13.206 41.0041 12.732 41.0041 12.2216C41.0041 11.7112 40.9229 11.2356 40.7605 10.7947C40.5981 10.3539 40.3478 9.99763 40.0098 9.72585C39.6717 9.45407 39.2408 9.31818 38.7172 9.31818C38.1935 9.31818 37.7626 9.45407 37.4245 9.72585C37.0865 9.99763 36.8362 10.3539 36.6738 10.7947C36.5114 11.2356 36.4302 11.7112 36.4302 12.2216C36.4302 12.732 36.5114 13.206 36.6738 13.6435C36.8362 14.081 37.0865 14.4339 37.4245 14.7024C37.7626 14.9709 38.1935 15.1051 38.7172 15.1051ZM47.2894 8.36364V9.35795H43.332V8.36364H47.2894ZM44.4854 6.53409H45.6587V13.8125C45.6587 14.1439 45.7068 14.3925 45.8029 14.5582C45.9023 14.7206 46.0283 14.83 46.1808 14.8864C46.3365 14.9394 46.5006 14.9659 46.6729 14.9659C46.8022 14.9659 46.9083 14.9593 46.9911 14.946C47.074 14.9295 47.1403 14.9162 47.19 14.9062L47.4286 15.9602C47.3491 15.9901 47.238 16.0199 47.0955 16.0497C46.953 16.0829 46.7724 16.0994 46.5536 16.0994C46.2222 16.0994 45.8974 16.0282 45.5792 15.8857C45.2643 15.7431 45.0025 15.526 44.7937 15.2344C44.5882 14.9427 44.4854 14.5748 44.4854 14.1307V6.53409ZM49.0543 16V8.36364H50.2276V16H49.0543ZM49.6509 7.09091C49.4222 7.09091 49.225 7.01302 49.0593 6.85724C48.8969 6.70147 48.8157 6.5142 48.8157 6.29545C48.8157 6.0767 48.8969 5.88944 49.0593 5.73366C49.225 5.57789 49.4222 5.5 49.6509 5.5C49.8796 5.5 50.0752 5.57789 50.2376 5.73366C50.4033 5.88944 50.4862 6.0767 50.4862 6.29545C50.4862 6.5142 50.4033 6.70147 50.2376 6.85724C50.0752 7.01302 49.8796 7.09091 49.6509 7.09091ZM55.7772 8.36364V9.35795H51.6607V8.36364H55.7772ZM52.8936 16V7.30966C52.8936 6.87216 52.9964 6.50758 53.2019 6.21591C53.4074 5.92424 53.6742 5.70549 54.0023 5.55966C54.3304 5.41383 54.6768 5.34091 55.0414 5.34091C55.3297 5.34091 55.565 5.36411 55.7473 5.41051C55.9296 5.45691 56.0655 5.5 56.155 5.53977L55.8169 6.55398C55.7573 6.53409 55.6744 6.50923 55.5684 6.4794C55.4656 6.44957 55.3297 6.43466 55.1607 6.43466C54.7729 6.43466 54.4928 6.53243 54.3205 6.72798C54.1515 6.92353 54.0669 7.21023 54.0669 7.58807V16H52.8936ZM57.4215 16V8.36364H58.5948V16H57.4215ZM58.0181 7.09091C57.7894 7.09091 57.5922 7.01302 57.4265 6.85724C57.2641 6.70147 57.1829 6.5142 57.1829 6.29545C57.1829 6.0767 57.2641 5.88944 57.4265 5.73366C57.5922 5.57789 57.7894 5.5 58.0181 5.5C58.2468 5.5 58.4424 5.57789 58.6048 5.73366C58.7705 5.88944 58.8533 6.0767 58.8533 6.29545C58.8533 6.5142 58.7705 6.70147 58.6048 6.85724C58.4424 7.01302 58.2468 7.09091 58.0181 7.09091ZM63.8461 16.1591C63.1301 16.1591 62.5137 15.9901 61.9966 15.652C61.4796 15.3139 61.0819 14.8482 60.8034 14.255C60.525 13.6617 60.3858 12.9839 60.3858 12.2216C60.3858 11.446 60.5283 10.7616 60.8134 10.1683C61.1017 9.57173 61.5028 9.10606 62.0165 8.77131C62.5336 8.43324 63.1368 8.2642 63.8262 8.2642C64.3631 8.2642 64.847 8.36364 65.2779 8.5625C65.7087 8.76136 66.0617 9.03977 66.3368 9.39773C66.6119 9.75568 66.7826 10.1733 66.8489 10.6506H65.6756C65.5861 10.3026 65.3873 9.99432 65.079 9.72585C64.7741 9.45407 64.3631 9.31818 63.8461 9.31818C63.3887 9.31818 62.9876 9.4375 62.6429 9.67614C62.3016 9.91146 62.0347 10.2446 61.8425 10.6754C61.6536 11.103 61.5591 11.6051 61.5591 12.1818C61.5591 12.7718 61.6519 13.2855 61.8375 13.723C62.0265 14.1605 62.2916 14.5002 62.633 14.7422C62.9777 14.9841 63.382 15.1051 63.8461 15.1051C64.151 15.1051 64.4277 15.0521 64.6763 14.946C64.9249 14.84 65.1354 14.6875 65.3077 14.4886C65.4801 14.2898 65.6027 14.0511 65.6756 13.7727H66.8489C66.7826 14.2235 66.6185 14.6295 66.3567 14.9908C66.0982 15.3487 65.7551 15.6338 65.3276 15.8459C64.9034 16.0547 64.4095 16.1591 63.8461 16.1591ZM70.8113 16.179C70.3274 16.179 69.8882 16.0878 69.4938 15.9055C69.0994 15.7199 68.7862 15.4531 68.5542 15.1051C68.3221 14.7538 68.2061 14.3295 68.2061 13.8324C68.2061 13.3949 68.2923 13.0402 68.4647 12.7685C68.637 12.4934 68.8674 12.2779 69.1557 12.1222C69.4441 11.9664 69.7623 11.8504 70.1103 11.7741C70.4616 11.6946 70.8146 11.6316 71.1692 11.5852C71.6332 11.5256 72.0094 11.4808 72.2978 11.451C72.5894 11.4179 72.8016 11.3632 72.9341 11.2869C73.07 11.2107 73.138 11.0781 73.138 10.8892V10.8494C73.138 10.3589 73.0037 9.97775 72.7353 9.70597C72.4701 9.43419 72.0674 9.2983 71.5272 9.2983C70.967 9.2983 70.5279 9.42093 70.2097 9.66619C69.8915 9.91146 69.6678 10.1733 69.5385 10.4517L68.4249 10.054C68.6238 9.58996 68.8889 9.22869 69.2203 8.97017C69.5551 8.70833 69.9197 8.52604 70.3141 8.4233C70.7118 8.31723 71.1029 8.2642 71.4874 8.2642C71.7327 8.2642 72.0144 8.29403 72.3326 8.35369C72.6541 8.41004 72.964 8.5277 73.2623 8.70668C73.5639 8.88565 73.8141 9.15578 74.013 9.51705C74.2118 9.87831 74.3113 10.3622 74.3113 10.9688V16H73.138V14.9659H73.0783C72.9988 15.1316 72.8662 15.3089 72.6806 15.4979C72.495 15.6868 72.248 15.8475 71.9398 15.9801C71.6316 16.1127 71.2554 16.179 70.8113 16.179ZM70.9902 15.125C71.4542 15.125 71.8453 15.0339 72.1635 14.8516C72.485 14.6693 72.727 14.4339 72.8894 14.1456C73.0551 13.8572 73.138 13.554 73.138 13.2358V12.1619C73.0882 12.2216 72.9789 12.2763 72.8098 12.326C72.6441 12.3724 72.4519 12.4138 72.2331 12.4503C72.0177 12.4834 71.8072 12.5133 71.6017 12.5398C71.3996 12.563 71.2355 12.5829 71.1096 12.5994C70.8046 12.6392 70.5196 12.7038 70.2544 12.7933C69.9926 12.8795 69.7805 13.0104 69.6181 13.1861C69.459 13.3584 69.3794 13.5937 69.3794 13.892C69.3794 14.2997 69.5302 14.608 69.8319 14.8168C70.1368 15.0223 70.5229 15.125 70.9902 15.125ZM79.7738 8.36364V9.35795H75.8164V8.36364H79.7738ZM76.9698 6.53409H78.1431V13.8125C78.1431 14.1439 78.1912 14.3925 78.2873 14.5582C78.3867 14.7206 78.5127 14.83 78.6651 14.8864C78.8209 14.9394 78.985 14.9659 79.1573 14.9659C79.2866 14.9659 79.3926 14.9593 79.4755 14.946C79.5584 14.9295 79.6246 14.9162 79.6744 14.9062L79.913 15.9602C79.8335 15.9901 79.7224 16.0199 79.5799 16.0497C79.4374 16.0829 79.2567 16.0994 79.038 16.0994C78.7066 16.0994 78.3817 16.0282 78.0636 15.8857C77.7487 15.7431 77.4869 15.526 77.2781 15.2344C77.0726 14.9427 76.9698 14.5748 76.9698 14.1307V6.53409ZM81.5387 16V8.36364H82.712V16H81.5387ZM82.1353 7.09091C81.9066 7.09091 81.7094 7.01302 81.5437 6.85724C81.3813 6.70147 81.3001 6.5142 81.3001 6.29545C81.3001 6.0767 81.3813 5.88944 81.5437 5.73366C81.7094 5.57789 81.9066 5.5 82.1353 5.5C82.364 5.5 82.5595 5.57789 82.7219 5.73366C82.8877 5.88944 82.9705 6.0767 82.9705 6.29545C82.9705 6.5142 82.8877 6.70147 82.7219 6.85724C82.5595 7.01302 82.364 7.09091 82.1353 7.09091ZM87.9632 16.1591C87.2739 16.1591 86.669 15.995 86.1486 15.6669C85.6316 15.3388 85.2272 14.8797 84.9355 14.2898C84.6472 13.6998 84.503 13.0104 84.503 12.2216C84.503 11.4261 84.6472 10.7318 84.9355 10.1385C85.2272 9.54522 85.6316 9.08452 86.1486 8.75639C86.669 8.42827 87.2739 8.2642 87.9632 8.2642C88.6526 8.2642 89.2559 8.42827 89.7729 8.75639C90.2933 9.08452 90.6976 9.54522 90.986 10.1385C91.2776 10.7318 91.4235 11.4261 91.4235 12.2216C91.4235 13.0104 91.2776 13.6998 90.986 14.2898C90.6976 14.8797 90.2933 15.3388 89.7729 15.6669C89.2559 15.995 88.6526 16.1591 87.9632 16.1591ZM87.9632 15.1051C88.4869 15.1051 88.9178 14.9709 89.2559 14.7024C89.5939 14.4339 89.8442 14.081 90.0066 13.6435C90.169 13.206 90.2502 12.732 90.2502 12.2216C90.2502 11.7112 90.169 11.2356 90.0066 10.7947C89.8442 10.3539 89.5939 9.99763 89.2559 9.72585C88.9178 9.45407 88.4869 9.31818 87.9632 9.31818C87.4396 9.31818 87.0087 9.45407 86.6706 9.72585C86.3326 9.99763 86.0823 10.3539 85.9199 10.7947C85.7575 11.2356 85.6763 11.7112 85.6763 12.2216C85.6763 12.732 85.7575 13.206 85.9199 13.6435C86.0823 14.081 86.3326 14.4339 86.6706 14.7024C87.0087 14.9709 87.4396 15.1051 87.9632 15.1051ZM94.3878 11.4062V16H93.2145V8.36364H94.348V9.55682H94.4474C94.6264 9.16903 94.8982 8.85748 95.2628 8.62216C95.6274 8.38352 96.098 8.2642 96.6747 8.2642C97.1918 8.2642 97.6442 8.37027 98.032 8.58239C98.4197 8.79119 98.7214 9.10938 98.9368 9.53693C99.1522 9.96117 99.2599 10.4981 99.2599 11.1477V16H98.0866V11.2273C98.0866 10.6274 97.9309 10.16 97.6193 9.82528C97.3078 9.48722 96.8802 9.31818 96.3366 9.31818C95.9621 9.31818 95.6274 9.39938 95.3324 9.56179C95.0407 9.72419 94.8104 9.96117 94.6413 10.2727C94.4723 10.5843 94.3878 10.9621 94.3878 11.4062ZM106.813 10.0739L105.759 10.3722C105.693 10.1965 105.595 10.0258 105.466 9.86009C105.34 9.69105 105.167 9.55185 104.949 9.44247C104.73 9.3331 104.45 9.27841 104.108 9.27841C103.641 9.27841 103.252 9.38613 102.94 9.60156C102.632 9.81368 102.478 10.0838 102.478 10.4119C102.478 10.7036 102.584 10.9339 102.796 11.103C103.008 11.272 103.34 11.4129 103.79 11.5256L104.924 11.804C105.607 11.9697 106.115 12.2232 106.45 12.5646C106.785 12.9027 106.952 13.3385 106.952 13.8722C106.952 14.3097 106.826 14.7008 106.574 15.0455C106.326 15.3902 105.978 15.6619 105.53 15.8608C105.083 16.0597 104.563 16.1591 103.969 16.1591C103.19 16.1591 102.546 15.9901 102.035 15.652C101.525 15.3139 101.202 14.8201 101.066 14.1705L102.18 13.892C102.286 14.303 102.486 14.6113 102.781 14.8168C103.079 15.0223 103.469 15.125 103.949 15.125C104.496 15.125 104.93 15.009 105.252 14.777C105.577 14.5417 105.739 14.2599 105.739 13.9318C105.739 13.6667 105.646 13.4446 105.461 13.2656C105.275 13.0833 104.99 12.9474 104.606 12.858L103.333 12.5597C102.634 12.3939 102.12 12.1371 101.792 11.7891C101.467 11.4377 101.305 10.9986 101.305 10.4716C101.305 10.0407 101.425 9.65956 101.667 9.32812C101.913 8.99669 102.246 8.73651 102.667 8.54758C103.091 8.35866 103.572 8.2642 104.108 8.2642C104.864 8.2642 105.457 8.42992 105.888 8.76136C106.323 9.0928 106.631 9.5303 106.813 10.0739ZM114.903 16.179C114.419 16.179 113.98 16.0878 113.586 15.9055C113.191 15.7199 112.878 15.4531 112.646 15.1051C112.414 14.7538 112.298 14.3295 112.298 13.8324C112.298 13.3949 112.384 13.0402 112.556 12.7685C112.729 12.4934 112.959 12.2779 113.248 12.1222C113.536 11.9664 113.854 11.8504 114.202 11.7741C114.553 11.6946 114.906 11.6316 115.261 11.5852C115.725 11.5256 116.101 11.4808 116.39 11.451C116.681 11.4179 116.893 11.3632 117.026 11.2869C117.162 11.2107 117.23 11.0781 117.23 10.8892V10.8494C117.23 10.3589 117.096 9.97775 116.827 9.70597C116.562 9.43419 116.159 9.2983 115.619 9.2983C115.059 9.2983 114.62 9.42093 114.301 9.66619C113.983 9.91146 113.76 10.1733 113.63 10.4517L112.517 10.054C112.716 9.58996 112.981 9.22869 113.312 8.97017C113.647 8.70833 114.011 8.52604 114.406 8.4233C114.804 8.31723 115.195 8.2642 115.579 8.2642C115.824 8.2642 116.106 8.29403 116.424 8.35369C116.746 8.41004 117.056 8.5277 117.354 8.70668C117.656 8.88565 117.906 9.15578 118.105 9.51705C118.304 9.87831 118.403 10.3622 118.403 10.9688V16H117.23V14.9659H117.17C117.091 15.1316 116.958 15.3089 116.772 15.4979C116.587 15.6868 116.34 15.8475 116.032 15.9801C115.723 16.1127 115.347 16.179 114.903 16.179ZM115.082 15.125C115.546 15.125 115.937 15.0339 116.255 14.8516C116.577 14.6693 116.819 14.4339 116.981 14.1456C117.147 13.8572 117.23 13.554 117.23 13.2358V12.1619C117.18 12.2216 117.071 12.2763 116.902 12.326C116.736 12.3724 116.544 12.4138 116.325 12.4503C116.109 12.4834 115.899 12.5133 115.694 12.5398C115.491 12.563 115.327 12.5829 115.201 12.5994C114.896 12.6392 114.611 12.7038 114.346 12.7933C114.084 12.8795 113.872 13.0104 113.71 13.1861C113.551 13.3584 113.471 13.5937 113.471 13.892C113.471 14.2997 113.622 14.608 113.924 14.8168C114.229 15.0223 114.615 15.125 115.082 15.125ZM120.545 16V8.36364H121.678V9.51705H121.758C121.897 9.1392 122.149 8.83262 122.513 8.5973C122.878 8.36198 123.289 8.24432 123.746 8.24432C123.832 8.24432 123.94 8.24597 124.069 8.24929C124.199 8.2526 124.296 8.25758 124.363 8.2642V9.45739C124.323 9.44744 124.232 9.43253 124.089 9.41264C123.95 9.38944 123.803 9.37784 123.647 9.37784C123.276 9.37784 122.944 9.45573 122.653 9.61151C122.364 9.76397 122.135 9.97609 121.966 10.2479C121.801 10.5163 121.718 10.8229 121.718 11.1676V16H120.545ZM128.723 16.1591C127.987 16.1591 127.352 15.9967 126.819 15.6719C126.288 15.3438 125.879 14.8864 125.591 14.2997C125.306 13.7098 125.163 13.0237 125.163 12.2415C125.163 11.4593 125.306 10.7699 125.591 10.1733C125.879 9.57339 126.28 9.10606 126.794 8.77131C127.311 8.43324 127.914 8.2642 128.604 8.2642C129.001 8.2642 129.394 8.33049 129.782 8.46307C130.17 8.59564 130.523 8.81108 130.841 9.10938C131.159 9.40436 131.412 9.79545 131.601 10.2827C131.79 10.7699 131.885 11.3698 131.885 12.0824V12.5795H125.998V11.5653H130.692C130.692 11.1345 130.605 10.75 130.433 10.4119C130.264 10.0739 130.022 9.80705 129.707 9.61151C129.396 9.41596 129.028 9.31818 128.604 9.31818C128.136 9.31818 127.732 9.43419 127.39 9.66619C127.052 9.89489 126.792 10.1932 126.61 10.5611C126.428 10.929 126.336 11.3234 126.336 11.7443V12.4205C126.336 12.9972 126.436 13.486 126.635 13.8871C126.837 14.2848 127.117 14.5881 127.475 14.7969C127.833 15.0024 128.249 15.1051 128.723 15.1051C129.031 15.1051 129.309 15.062 129.558 14.9759C129.81 14.8864 130.027 14.7538 130.209 14.5781C130.392 14.3991 130.532 14.1771 130.632 13.9119L131.765 14.2301C131.646 14.6146 131.446 14.9527 131.164 15.2443C130.882 15.5327 130.534 15.758 130.12 15.9205C129.706 16.0795 129.24 16.1591 128.723 16.1591ZM140.928 8.36364V9.35795H136.971V8.36364H140.928ZM138.124 6.53409H139.297V13.8125C139.297 14.1439 139.345 14.3925 139.442 14.5582C139.541 14.7206 139.667 14.83 139.819 14.8864C139.975 14.9394 140.139 14.9659 140.312 14.9659C140.441 14.9659 140.547 14.9593 140.63 14.946C140.713 14.9295 140.779 14.9162 140.829 14.9062L141.067 15.9602C140.988 15.9901 140.877 16.0199 140.734 16.0497C140.592 16.0829 140.411 16.0994 140.192 16.0994C139.861 16.0994 139.536 16.0282 139.218 15.8857C138.903 15.7431 138.641 15.526 138.432 15.2344C138.227 14.9427 138.124 14.5748 138.124 14.1307V6.53409ZM142.693 16V8.36364H143.866V16H142.693ZM143.29 7.09091C143.061 7.09091 142.864 7.01302 142.698 6.85724C142.536 6.70147 142.454 6.5142 142.454 6.29545C142.454 6.0767 142.536 5.88944 142.698 5.73366C142.864 5.57789 143.061 5.5 143.29 5.5C143.518 5.5 143.714 5.57789 143.876 5.73366C144.042 5.88944 144.125 6.0767 144.125 6.29545C144.125 6.5142 144.042 6.70147 143.876 6.85724C143.714 7.01302 143.518 7.09091 143.29 7.09091ZM146.015 16V8.36364H147.149V9.55682H147.248C147.407 9.14915 147.664 8.83262 148.019 8.60724C148.373 8.37855 148.799 8.2642 149.297 8.2642C149.8 8.2642 150.22 8.37855 150.554 8.60724C150.892 8.83262 151.156 9.14915 151.345 9.55682H151.424C151.62 9.16241 151.913 8.84919 152.304 8.61719C152.695 8.38187 153.164 8.2642 153.711 8.2642C154.394 8.2642 154.953 8.47798 155.387 8.90554C155.821 9.32978 156.038 9.991 156.038 10.8892V16H154.865V10.8892C154.865 10.3258 154.711 9.92306 154.402 9.68111C154.094 9.43916 153.731 9.31818 153.314 9.31818C152.777 9.31818 152.361 9.48059 152.066 9.8054C151.771 10.1269 151.623 10.5346 151.623 11.0284V16H150.43V10.7699C150.43 10.3357 150.289 9.98603 150.007 9.72088C149.726 9.45241 149.363 9.31818 148.919 9.31818C148.614 9.31818 148.329 9.39938 148.064 9.56179C147.802 9.72419 147.59 9.94957 147.427 10.2379C147.268 10.523 147.189 10.8527 147.189 11.2273V16H146.015ZM161.385 16.1591C160.649 16.1591 160.014 15.9967 159.481 15.6719C158.951 15.3438 158.541 14.8864 158.253 14.2997C157.968 13.7098 157.825 13.0237 157.825 12.2415C157.825 11.4593 157.968 10.7699 158.253 10.1733C158.541 9.57339 158.942 9.10606 159.456 8.77131C159.973 8.43324 160.576 8.2642 161.266 8.2642C161.663 8.2642 162.056 8.33049 162.444 8.46307C162.832 8.59564 163.185 8.81108 163.503 9.10938C163.821 9.40436 164.075 9.79545 164.263 10.2827C164.452 10.7699 164.547 11.3698 164.547 12.0824V12.5795H158.661V11.5653H163.354C163.354 11.1345 163.268 10.75 163.095 10.4119C162.926 10.0739 162.684 9.80705 162.369 9.61151C162.058 9.41596 161.69 9.31818 161.266 9.31818C160.798 9.31818 160.394 9.43419 160.053 9.66619C159.714 9.89489 159.454 10.1932 159.272 10.5611C159.09 10.929 158.999 11.3234 158.999 11.7443V12.4205C158.999 12.9972 159.098 13.486 159.297 13.8871C159.499 14.2848 159.779 14.5881 160.137 14.7969C160.495 15.0024 160.911 15.1051 161.385 15.1051C161.693 15.1051 161.972 15.062 162.22 14.9759C162.472 14.8864 162.689 14.7538 162.871 14.5781C163.054 14.3991 163.195 14.1771 163.294 13.9119L164.428 14.2301C164.308 14.6146 164.108 14.9527 163.826 15.2443C163.544 15.5327 163.196 15.758 162.782 15.9205C162.368 16.0795 161.902 16.1591 161.385 16.1591ZM167.505 5.81818V16H166.332V5.81818H167.505ZM170.41 18.8636C170.211 18.8636 170.033 18.8471 169.878 18.8139C169.722 18.7841 169.614 18.7543 169.555 18.7244L169.853 17.6903C170.138 17.7633 170.39 17.7898 170.608 17.7699C170.827 17.75 171.021 17.6522 171.19 17.4766C171.363 17.3042 171.52 17.0241 171.662 16.6364L171.881 16.0398L169.057 8.36364H170.33L172.438 14.4489H172.518L174.626 8.36364H175.898L172.657 17.1136C172.511 17.508 172.33 17.8345 172.115 18.093C171.899 18.3549 171.649 18.5488 171.364 18.6747C171.082 18.8007 170.764 18.8636 170.41 18.8636ZM183.632 16.179C183.148 16.179 182.709 16.0878 182.314 15.9055C181.92 15.7199 181.606 15.4531 181.374 15.1051C181.142 14.7538 181.026 14.3295 181.026 13.8324C181.026 13.3949 181.113 13.0402 181.285 12.7685C181.457 12.4934 181.688 12.2779 181.976 12.1222C182.264 11.9664 182.583 11.8504 182.931 11.7741C183.282 11.6946 183.635 11.6316 183.99 11.5852C184.454 11.5256 184.83 11.4808 185.118 11.451C185.41 11.4179 185.622 11.3632 185.754 11.2869C185.89 11.2107 185.958 11.0781 185.958 10.8892V10.8494C185.958 10.3589 185.824 9.97775 185.556 9.70597C185.29 9.43419 184.888 9.2983 184.347 9.2983C183.787 9.2983 183.348 9.42093 183.03 9.66619C182.712 9.91146 182.488 10.1733 182.359 10.4517L181.245 10.054C181.444 9.58996 181.709 9.22869 182.041 8.97017C182.375 8.70833 182.74 8.52604 183.134 8.4233C183.532 8.31723 183.923 8.2642 184.308 8.2642C184.553 8.2642 184.835 8.29403 185.153 8.35369C185.474 8.41004 185.784 8.5277 186.083 8.70668C186.384 8.88565 186.634 9.15578 186.833 9.51705C187.032 9.87831 187.132 10.3622 187.132 10.9688V16H185.958V14.9659H185.899C185.819 15.1316 185.686 15.3089 185.501 15.4979C185.315 15.6868 185.068 15.8475 184.76 15.9801C184.452 16.1127 184.076 16.179 183.632 16.179ZM183.811 15.125C184.275 15.125 184.666 15.0339 184.984 14.8516C185.305 14.6693 185.547 14.4339 185.71 14.1456C185.875 13.8572 185.958 13.554 185.958 13.2358V12.1619C185.909 12.2216 185.799 12.2763 185.63 12.326C185.464 12.3724 185.272 12.4138 185.053 12.4503C184.838 12.4834 184.628 12.5133 184.422 12.5398C184.22 12.563 184.056 12.5829 183.93 12.5994C183.625 12.6392 183.34 12.7038 183.075 12.7933C182.813 12.8795 182.601 13.0104 182.438 13.1861C182.279 13.3584 182.2 13.5937 182.2 13.892C182.2 14.2997 182.351 14.608 182.652 14.8168C182.957 15.0223 183.343 15.125 183.811 15.125ZM190.446 11.4062V16H189.273V8.36364H190.407V9.55682H190.506C190.685 9.16903 190.957 8.85748 191.321 8.62216C191.686 8.38352 192.157 8.2642 192.733 8.2642C193.25 8.2642 193.703 8.37027 194.091 8.58239C194.478 8.79119 194.78 9.10938 194.995 9.53693C195.211 9.96117 195.319 10.4981 195.319 11.1477V16H194.145V11.2273C194.145 10.6274 193.989 10.16 193.678 9.82528C193.366 9.48722 192.939 9.31818 192.395 9.31818C192.021 9.31818 191.686 9.39938 191.391 9.56179C191.099 9.72419 190.869 9.96117 190.7 10.2727C190.531 10.5843 190.446 10.9621 190.446 11.4062ZM200.346 16.1591C199.71 16.1591 199.148 15.9983 198.661 15.6768C198.173 15.352 197.792 14.8946 197.517 14.3047C197.242 13.7114 197.105 13.0104 197.105 12.2017C197.105 11.3996 197.242 10.7036 197.517 10.1136C197.792 9.52367 198.175 9.06794 198.666 8.74645C199.156 8.42495 199.723 8.2642 200.366 8.2642C200.863 8.2642 201.256 8.34706 201.544 8.51278C201.836 8.67519 202.058 8.8608 202.21 9.0696C202.366 9.27509 202.487 9.44413 202.573 9.5767H202.673V5.81818H203.846V16H202.713V14.8267H202.573C202.487 14.9659 202.365 15.1416 202.205 15.3537C202.046 15.5625 201.819 15.7498 201.524 15.9155C201.229 16.0779 200.837 16.1591 200.346 16.1591ZM200.505 15.1051C200.976 15.1051 201.374 14.9825 201.698 14.7372C202.023 14.4886 202.27 14.1456 202.439 13.7081C202.608 13.2673 202.693 12.7585 202.693 12.1818C202.693 11.6117 202.61 11.1129 202.444 10.6854C202.278 10.2545 202.033 9.91974 201.708 9.68111C201.383 9.43916 200.982 9.31818 200.505 9.31818C200.008 9.31818 199.594 9.44579 199.262 9.70099C198.934 9.95289 198.687 10.2959 198.521 10.7301C198.359 11.161 198.278 11.6449 198.278 12.1818C198.278 12.7254 198.361 13.2192 198.526 13.6634C198.695 14.1042 198.944 14.4555 199.272 14.7173C199.604 14.9759 200.015 15.1051 200.505 15.1051ZM210.095 16V8.36364H211.229V9.51705H211.308C211.448 9.1392 211.7 8.83262 212.064 8.5973C212.429 8.36198 212.84 8.24432 213.297 8.24432C213.383 8.24432 213.491 8.24597 213.62 8.24929C213.749 8.2526 213.847 8.25758 213.914 8.2642V9.45739C213.874 9.44744 213.783 9.43253 213.64 9.41264C213.501 9.38944 213.353 9.37784 213.198 9.37784C212.826 9.37784 212.495 9.45573 212.203 9.61151C211.915 9.76397 211.686 9.97609 211.517 10.2479C211.352 10.5163 211.269 10.8229 211.269 11.1676V16H210.095ZM218.274 16.1591C217.538 16.1591 216.903 15.9967 216.369 15.6719C215.839 15.3438 215.43 14.8864 215.142 14.2997C214.856 13.7098 214.714 13.0237 214.714 12.2415C214.714 11.4593 214.856 10.7699 215.142 10.1733C215.43 9.57339 215.831 9.10606 216.345 8.77131C216.862 8.43324 217.465 8.2642 218.154 8.2642C218.552 8.2642 218.945 8.33049 219.333 8.46307C219.72 8.59564 220.073 8.81108 220.392 9.10938C220.71 9.40436 220.963 9.79545 221.152 10.2827C221.341 10.7699 221.436 11.3698 221.436 12.0824V12.5795H215.549V11.5653H220.242C220.242 11.1345 220.156 10.75 219.984 10.4119C219.815 10.0739 219.573 9.80705 219.258 9.61151C218.946 9.41596 218.579 9.31818 218.154 9.31818C217.687 9.31818 217.283 9.43419 216.941 9.66619C216.603 9.89489 216.343 10.1932 216.161 10.5611C215.978 10.929 215.887 11.3234 215.887 11.7443V12.4205C215.887 12.9972 215.987 13.486 216.186 13.8871C216.388 14.2848 216.668 14.5881 217.026 14.7969C217.384 15.0024 217.8 15.1051 218.274 15.1051C218.582 15.1051 218.86 15.062 219.109 14.9759C219.361 14.8864 219.578 14.7538 219.76 14.5781C219.942 14.3991 220.083 14.1771 220.183 13.9119L221.316 14.2301C221.197 14.6146 220.996 14.9527 220.715 15.2443C220.433 15.5327 220.085 15.758 219.671 15.9205C219.256 16.0795 218.791 16.1591 218.274 16.1591ZM224.394 5.81818V16H223.22V5.81818H224.394ZM229.744 16.1591C229.009 16.1591 228.374 15.9967 227.84 15.6719C227.31 15.3438 226.901 14.8864 226.612 14.2997C226.327 13.7098 226.185 13.0237 226.185 12.2415C226.185 11.4593 226.327 10.7699 226.612 10.1733C226.901 9.57339 227.302 9.10606 227.815 8.77131C228.332 8.43324 228.936 8.2642 229.625 8.2642C230.023 8.2642 230.415 8.33049 230.803 8.46307C231.191 8.59564 231.544 8.81108 231.862 9.10938C232.18 9.40436 232.434 9.79545 232.623 10.2827C232.812 10.7699 232.906 11.3698 232.906 12.0824V12.5795H227.02V11.5653H231.713C231.713 11.1345 231.627 10.75 231.455 10.4119C231.286 10.0739 231.044 9.80705 230.729 9.61151C230.417 9.41596 230.049 9.31818 229.625 9.31818C229.158 9.31818 228.753 9.43419 228.412 9.66619C228.074 9.89489 227.814 10.1932 227.631 10.5611C227.449 10.929 227.358 11.3234 227.358 11.7443V12.4205C227.358 12.9972 227.457 13.486 227.656 13.8871C227.858 14.2848 228.138 14.5881 228.496 14.7969C228.854 15.0024 229.27 15.1051 229.744 15.1051C230.053 15.1051 230.331 15.062 230.58 14.9759C230.831 14.8864 231.049 14.7538 231.231 14.5781C231.413 14.3991 231.554 14.1771 231.653 13.9119L232.787 14.2301C232.668 14.6146 232.467 14.9527 232.185 15.2443C231.904 15.5327 231.556 15.758 231.141 15.9205C230.727 16.0795 230.261 16.1591 229.744 16.1591ZM240.703 8.36364L237.879 16H236.686L233.862 8.36364H235.135L237.243 14.4489H237.322L239.43 8.36364H240.703ZM244.266 16.179C243.782 16.179 243.343 16.0878 242.949 15.9055C242.554 15.7199 242.241 15.4531 242.009 15.1051C241.777 14.7538 241.661 14.3295 241.661 13.8324C241.661 13.3949 241.747 13.0402 241.92 12.7685C242.092 12.4934 242.322 12.2779 242.611 12.1222C242.899 11.9664 243.217 11.8504 243.565 11.7741C243.917 11.6946 244.27 11.6316 244.624 11.5852C245.088 11.5256 245.464 11.4808 245.753 11.451C246.045 11.4179 246.257 11.3632 246.389 11.2869C246.525 11.2107 246.593 11.0781 246.593 10.8892V10.8494C246.593 10.3589 246.459 9.97775 246.19 9.70597C245.925 9.43419 245.522 9.2983 244.982 9.2983C244.422 9.2983 243.983 9.42093 243.665 9.66619C243.347 9.91146 243.123 10.1733 242.994 10.4517L241.88 10.054C242.079 9.58996 242.344 9.22869 242.675 8.97017C243.01 8.70833 243.375 8.52604 243.769 8.4233C244.167 8.31723 244.558 8.2642 244.942 8.2642C245.188 8.2642 245.469 8.29403 245.788 8.35369C246.109 8.41004 246.419 8.5277 246.717 8.70668C247.019 8.88565 247.269 9.15578 247.468 9.51705C247.667 9.87831 247.766 10.3622 247.766 10.9688V16H246.593V14.9659H246.533C246.454 15.1316 246.321 15.3089 246.136 15.4979C245.95 15.6868 245.703 15.8475 245.395 15.9801C245.087 16.1127 244.71 16.179 244.266 16.179ZM244.445 15.125C244.909 15.125 245.3 15.0339 245.619 14.8516C245.94 14.6693 246.182 14.4339 246.344 14.1456C246.51 13.8572 246.593 13.554 246.593 13.2358V12.1619C246.543 12.2216 246.434 12.2763 246.265 12.326C246.099 12.3724 245.907 12.4138 245.688 12.4503C245.473 12.4834 245.262 12.5133 245.057 12.5398C244.855 12.563 244.691 12.5829 244.565 12.5994C244.26 12.6392 243.975 12.7038 243.71 12.7933C243.448 12.8795 243.236 13.0104 243.073 13.1861C242.914 13.3584 242.835 13.5937 242.835 13.892C242.835 14.2997 242.985 14.608 243.287 14.8168C243.592 15.0223 243.978 15.125 244.445 15.125ZM251.081 11.4062V16H249.908V8.36364H251.041V9.55682H251.141C251.32 9.16903 251.592 8.85748 251.956 8.62216C252.321 8.38352 252.791 8.2642 253.368 8.2642C253.885 8.2642 254.338 8.37027 254.725 8.58239C255.113 8.79119 255.415 9.10938 255.63 9.53693C255.846 9.96117 255.953 10.4981 255.953 11.1477V16H254.78V11.2273C254.78 10.6274 254.624 10.16 254.313 9.82528C254.001 9.48722 253.574 9.31818 253.03 9.31818C252.655 9.31818 252.321 9.39938 252.026 9.56179C251.734 9.72419 251.504 9.96117 251.335 10.2727C251.166 10.5843 251.081 10.9621 251.081 11.4062ZM261.418 8.36364V9.35795H257.461V8.36364H261.418ZM258.614 6.53409H259.788V13.8125C259.788 14.1439 259.836 14.3925 259.932 14.5582C260.031 14.7206 260.157 14.83 260.31 14.8864C260.465 14.9394 260.629 14.9659 260.802 14.9659C260.931 14.9659 261.037 14.9593 261.12 14.946C261.203 14.9295 261.269 14.9162 261.319 14.9062L261.558 15.9602C261.478 15.9901 261.367 16.0199 261.224 16.0497C261.082 16.0829 260.901 16.0994 260.683 16.0994C260.351 16.0994 260.026 16.0282 259.708 15.8857C259.393 15.7431 259.131 15.526 258.923 15.2344C258.717 14.9427 258.614 14.5748 258.614 14.1307V6.53409ZM264.038 16.0795C263.793 16.0795 263.583 15.9917 263.407 15.8161C263.231 15.6404 263.143 15.4299 263.143 15.1847C263.143 14.9394 263.231 14.7289 263.407 14.5533C263.583 14.3776 263.793 14.2898 264.038 14.2898C264.284 14.2898 264.494 14.3776 264.67 14.5533C264.845 14.7289 264.933 14.9394 264.933 15.1847C264.933 15.3471 264.892 15.4962 264.809 15.6321C264.729 15.768 264.622 15.8774 264.486 15.9602C264.353 16.0398 264.204 16.0795 264.038 16.0795Z" fill="#BFBFBF"/>
</svg>
