<svg width="24" height="25" viewBox="0 0 24 25" fill="none" xmlns="http://www.w3.org/2000/svg">
<path d="M19.3399 14.99L18.3399 13.33C18.1299 12.96 17.9399 12.26 17.9399 11.85V9.32C17.9399 6.97 16.5599 4.94 14.5699 3.99C14.0499 3.07 13.0899 2.5 11.9899 2.5C10.8999 2.5 9.91994 3.09 9.39994 4.02C7.44994 4.99 6.09994 7 6.09994 9.32V11.85C6.09994 12.26 5.90994 12.96 5.69994 13.32L4.68994 14.99C4.28994 15.66 4.19994 16.4 4.44994 17.08C4.68994 17.75 5.25994 18.27 5.99994 18.52C7.93994 19.18 9.97994 19.5 12.0199 19.5C14.0599 19.5 16.0999 19.18 18.0399 18.53C18.7399 18.3 19.2799 17.77 19.5399 17.08C19.7999 16.39 19.7299 15.63 19.3399 14.99Z" fill="url(#paint0_linear_4100_897)"/>
<path d="M14.8302 20.51C14.4102 21.67 13.3002 22.5 12.0002 22.5C11.2102 22.5 10.4302 22.18 9.88018 21.61C9.56018 21.31 9.32018 20.91 9.18018 20.5C9.31018 20.52 9.44018 20.53 9.58018 20.55C9.81018 20.58 10.0502 20.61 10.2902 20.63C10.8602 20.68 11.4402 20.71 12.0202 20.71C12.5902 20.71 13.1602 20.68 13.7202 20.63C13.9302 20.61 14.1402 20.6 14.3402 20.57C14.5002 20.55 14.6602 20.53 14.8302 20.51Z" fill="url(#paint1_linear_4100_897)"/>
<defs>
<linearGradient id="paint0_linear_4100_897" x1="4.31055" y1="16.037" x2="19.3857" y2="15.8929" gradientUnits="userSpaceOnUse">
<stop stop-color="#4CA2FF"/>
<stop offset="1" stop-color="#1887FF"/>
</linearGradient>
<linearGradient id="paint1_linear_4100_897" x1="9.18018" y1="22.0926" x2="14.7124" y2="21.9274" gradientUnits="userSpaceOnUse">
<stop stop-color="#4CA2FF"/>
<stop offset="1" stop-color="#1887FF"/>
</linearGradient>
</defs>
</svg>
