<svg width="116" height="29" viewBox="0 0 116 29" fill="none" xmlns="http://www.w3.org/2000/svg">
<rect width="116" height="29" rx="7.71605" fill="#0FA4A6"/>
<path d="M18.6389 17.886C18.0401 17.886 17.4938 17.7471 17 17.4693C16.5062 17.1854 16.1142 16.7934 15.8241 16.2934C15.5401 15.7872 15.3981 15.2193 15.3981 14.5897C15.3981 13.9601 15.5401 13.3952 15.8241 12.8952C16.1142 12.3891 16.5062 11.9971 17 11.7193C17.4938 11.4354 18.0401 11.2934 18.6389 11.2934C19.2438 11.2934 19.7932 11.4354 20.287 11.7193C20.7809 11.9971 21.1698 12.386 21.4537 12.886C21.7377 13.386 21.8796 13.9539 21.8796 14.5897C21.8796 15.2255 21.7377 15.7934 21.4537 16.2934C21.1698 16.7934 20.7809 17.1854 20.287 17.4693C19.7932 17.7471 19.2438 17.886 18.6389 17.886ZM18.6389 17.1545C19.0895 17.1545 19.4938 17.0496 19.8519 16.8397C20.216 16.6298 20.5 16.3304 20.7037 15.9415C20.9136 15.5526 21.0185 15.102 21.0185 14.5897C21.0185 14.0712 20.9136 13.6205 20.7037 13.2378C20.5 12.8489 20.2191 12.5496 19.8611 12.3397C19.5031 12.1298 19.0957 12.0249 18.6389 12.0249C18.1821 12.0249 17.7747 12.1298 17.4167 12.3397C17.0586 12.5496 16.7747 12.8489 16.5648 13.2378C16.3611 13.6205 16.2593 14.0712 16.2593 14.5897C16.2593 15.102 16.3611 15.5526 16.5648 15.9415C16.7747 16.3304 17.0586 16.6298 17.4167 16.8397C17.7809 17.0496 18.1883 17.1545 18.6389 17.1545ZM23.8346 13.6823C24.0012 13.3922 24.2481 13.1514 24.5753 12.9601C24.9086 12.7625 25.2944 12.6638 25.7327 12.6638C26.1833 12.6638 26.5907 12.7718 26.9549 12.9878C27.3253 13.2039 27.6154 13.5094 27.8253 13.9045C28.0352 14.2934 28.1401 14.7471 28.1401 15.2656C28.1401 15.778 28.0352 16.2347 27.8253 16.636C27.6154 17.0372 27.3253 17.3489 26.9549 17.5712C26.5907 17.7934 26.1833 17.9045 25.7327 17.9045C25.3006 17.9045 24.9179 17.8088 24.5846 17.6175C24.2574 17.4199 24.0074 17.1761 23.8346 16.886V20.2286H22.992V12.7471H23.8346V13.6823ZM27.279 15.2656C27.279 14.8829 27.2018 14.5496 27.0475 14.2656C26.8932 13.9817 26.6833 13.7656 26.4179 13.6175C26.1586 13.4693 25.8716 13.3952 25.5568 13.3952C25.2481 13.3952 24.9611 13.4724 24.6957 13.6267C24.4364 13.7749 24.2265 13.994 24.066 14.2841C23.9117 14.5681 23.8346 14.8983 23.8346 15.2749C23.8346 15.6576 23.9117 15.994 24.066 16.2841C24.2265 16.5681 24.4364 16.7872 24.6957 16.9415C24.9611 17.0897 25.2481 17.1638 25.5568 17.1638C25.8716 17.1638 26.1586 17.0897 26.4179 16.9415C26.6833 16.7872 26.8932 16.5681 27.0475 16.2841C27.2018 15.994 27.279 15.6545 27.279 15.2656ZM33.8788 15.0897C33.8788 15.2502 33.8696 15.4199 33.8511 15.5989H29.7955C29.8264 16.0989 29.9961 16.4909 30.3048 16.7749C30.6196 17.0526 30.9992 17.1915 31.4436 17.1915C31.8078 17.1915 32.1103 17.1082 32.3511 16.9415C32.598 16.7687 32.7708 16.5403 32.8696 16.2564H33.777C33.6412 16.744 33.3696 17.1422 32.9622 17.4508C32.5548 17.7533 32.0486 17.9045 31.4436 17.9045C30.9622 17.9045 30.5301 17.7965 30.1474 17.5804C29.7708 17.3644 29.4745 17.0588 29.2585 16.6638C29.0424 16.2625 28.9344 15.7996 28.9344 15.2749C28.9344 14.7502 29.0393 14.2903 29.2492 13.8952C29.4591 13.5002 29.7523 13.1977 30.1288 12.9878C30.5115 12.7718 30.9498 12.6638 31.4436 12.6638C31.9251 12.6638 32.3511 12.7687 32.7214 12.9786C33.0918 13.1885 33.3757 13.4786 33.5733 13.8489C33.777 14.2131 33.8788 14.6267 33.8788 15.0897ZM33.0085 14.9138C33.0085 14.5928 32.9375 14.3181 32.7955 14.0897C32.6535 13.8551 32.4591 13.6792 32.2122 13.5619C31.9714 13.4385 31.7029 13.3767 31.4066 13.3767C30.9807 13.3767 30.6165 13.5125 30.314 13.7841C30.0177 14.0557 29.848 14.4323 29.8048 14.9138H33.0085ZM37.4632 12.6545C38.0805 12.6545 38.5805 12.8428 38.9632 13.2193C39.346 13.5897 39.5373 14.1267 39.5373 14.8304V17.8212H38.704V14.9508C38.704 14.4446 38.5774 14.0588 38.3244 13.7934C38.0713 13.5218 37.7256 13.386 37.2873 13.386C36.8429 13.386 36.4879 13.5249 36.2225 13.8026C35.9632 14.0804 35.8336 14.4847 35.8336 15.0156V17.8212H34.991V12.7471H35.8336V13.4693C36.0003 13.2101 36.2256 13.0094 36.5095 12.8675C36.7997 12.7255 37.1176 12.6545 37.4632 12.6545ZM51.4933 11.3675L49.623 17.8212H48.6785L47.1785 12.6267L45.623 17.8212L44.6878 17.8304L42.8822 11.3675H43.7804L45.1878 16.8397L46.7433 11.3675H47.6878L49.1693 16.8212L50.5859 11.3675H51.4933ZM57.0451 15.0897C57.0451 15.2502 57.0358 15.4199 57.0173 15.5989H52.9617C52.9926 16.0989 53.1623 16.4909 53.471 16.7749C53.7858 17.0526 54.1654 17.1915 54.6099 17.1915C54.9741 17.1915 55.2765 17.1082 55.5173 16.9415C55.7642 16.7687 55.937 16.5403 56.0358 16.2564H56.9432C56.8074 16.744 56.5358 17.1422 56.1284 17.4508C55.721 17.7533 55.2148 17.9045 54.6099 17.9045C54.1284 17.9045 53.6963 17.7965 53.3136 17.5804C52.937 17.3644 52.6407 17.0588 52.4247 16.6638C52.2086 16.2625 52.1006 15.7996 52.1006 15.2749C52.1006 14.7502 52.2056 14.2903 52.4154 13.8952C52.6253 13.5002 52.9185 13.1977 53.2951 12.9878C53.6778 12.7718 54.116 12.6638 54.6099 12.6638C55.0914 12.6638 55.5173 12.7687 55.8877 12.9786C56.258 13.1885 56.542 13.4786 56.7395 13.8489C56.9432 14.2131 57.0451 14.6267 57.0451 15.0897ZM56.1747 14.9138C56.1747 14.5928 56.1037 14.3181 55.9617 14.0897C55.8198 13.8551 55.6253 13.6792 55.3784 13.5619C55.1377 13.4385 54.8691 13.3767 54.5728 13.3767C54.1469 13.3767 53.7827 13.5125 53.4802 13.7841C53.184 14.0557 53.0142 14.4323 52.971 14.9138H56.1747ZM58.9998 13.6915C59.1727 13.3891 59.4258 13.1422 59.7591 12.9508C60.0924 12.7594 60.4721 12.6638 60.898 12.6638C61.3548 12.6638 61.7653 12.7718 62.1295 12.9878C62.4937 13.2039 62.7807 13.5094 62.9906 13.9045C63.2005 14.2934 63.3054 14.7471 63.3054 15.2656C63.3054 15.778 63.2005 16.2347 62.9906 16.636C62.7807 17.0372 62.4906 17.3489 62.1202 17.5712C61.756 17.7934 61.3486 17.9045 60.898 17.9045C60.4597 17.9045 60.0739 17.8088 59.7406 17.6175C59.4134 17.4261 59.1665 17.1823 58.9998 16.886V17.8212H58.1573V10.9693H58.9998V13.6915ZM62.4443 15.2656C62.4443 14.8829 62.3671 14.5496 62.2128 14.2656C62.0585 13.9817 61.8486 13.7656 61.5832 13.6175C61.3239 13.4693 61.0369 13.3952 60.7221 13.3952C60.4134 13.3952 60.1264 13.4724 59.861 13.6267C59.6017 13.7749 59.3918 13.994 59.2313 14.2841C59.077 14.5681 58.9998 14.8983 58.9998 15.2749C58.9998 15.6576 59.077 15.994 59.2313 16.2841C59.3918 16.5681 59.6017 16.7872 59.861 16.9415C60.1264 17.0897 60.4134 17.1638 60.7221 17.1638C61.0369 17.1638 61.3239 17.0897 61.5832 16.9415C61.8486 16.7872 62.0585 16.5681 62.2128 16.2841C62.3671 15.994 62.4443 15.6545 62.4443 15.2656ZM66.2108 17.9045C65.8219 17.9045 65.4731 17.8397 65.1645 17.7101C64.8558 17.5743 64.612 17.3891 64.433 17.1545C64.254 16.9138 64.1552 16.6391 64.1367 16.3304H65.0071C65.0318 16.5835 65.1491 16.7903 65.3589 16.9508C65.575 17.1113 65.8558 17.1915 66.2015 17.1915C66.5225 17.1915 66.7756 17.1205 66.9608 16.9786C67.146 16.8366 67.2386 16.6576 67.2386 16.4415C67.2386 16.2193 67.1398 16.0557 66.9423 15.9508C66.7447 15.8397 66.4392 15.7317 66.0256 15.6267C65.6491 15.528 65.3404 15.4292 65.0997 15.3304C64.8651 15.2255 64.6614 15.0743 64.4886 14.8767C64.3219 14.673 64.2386 14.4076 64.2386 14.0804C64.2386 13.8212 64.3157 13.5835 64.47 13.3675C64.6244 13.1514 64.8435 12.9817 65.1275 12.8582C65.4114 12.7286 65.7355 12.6638 66.0997 12.6638C66.6614 12.6638 67.1151 12.8057 67.4608 13.0897C67.8065 13.3736 67.9916 13.7625 68.0163 14.2564H67.1737C67.1552 13.9909 67.0472 13.778 66.8497 13.6175C66.6583 13.457 66.3991 13.3767 66.0719 13.3767C65.7694 13.3767 65.5287 13.4415 65.3497 13.5712C65.1707 13.7008 65.0812 13.8705 65.0812 14.0804C65.0812 14.2471 65.1336 14.386 65.2386 14.4971C65.3497 14.602 65.4855 14.6885 65.646 14.7564C65.8126 14.8181 66.041 14.8891 66.3312 14.9693C66.6954 15.0681 66.9916 15.1668 67.22 15.2656C67.4484 15.3582 67.6429 15.5002 67.8034 15.6915C67.97 15.8829 68.0565 16.1329 68.0626 16.4415C68.0626 16.7193 67.9855 16.9693 67.8312 17.1915C67.6768 17.4138 67.4577 17.5897 67.1737 17.7193C66.896 17.8428 66.575 17.9045 66.2108 17.9045ZM69.6873 11.923C69.5268 11.923 69.391 11.8675 69.2799 11.7564C69.1688 11.6452 69.1132 11.5094 69.1132 11.3489C69.1132 11.1885 69.1688 11.0526 69.2799 10.9415C69.391 10.8304 69.5268 10.7749 69.6873 10.7749C69.8416 10.7749 69.9712 10.8304 70.0762 10.9415C70.1873 11.0526 70.2428 11.1885 70.2428 11.3489C70.2428 11.5094 70.1873 11.6452 70.0762 11.7564C69.9712 11.8675 69.8416 11.923 69.6873 11.923ZM70.0947 12.7471V17.8212H69.2521V12.7471H70.0947ZM72.5585 13.4415V16.4323C72.5585 16.6792 72.611 16.8551 72.7159 16.9601C72.8209 17.0588 73.003 17.1082 73.2622 17.1082H73.8826V17.8212H73.1233C72.6542 17.8212 72.3023 17.7131 72.0678 17.4971C71.8332 17.281 71.7159 16.9261 71.7159 16.4323V13.4415H71.0585V12.7471H71.7159V11.4693H72.5585V12.7471H73.8826V13.4415H72.5585ZM79.5331 15.0897C79.5331 15.2502 79.5239 15.4199 79.5053 15.5989H75.4498C75.4807 16.0989 75.6504 16.4909 75.9591 16.7749C76.2739 17.0526 76.6535 17.1915 77.0979 17.1915C77.4621 17.1915 77.7646 17.1082 78.0053 16.9415C78.2523 16.7687 78.4251 16.5403 78.5239 16.2564H79.4313C79.2955 16.744 79.0239 17.1422 78.6165 17.4508C78.2091 17.7533 77.7029 17.9045 77.0979 17.9045C76.6165 17.9045 76.1844 17.7965 75.8016 17.5804C75.4251 17.3644 75.1288 17.0588 74.9128 16.6638C74.6967 16.2625 74.5887 15.7996 74.5887 15.2749C74.5887 14.7502 74.6936 14.2903 74.9035 13.8952C75.1134 13.5002 75.4066 13.1977 75.7831 12.9878C76.1658 12.7718 76.6041 12.6638 77.0979 12.6638C77.5794 12.6638 78.0053 12.7687 78.3757 12.9786C78.7461 13.1885 79.03 13.4786 79.2276 13.8489C79.4313 14.2131 79.5331 14.6267 79.5331 15.0897ZM78.6628 14.9138C78.6628 14.5928 78.5918 14.3181 78.4498 14.0897C78.3078 13.8551 78.1134 13.6792 77.8665 13.5619C77.6257 13.4385 77.3572 13.3767 77.0609 13.3767C76.635 13.3767 76.2708 13.5125 75.9683 13.7841C75.672 14.0557 75.5023 14.4323 75.4591 14.9138H78.6628Z" fill="white"/>
<path fill-rule="evenodd" clip-rule="evenodd" d="M90.254 17.3201L91.2658 14.0869L94.499 13.0751L93.4872 16.3083L90.254 17.3201Z" stroke="white" stroke-width="0.95295" stroke-linecap="round" stroke-linejoin="round"/>
<circle cx="92.3765" cy="15.1977" r="6.10585" stroke="white" stroke-width="0.95295" stroke-linecap="round" stroke-linejoin="round"/>
</svg>
