<svg width="136" height="69" viewBox="0 0 136 69" fill="none" xmlns="http://www.w3.org/2000/svg">
<rect x="0.25" y="0.75" width="135.5" height="67.5" rx="9.75" fill="white"/>
<rect x="0.25" y="0.75" width="135.5" height="67.5" rx="9.75" stroke="#BFBFBF" stroke-width="0.5"/>
<path d="M58.58 29.51L58.56 29.53C58.29 28.94 58.12 28.27 58.05 27.53C58.12 28.26 58.31 28.92 58.58 29.51Z" fill="#828282"/>
<path d="M65.0001 20.88C66.3146 20.88 67.3801 19.8144 67.3801 18.5C67.3801 17.1856 66.3146 16.12 65.0001 16.12C63.6857 16.12 62.6201 17.1856 62.6201 18.5C62.6201 19.8144 63.6857 20.88 65.0001 20.88Z" fill="#828282"/>
<path d="M72.19 12.5H63.81C60.17 12.5 58 14.67 58 18.31V26.69C58 27.78 58.19 28.73 58.56 29.53C59.42 31.43 61.26 32.5 63.81 32.5H72.19C75.83 32.5 78 30.33 78 26.69V24.4V18.31C78 14.67 75.83 12.5 72.19 12.5ZM76.37 23C75.59 22.33 74.33 22.33 73.55 23L69.39 26.57C68.61 27.24 67.35 27.24 66.57 26.57L66.23 26.29C65.52 25.67 64.39 25.61 63.59 26.15L59.85 28.66C59.63 28.1 59.5 27.45 59.5 26.69V18.31C59.5 15.49 60.99 14 63.81 14H72.19C75.01 14 76.5 15.49 76.5 18.31V23.11L76.37 23Z" fill="#828282"/>
<path d="M18.0795 46.5H17.0227C16.9602 46.196 16.8509 45.929 16.6946 45.6989C16.5412 45.4688 16.3537 45.2756 16.1321 45.1193C15.9134 44.9602 15.6705 44.8409 15.4034 44.7614C15.1364 44.6818 14.858 44.642 14.5682 44.642C14.0398 44.642 13.5611 44.7756 13.1321 45.0426C12.706 45.3097 12.3665 45.7031 12.1136 46.223C11.8636 46.7429 11.7386 47.3807 11.7386 48.1364C11.7386 48.892 11.8636 49.5298 12.1136 50.0497C12.3665 50.5696 12.706 50.9631 13.1321 51.2301C13.5611 51.4972 14.0398 51.6307 14.5682 51.6307C14.858 51.6307 15.1364 51.5909 15.4034 51.5114C15.6705 51.4318 15.9134 51.3139 16.1321 51.1577C16.3537 50.9986 16.5412 50.804 16.6946 50.5739C16.8509 50.3409 16.9602 50.0739 17.0227 49.7727H18.0795C18 50.2187 17.8551 50.6179 17.6449 50.9702C17.4347 51.3224 17.1733 51.6222 16.8608 51.8693C16.5483 52.1136 16.1974 52.2997 15.8082 52.4276C15.4219 52.5554 15.0085 52.6193 14.5682 52.6193C13.8239 52.6193 13.1619 52.4375 12.5824 52.0739C12.0028 51.7102 11.5469 51.1932 11.2145 50.5227C10.8821 49.8523 10.7159 49.0568 10.7159 48.1364C10.7159 47.2159 10.8821 46.4205 11.2145 45.75C11.5469 45.0795 12.0028 44.5625 12.5824 44.1989C13.1619 43.8352 13.8239 43.6534 14.5682 43.6534C15.0085 43.6534 15.4219 43.7173 15.8082 43.8452C16.1974 43.973 16.5483 44.1605 16.8608 44.4077C17.1733 44.652 17.4347 44.9503 17.6449 45.3026C17.8551 45.652 18 46.0511 18.0795 46.5ZM20.6566 48.5625V52.5H19.6509V43.7727H20.6566V46.9773H20.7418C20.8952 46.6392 21.1254 46.3707 21.4322 46.1719C21.7418 45.9702 22.1538 45.8693 22.668 45.8693C23.114 45.8693 23.5046 45.9588 23.8398 46.1378C24.1751 46.3139 24.435 46.5852 24.6197 46.9517C24.8072 47.3153 24.9009 47.7784 24.9009 48.3409V52.5H23.8952V48.4091C23.8952 47.8892 23.7603 47.4872 23.4904 47.2031C23.2234 46.9162 22.8526 46.7727 22.3782 46.7727C22.0487 46.7727 21.7532 46.8423 21.4918 46.9815C21.2333 47.1207 21.0288 47.3239 20.8782 47.5909C20.7305 47.858 20.6566 48.1818 20.6566 48.5625ZM29.3999 52.6364C28.8089 52.6364 28.2905 52.4957 27.8445 52.2145C27.4013 51.9332 27.0547 51.5398 26.8047 51.0341C26.5575 50.5284 26.4339 49.9375 26.4339 49.2614C26.4339 48.5795 26.5575 47.9844 26.8047 47.4759C27.0547 46.9673 27.4013 46.5724 27.8445 46.2912C28.2905 46.0099 28.8089 45.8693 29.3999 45.8693C29.9908 45.8693 30.5078 46.0099 30.951 46.2912C31.397 46.5724 31.7436 46.9673 31.9908 47.4759C32.2408 47.9844 32.3658 48.5795 32.3658 49.2614C32.3658 49.9375 32.2408 50.5284 31.9908 51.0341C31.7436 51.5398 31.397 51.9332 30.951 52.2145C30.5078 52.4957 29.9908 52.6364 29.3999 52.6364ZM29.3999 51.733C29.8487 51.733 30.218 51.6179 30.5078 51.3878C30.7976 51.1577 31.0121 50.8551 31.1513 50.4801C31.2905 50.1051 31.3601 49.6989 31.3601 49.2614C31.3601 48.8239 31.2905 48.4162 31.1513 48.0384C31.0121 47.6605 30.7976 47.3551 30.5078 47.1222C30.218 46.8892 29.8487 46.7727 29.3999 46.7727C28.951 46.7727 28.5817 46.8892 28.2919 47.1222C28.0021 47.3551 27.7876 47.6605 27.6484 48.0384C27.5092 48.4162 27.4396 48.8239 27.4396 49.2614C27.4396 49.6989 27.5092 50.1051 27.6484 50.4801C27.7876 50.8551 28.0021 51.1577 28.2919 51.3878C28.5817 51.6179 28.951 51.733 29.3999 51.733ZM36.56 52.6364C35.9691 52.6364 35.4506 52.4957 35.0046 52.2145C34.5614 51.9332 34.2148 51.5398 33.9648 51.0341C33.7177 50.5284 33.5941 49.9375 33.5941 49.2614C33.5941 48.5795 33.7177 47.9844 33.9648 47.4759C34.2148 46.9673 34.5614 46.5724 35.0046 46.2912C35.4506 46.0099 35.9691 45.8693 36.56 45.8693C37.1509 45.8693 37.668 46.0099 38.1112 46.2912C38.5572 46.5724 38.9038 46.9673 39.1509 47.4759C39.4009 47.9844 39.5259 48.5795 39.5259 49.2614C39.5259 49.9375 39.4009 50.5284 39.1509 51.0341C38.9038 51.5398 38.5572 51.9332 38.1112 52.2145C37.668 52.4957 37.1509 52.6364 36.56 52.6364ZM36.56 51.733C37.0089 51.733 37.3782 51.6179 37.668 51.3878C37.9577 51.1577 38.1722 50.8551 38.3114 50.4801C38.4506 50.1051 38.5202 49.6989 38.5202 49.2614C38.5202 48.8239 38.4506 48.4162 38.3114 48.0384C38.1722 47.6605 37.9577 47.3551 37.668 47.1222C37.3782 46.8892 37.0089 46.7727 36.56 46.7727C36.1112 46.7727 35.7418 46.8892 35.4521 47.1222C35.1623 47.3551 34.9478 47.6605 34.8086 48.0384C34.6694 48.4162 34.5998 48.8239 34.5998 49.2614C34.5998 49.6989 34.6694 50.1051 34.8086 50.4801C34.9478 50.8551 35.1623 51.1577 35.4521 51.3878C35.7418 51.6179 36.1112 51.733 36.56 51.733ZM45.6974 47.4205L44.794 47.6761C44.7372 47.5256 44.6534 47.3793 44.5426 47.2372C44.4347 47.0923 44.2869 46.973 44.0994 46.8793C43.9119 46.7855 43.6719 46.7386 43.3793 46.7386C42.9787 46.7386 42.6449 46.831 42.3778 47.0156C42.1136 47.1974 41.9815 47.429 41.9815 47.7102C41.9815 47.9602 42.0724 48.1577 42.2543 48.3026C42.4361 48.4474 42.7202 48.5682 43.1065 48.6648L44.0781 48.9034C44.6634 49.0455 45.0994 49.2628 45.3864 49.5554C45.6733 49.8452 45.8168 50.2187 45.8168 50.6761C45.8168 51.0511 45.7088 51.3864 45.4929 51.6818C45.2798 51.9773 44.9815 52.2102 44.598 52.3807C44.2145 52.5511 43.7685 52.6364 43.2599 52.6364C42.5923 52.6364 42.0398 52.4915 41.6023 52.2017C41.1648 51.9119 40.8878 51.4886 40.7713 50.9318L41.7259 50.6932C41.8168 51.0455 41.9886 51.3097 42.2415 51.4858C42.4972 51.6619 42.831 51.75 43.2429 51.75C43.7116 51.75 44.0838 51.6506 44.3594 51.4517C44.6378 51.25 44.777 51.0085 44.777 50.7273C44.777 50.5 44.6974 50.3097 44.5384 50.1562C44.3793 50 44.1349 49.8835 43.8054 49.8068L42.7145 49.5511C42.1151 49.4091 41.6747 49.1889 41.3935 48.8906C41.1151 48.5895 40.9759 48.2131 40.9759 47.7614C40.9759 47.392 41.0795 47.0653 41.2869 46.7812C41.4972 46.4972 41.7827 46.2741 42.1435 46.1122C42.5071 45.9503 42.919 45.8693 43.3793 45.8693C44.027 45.8693 44.5355 46.0114 44.9048 46.2955C45.277 46.5795 45.5412 46.9545 45.6974 47.4205ZM50.0749 52.6364C49.4442 52.6364 48.9002 52.4972 48.4428 52.2188C47.9883 51.9375 47.6374 51.5455 47.3903 51.0426C47.146 50.5369 47.0238 49.9489 47.0238 49.2784C47.0238 48.608 47.146 48.017 47.3903 47.5057C47.6374 46.9915 47.9812 46.5909 48.4215 46.304C48.8647 46.0142 49.3817 45.8693 49.9727 45.8693C50.3136 45.8693 50.6502 45.9261 50.9826 46.0398C51.315 46.1534 51.6175 46.3381 51.8903 46.5938C52.163 46.8466 52.3803 47.1818 52.5423 47.5994C52.7042 48.017 52.7852 48.5312 52.7852 49.142V49.5682H47.7397V48.6989H51.7624C51.7624 48.3295 51.6886 48 51.5408 47.7102C51.396 47.4205 51.1886 47.1918 50.9187 47.0241C50.6516 46.8565 50.3363 46.7727 49.9727 46.7727C49.5721 46.7727 49.2255 46.8722 48.9329 47.071C48.6431 47.267 48.4201 47.5227 48.2638 47.8381C48.1076 48.1534 48.0295 48.4915 48.0295 48.8523V49.4318C48.0295 49.9261 48.1147 50.3452 48.2852 50.6889C48.4585 51.0298 48.6985 51.2898 49.0053 51.4688C49.3121 51.6449 49.6687 51.733 50.0749 51.733C50.3391 51.733 50.5778 51.696 50.7908 51.6222C51.0067 51.5455 51.1928 51.4318 51.3491 51.2812C51.5053 51.1278 51.6261 50.9375 51.7113 50.7102L52.6829 50.983C52.5806 51.3125 52.4087 51.6023 52.1673 51.8523C51.9258 52.0994 51.6275 52.2926 51.2724 52.4318C50.9173 52.5682 50.5181 52.6364 50.0749 52.6364ZM60.6048 45.9545V46.8068H57.0763V45.9545H60.6048ZM58.1332 52.5V45.0511C58.1332 44.6761 58.2212 44.3636 58.3974 44.1136C58.5735 43.8636 58.8022 43.6761 59.0835 43.5511C59.3647 43.4261 59.6616 43.3636 59.9741 43.3636C60.2212 43.3636 60.4229 43.3835 60.5792 43.4233C60.7354 43.4631 60.8519 43.5 60.9286 43.5341L60.6388 44.4034C60.5877 44.3864 60.5167 44.3651 60.4258 44.3395C60.3377 44.3139 60.2212 44.3011 60.0763 44.3011C59.744 44.3011 59.5039 44.3849 59.3562 44.5526C59.2113 44.7202 59.1388 44.9659 59.1388 45.2898V52.5H58.1332ZM62.0142 52.5V45.9545H62.9858V46.9432H63.054C63.1733 46.6193 63.3892 46.3565 63.7017 46.1548C64.0142 45.9531 64.3665 45.8523 64.7585 45.8523C64.8324 45.8523 64.9247 45.8537 65.0355 45.8565C65.1463 45.8594 65.2301 45.8636 65.2869 45.8693V46.892C65.2528 46.8835 65.1747 46.8707 65.0526 46.8537C64.9332 46.8338 64.8068 46.8239 64.6733 46.8239C64.3551 46.8239 64.071 46.8906 63.821 47.0241C63.5739 47.1548 63.3778 47.3366 63.233 47.5696C63.0909 47.7997 63.0199 48.0625 63.0199 48.358V52.5H62.0142ZM68.9389 52.6364C68.348 52.6364 67.8295 52.4957 67.3835 52.2145C66.9403 51.9332 66.5938 51.5398 66.3438 51.0341C66.0966 50.5284 65.973 49.9375 65.973 49.2614C65.973 48.5795 66.0966 47.9844 66.3438 47.4759C66.5938 46.9673 66.9403 46.5724 67.3835 46.2912C67.8295 46.0099 68.348 45.8693 68.9389 45.8693C69.5298 45.8693 70.0469 46.0099 70.4901 46.2912C70.9361 46.5724 71.2827 46.9673 71.5298 47.4759C71.7798 47.9844 71.9048 48.5795 71.9048 49.2614C71.9048 49.9375 71.7798 50.5284 71.5298 51.0341C71.2827 51.5398 70.9361 51.9332 70.4901 52.2145C70.0469 52.4957 69.5298 52.6364 68.9389 52.6364ZM68.9389 51.733C69.3878 51.733 69.7571 51.6179 70.0469 51.3878C70.3366 51.1577 70.5511 50.8551 70.6903 50.4801C70.8295 50.1051 70.8991 49.6989 70.8991 49.2614C70.8991 48.8239 70.8295 48.4162 70.6903 48.0384C70.5511 47.6605 70.3366 47.3551 70.0469 47.1222C69.7571 46.8892 69.3878 46.7727 68.9389 46.7727C68.4901 46.7727 68.1207 46.8892 67.831 47.1222C67.5412 47.3551 67.3267 47.6605 67.1875 48.0384C67.0483 48.4162 66.9787 48.8239 66.9787 49.2614C66.9787 49.6989 67.0483 50.1051 67.1875 50.4801C67.3267 50.8551 67.5412 51.1577 67.831 51.3878C68.1207 51.6179 68.4901 51.733 68.9389 51.733ZM73.44 52.5V45.9545H74.4116V46.9773H74.4968C74.6332 46.6278 74.8533 46.3565 75.1573 46.1634C75.4613 45.9673 75.8263 45.8693 76.2525 45.8693C76.6843 45.8693 77.0437 45.9673 77.3306 46.1634C77.6204 46.3565 77.8462 46.6278 78.0082 46.9773H78.0763C78.244 46.6392 78.4954 46.3707 78.8306 46.1719C79.1658 45.9702 79.5678 45.8693 80.0366 45.8693C80.6218 45.8693 81.1005 46.0526 81.4727 46.419C81.8448 46.7827 82.0309 47.3494 82.0309 48.1193V52.5H81.0252V48.1193C81.0252 47.6364 80.8931 47.2912 80.6289 47.0838C80.3647 46.8764 80.0536 46.7727 79.6957 46.7727C79.2354 46.7727 78.8789 46.9119 78.6261 47.1903C78.3732 47.4659 78.2468 47.8153 78.2468 48.2386V52.5H77.2241V48.017C77.2241 47.6449 77.1033 47.3452 76.8619 47.1179C76.6204 46.8878 76.3093 46.7727 75.9286 46.7727C75.6673 46.7727 75.4229 46.8423 75.1957 46.9815C74.9712 47.1207 74.7894 47.3139 74.6502 47.5611C74.5138 47.8054 74.4457 48.0881 74.4457 48.4091V52.5H73.44ZM89.8867 55.0909C89.4009 55.0909 88.9833 55.0284 88.6339 54.9034C88.2844 54.7812 87.9933 54.6193 87.7603 54.4176C87.5302 54.2188 87.3469 54.0057 87.2106 53.7784L88.0117 53.2159C88.1026 53.3352 88.2177 53.4716 88.3569 53.625C88.4961 53.7812 88.6864 53.9162 88.9279 54.0298C89.1722 54.1463 89.4918 54.2045 89.8867 54.2045C90.4151 54.2045 90.8512 54.0767 91.195 53.821C91.5387 53.5653 91.7106 53.1648 91.7106 52.6193V51.2898H91.6254C91.5515 51.4091 91.4464 51.5568 91.31 51.733C91.1765 51.9062 90.9833 52.0611 90.7305 52.1974C90.4805 52.331 90.1424 52.3977 89.7163 52.3977C89.1879 52.3977 88.7134 52.2727 88.293 52.0227C87.8754 51.7727 87.5444 51.4091 87.3001 50.9318C87.0586 50.4545 86.9379 49.875 86.9379 49.1932C86.9379 48.5227 87.0558 47.9389 87.2915 47.4418C87.5273 46.9418 87.8555 46.5554 88.2759 46.2827C88.6964 46.0071 89.1822 45.8693 89.7333 45.8693C90.1594 45.8693 90.4975 45.9403 90.7475 46.0824C91.0004 46.2216 91.1935 46.3807 91.3271 46.5597C91.4634 46.7358 91.5685 46.8807 91.6424 46.9943H91.7447V45.9545H92.7163V52.6875C92.7163 53.25 92.5884 53.7074 92.3327 54.0597C92.0799 54.4148 91.739 54.6747 91.31 54.8395C90.8839 55.0071 90.4094 55.0909 89.8867 55.0909ZM89.8526 51.4943C90.256 51.4943 90.5969 51.402 90.8754 51.2173C91.1538 51.0327 91.3654 50.767 91.5103 50.4205C91.6552 50.0739 91.7276 49.6591 91.7276 49.1761C91.7276 48.7045 91.6566 48.2884 91.5146 47.9276C91.3725 47.5668 91.1623 47.2841 90.8839 47.0795C90.6055 46.875 90.2617 46.7727 89.8526 46.7727C89.4265 46.7727 89.0714 46.8807 88.7873 47.0966C88.506 47.3125 88.2944 47.6023 88.1523 47.9659C88.0131 48.3295 87.9435 48.733 87.9435 49.1761C87.9435 49.6307 88.0146 50.0327 88.1566 50.3821C88.3015 50.7287 88.5146 51.0014 88.7958 51.2003C89.0799 51.3963 89.4322 51.4943 89.8526 51.4943ZM96.4833 52.6534C96.0685 52.6534 95.6921 52.5753 95.354 52.419C95.016 52.2599 94.7475 52.0312 94.5487 51.733C94.3498 51.4318 94.2504 51.0682 94.2504 50.642C94.2504 50.267 94.3242 49.9631 94.4719 49.7301C94.6197 49.4943 94.8171 49.3097 95.0643 49.1761C95.3114 49.0426 95.5842 48.9432 95.8825 48.8778C96.1836 48.8097 96.4862 48.7557 96.7901 48.7159C97.1879 48.6648 97.5103 48.6264 97.7575 48.6009C98.0075 48.5724 98.1893 48.5256 98.3029 48.4602C98.4194 48.3949 98.4776 48.2812 98.4776 48.1193V48.0852C98.4776 47.6648 98.3626 47.3381 98.1325 47.1051C97.9052 46.8722 97.56 46.7557 97.0969 46.7557C96.6168 46.7557 96.2404 46.8608 95.9677 47.071C95.695 47.2812 95.5032 47.5057 95.3924 47.7443L94.4379 47.4034C94.6083 47.0057 94.8356 46.696 95.1197 46.4744C95.4066 46.25 95.7191 46.0937 96.0572 46.0057C96.3981 45.9148 96.7333 45.8693 97.0629 45.8693C97.2731 45.8693 97.5146 45.8949 97.7873 45.946C98.0629 45.9943 98.3285 46.0952 98.5842 46.2486C98.8427 46.402 99.0572 46.6335 99.2276 46.9432C99.3981 47.2528 99.4833 47.6676 99.4833 48.1875V52.5H98.4776V51.6136H98.4265C98.3583 51.7557 98.2447 51.9077 98.0856 52.0696C97.9265 52.2315 97.7148 52.3693 97.4506 52.483C97.1864 52.5966 96.864 52.6534 96.4833 52.6534ZM96.6367 51.75C97.0344 51.75 97.3697 51.6719 97.6424 51.5156C97.918 51.3594 98.1254 51.1577 98.2646 50.9105C98.4066 50.6634 98.4776 50.4034 98.4776 50.1307V49.2102C98.435 49.2614 98.3413 49.3082 98.1964 49.3509C98.0543 49.3906 97.8896 49.4261 97.7021 49.4574C97.5174 49.4858 97.337 49.5114 97.1609 49.5341C96.9876 49.554 96.8469 49.571 96.739 49.5852C96.4776 49.6193 96.2333 49.6747 96.006 49.7514C95.7816 49.8253 95.5998 49.9375 95.4606 50.0881C95.3242 50.2358 95.256 50.4375 95.256 50.6932C95.256 51.0426 95.3853 51.3068 95.6438 51.4858C95.9052 51.6619 96.2362 51.75 96.6367 51.75ZM102.325 43.7727V52.5H101.319V43.7727H102.325ZM105.172 43.7727V52.5H104.167V43.7727H105.172ZM109.759 52.6364C109.128 52.6364 108.584 52.4972 108.126 52.2188C107.672 51.9375 107.321 51.5455 107.074 51.0426C106.83 50.5369 106.707 49.9489 106.707 49.2784C106.707 48.608 106.83 48.017 107.074 47.5057C107.321 46.9915 107.665 46.5909 108.105 46.304C108.548 46.0142 109.065 45.8693 109.656 45.8693C109.997 45.8693 110.334 45.9261 110.666 46.0398C110.999 46.1534 111.301 46.3381 111.574 46.5938C111.847 46.8466 112.064 47.1818 112.226 47.5994C112.388 48.017 112.469 48.5312 112.469 49.142V49.5682H107.423V48.6989H111.446C111.446 48.3295 111.372 48 111.224 47.7102C111.08 47.4205 110.872 47.1918 110.602 47.0241C110.335 46.8565 110.02 46.7727 109.656 46.7727C109.256 46.7727 108.909 46.8722 108.616 47.071C108.327 47.267 108.104 47.5227 107.947 47.8381C107.791 48.1534 107.713 48.4915 107.713 48.8523V49.4318C107.713 49.9261 107.798 50.3452 107.969 50.6889C108.142 51.0298 108.382 51.2898 108.689 51.4688C108.996 51.6449 109.352 51.733 109.759 51.733C110.023 51.733 110.261 51.696 110.474 51.6222C110.69 51.5455 110.876 51.4318 111.033 51.2812C111.189 51.1278 111.31 50.9375 111.395 50.7102L112.366 50.983C112.264 51.3125 112.092 51.6023 111.851 51.8523C111.609 52.0994 111.311 52.2926 110.956 52.4318C110.601 52.5682 110.202 52.6364 109.759 52.6364ZM113.999 52.5V45.9545H114.97V46.9432H115.038C115.158 46.6193 115.374 46.3565 115.686 46.1548C115.999 45.9531 116.351 45.8523 116.743 45.8523C116.817 45.8523 116.909 45.8537 117.02 45.8565C117.131 45.8594 117.214 45.8636 117.271 45.8693V46.892C117.237 46.8835 117.159 46.8707 117.037 46.8537C116.918 46.8338 116.791 46.8239 116.658 46.8239C116.339 46.8239 116.055 46.8906 115.805 47.0241C115.558 47.1548 115.362 47.3366 115.217 47.5696C115.075 47.7997 115.004 48.0625 115.004 48.358V52.5H113.999ZM119.31 54.9545C119.14 54.9545 118.988 54.9403 118.854 54.9119C118.721 54.8864 118.629 54.8608 118.577 54.8352L118.833 53.9489C119.077 54.0114 119.293 54.0341 119.481 54.017C119.668 54 119.835 53.9162 119.979 53.7656C120.127 53.6179 120.262 53.3778 120.384 53.0455L120.572 52.5341L118.151 45.9545H119.242L121.049 51.1705H121.117L122.924 45.9545H124.015L121.237 53.4545C121.112 53.7926 120.957 54.0724 120.772 54.294C120.587 54.5185 120.373 54.6847 120.129 54.7926C119.887 54.9006 119.614 54.9545 119.31 54.9545Z" fill="#828282"/>
</svg>
