<svg width="136" height="69" viewBox="0 0 136 69" fill="none" xmlns="http://www.w3.org/2000/svg">
<rect x="0.25" y="0.75" width="135.5" height="67.5" rx="9.75" fill="white"/>
<rect x="0.25" y="0.75" width="135.5" height="67.5" rx="9.75" stroke="#BFBFBF" stroke-width="0.5"/>
<path d="M73.9999 16.5C73.3899 16.5 72.8299 16.15 72.5499 15.61L71.8299 14.16C71.3699 13.25 70.1699 12.5 69.1499 12.5H66.8599C65.8299 12.5 64.6299 13.25 64.1699 14.16L63.4499 15.61C63.1699 16.15 62.6099 16.5 61.9999 16.5C59.8299 16.5 58.1099 18.33 58.2499 20.49L58.7699 28.75C58.8899 30.81 59.9999 32.5 62.7599 32.5H73.2399C75.9999 32.5 77.0999 30.81 77.2299 28.75L77.7499 20.49C77.8899 18.33 76.1699 16.5 73.9999 16.5ZM66.4999 17.75H69.4999C69.9099 17.75 70.2499 18.09 70.2499 18.5C70.2499 18.91 69.9099 19.25 69.4999 19.25H66.4999C66.0899 19.25 65.7499 18.91 65.7499 18.5C65.7499 18.09 66.0899 17.75 66.4999 17.75ZM67.9999 28.62C66.1399 28.62 64.6199 27.11 64.6199 25.24C64.6199 23.37 66.1299 21.86 67.9999 21.86C69.8699 21.86 71.3799 23.37 71.3799 25.24C71.3799 27.11 69.8599 28.62 67.9999 28.62Z" fill="#828282"/>
<path d="M37.438 48.1364C37.438 49.0568 37.2718 49.8523 36.9395 50.5227C36.6071 51.1932 36.1511 51.7102 35.5716 52.0739C34.992 52.4375 34.3301 52.6193 33.5858 52.6193C32.8414 52.6193 32.1795 52.4375 31.6 52.0739C31.0204 51.7102 30.5645 51.1932 30.2321 50.5227C29.8997 49.8523 29.7335 49.0568 29.7335 48.1364C29.7335 47.2159 29.8997 46.4205 30.2321 45.75C30.5645 45.0795 31.0204 44.5625 31.6 44.1989C32.1795 43.8352 32.8414 43.6534 33.5858 43.6534C34.3301 43.6534 34.992 43.8352 35.5716 44.1989C36.1511 44.5625 36.6071 45.0795 36.9395 45.75C37.2718 46.4205 37.438 47.2159 37.438 48.1364ZM36.4153 48.1364C36.4153 47.3807 36.2889 46.7429 36.036 46.223C35.786 45.7031 35.4466 45.3097 35.0176 45.0426C34.5914 44.7756 34.1142 44.642 33.5858 44.642C33.0574 44.642 32.5787 44.7756 32.1497 45.0426C31.7235 45.3097 31.3841 45.7031 31.1312 46.223C30.8812 46.7429 30.7562 47.3807 30.7562 48.1364C30.7562 48.892 30.8812 49.5298 31.1312 50.0497C31.3841 50.5696 31.7235 50.9631 32.1497 51.2301C32.5787 51.4972 33.0574 51.6307 33.5858 51.6307C34.1142 51.6307 34.5914 51.4972 35.0176 51.2301C35.4466 50.9631 35.786 50.5696 36.036 50.0497C36.2889 49.5298 36.4153 48.892 36.4153 48.1364ZM39.0787 54.9545V45.9545H40.0502V46.9943H40.1696C40.2434 46.8807 40.3457 46.7358 40.4764 46.5597C40.6099 46.3807 40.8002 46.2216 41.0474 46.0824C41.2974 45.9403 41.6355 45.8693 42.0616 45.8693C42.6127 45.8693 43.0985 46.0071 43.519 46.2827C43.9395 46.5582 44.2676 46.9489 44.5034 47.4545C44.7392 47.9602 44.8571 48.5568 44.8571 49.2443C44.8571 49.9375 44.7392 50.5384 44.5034 51.0469C44.2676 51.5526 43.9409 51.9446 43.5233 52.223C43.1056 52.4986 42.6241 52.6364 42.0787 52.6364C41.6582 52.6364 41.3216 52.5668 41.0687 52.4276C40.8159 52.2855 40.6213 52.125 40.4849 51.946C40.3485 51.7642 40.2434 51.6136 40.1696 51.4943H40.0843V54.9545H39.0787ZM40.0673 49.2273C40.0673 49.7216 40.1397 50.1577 40.2846 50.5355C40.4295 50.9105 40.6412 51.2045 40.9196 51.4176C41.198 51.6278 41.5389 51.733 41.9423 51.733C42.3627 51.733 42.7136 51.6222 42.9949 51.4006C43.2789 51.1761 43.492 50.875 43.6341 50.4972C43.7789 50.1165 43.8514 49.6932 43.8514 49.2273C43.8514 48.767 43.7804 48.3523 43.6383 47.983C43.4991 47.6108 43.2875 47.3168 43.0034 47.1009C42.7221 46.8821 42.3684 46.7727 41.9423 46.7727C41.5332 46.7727 41.1895 46.8764 40.911 47.0838C40.6326 47.2884 40.4224 47.5753 40.2804 47.9446C40.1383 48.3111 40.0673 48.7386 40.0673 49.2273ZM49.1355 52.6364C48.5048 52.6364 47.9608 52.4972 47.5034 52.2188C47.0488 51.9375 46.698 51.5455 46.4508 51.0426C46.2065 50.5369 46.0843 49.9489 46.0843 49.2784C46.0843 48.608 46.2065 48.017 46.4508 47.5057C46.698 46.9915 47.0417 46.5909 47.4821 46.304C47.9252 46.0142 48.4423 45.8693 49.0332 45.8693C49.3741 45.8693 49.7108 45.9261 50.0431 46.0398C50.3755 46.1534 50.6781 46.3381 50.9508 46.5938C51.2235 46.8466 51.4409 47.1818 51.6028 47.5994C51.7647 48.017 51.8457 48.5312 51.8457 49.142V49.5682H46.8002V48.6989H50.823C50.823 48.3295 50.7491 48 50.6014 47.7102C50.4565 47.4205 50.2491 47.1918 49.9792 47.0241C49.7122 46.8565 49.3968 46.7727 49.0332 46.7727C48.6326 46.7727 48.286 46.8722 47.9934 47.071C47.7037 47.267 47.4806 47.5227 47.3244 47.8381C47.1681 48.1534 47.09 48.4915 47.09 48.8523V49.4318C47.09 49.9261 47.1752 50.3452 47.3457 50.6889C47.519 51.0298 47.7591 51.2898 48.0659 51.4688C48.3727 51.6449 48.7292 51.733 49.1355 51.733C49.3997 51.733 49.6383 51.696 49.8514 51.6222C50.0673 51.5455 50.2534 51.4318 50.4096 51.2812C50.5659 51.1278 50.6866 50.9375 50.7718 50.7102L51.7434 50.983C51.6412 51.3125 51.4693 51.6023 51.2278 51.8523C50.9863 52.0994 50.688 52.2926 50.3329 52.4318C49.9778 52.5682 49.5787 52.6364 49.1355 52.6364ZM54.3812 48.5625V52.5H53.3755V45.9545H54.3471V46.9773H54.4324C54.5858 46.6449 54.8187 46.3778 55.1312 46.1761C55.4437 45.9716 55.8471 45.8693 56.3414 45.8693C56.7846 45.8693 57.1724 45.9602 57.5048 46.142C57.8372 46.321 58.0957 46.5938 58.2804 46.9602C58.465 47.3239 58.5574 47.7841 58.5574 48.3409V52.5H57.5517V48.4091C57.5517 47.8949 57.4181 47.4943 57.1511 47.2074C56.8841 46.9176 56.5176 46.7727 56.0517 46.7727C55.7306 46.7727 55.4437 46.8423 55.1909 46.9815C54.9409 47.1207 54.7434 47.3239 54.5985 47.5909C54.4537 47.858 54.3812 48.1818 54.3812 48.5625ZM70.9292 46.5H69.8723C69.8098 46.196 69.7005 45.929 69.5442 45.6989C69.3908 45.4688 69.2033 45.2756 68.9817 45.1193C68.763 44.9602 68.5201 44.8409 68.253 44.7614C67.986 44.6818 67.7076 44.642 67.4178 44.642C66.8894 44.642 66.4107 44.7756 65.9817 45.0426C65.5556 45.3097 65.2161 45.7031 64.9632 46.223C64.7132 46.7429 64.5882 47.3807 64.5882 48.1364C64.5882 48.892 64.7132 49.5298 64.9632 50.0497C65.2161 50.5696 65.5556 50.9631 65.9817 51.2301C66.4107 51.4972 66.8894 51.6307 67.4178 51.6307C67.7076 51.6307 67.986 51.5909 68.253 51.5114C68.5201 51.4318 68.763 51.3139 68.9817 51.1577C69.2033 50.9986 69.3908 50.804 69.5442 50.5739C69.7005 50.3409 69.8098 50.0739 69.8723 49.7727H70.9292C70.8496 50.2187 70.7047 50.6179 70.4945 50.9702C70.2843 51.3224 70.0229 51.6222 69.7104 51.8693C69.3979 52.1136 69.0471 52.2997 68.6578 52.4276C68.2715 52.5554 67.8581 52.6193 67.4178 52.6193C66.6735 52.6193 66.0115 52.4375 65.432 52.0739C64.8525 51.7102 64.3965 51.1932 64.0641 50.5227C63.7317 49.8523 63.5655 49.0568 63.5655 48.1364C63.5655 47.2159 63.7317 46.4205 64.0641 45.75C64.3965 45.0795 64.8525 44.5625 65.432 44.1989C66.0115 43.8352 66.6735 43.6534 67.4178 43.6534C67.8581 43.6534 68.2715 43.7173 68.6578 43.8452C69.0471 43.973 69.3979 44.1605 69.7104 44.4077C70.0229 44.652 70.2843 44.9503 70.4945 45.3026C70.7047 45.652 70.8496 46.0511 70.9292 46.5ZM74.4267 52.6534C74.0119 52.6534 73.6355 52.5753 73.2974 52.419C72.9593 52.2599 72.6909 52.0312 72.492 51.733C72.2931 51.4318 72.1937 51.0682 72.1937 50.642C72.1937 50.267 72.2676 49.9631 72.4153 49.7301C72.563 49.4943 72.7605 49.3097 73.0076 49.1761C73.2548 49.0426 73.5275 48.9432 73.8258 48.8778C74.127 48.8097 74.4295 48.7557 74.7335 48.7159C75.1312 48.6648 75.4537 48.6264 75.7008 48.6009C75.9508 48.5724 76.1326 48.5256 76.2463 48.4602C76.3627 48.3949 76.421 48.2812 76.421 48.1193V48.0852C76.421 47.6648 76.3059 47.3381 76.0758 47.1051C75.8485 46.8722 75.5034 46.7557 75.0403 46.7557C74.5602 46.7557 74.1838 46.8608 73.911 47.071C73.6383 47.2812 73.4466 47.5057 73.3358 47.7443L72.3812 47.4034C72.5517 47.0057 72.7789 46.696 73.063 46.4744C73.35 46.25 73.6625 46.0937 74.0005 46.0057C74.3414 45.9148 74.6767 45.8693 75.0062 45.8693C75.2164 45.8693 75.4579 45.8949 75.7306 45.946C76.0062 45.9943 76.2718 46.0952 76.5275 46.2486C76.786 46.402 77.0005 46.6335 77.171 46.9432C77.3414 47.2528 77.4267 47.6676 77.4267 48.1875V52.5H76.421V51.6136H76.3699C76.3017 51.7557 76.188 51.9077 76.0289 52.0696C75.8699 52.2315 75.6582 52.3693 75.394 52.483C75.1298 52.5966 74.8074 52.6534 74.4267 52.6534ZM74.5801 51.75C74.9778 51.75 75.313 51.6719 75.5858 51.5156C75.8613 51.3594 76.0687 51.1577 76.2079 50.9105C76.35 50.6634 76.421 50.4034 76.421 50.1307V49.2102C76.3784 49.2614 76.2846 49.3082 76.1397 49.3509C75.9977 49.3906 75.8329 49.4261 75.6454 49.4574C75.4608 49.4858 75.2804 49.5114 75.1042 49.5341C74.9309 49.554 74.7903 49.571 74.6824 49.5852C74.421 49.6193 74.1767 49.6747 73.9494 49.7514C73.725 49.8253 73.5431 49.9375 73.4039 50.0881C73.2676 50.2358 73.1994 50.4375 73.1994 50.6932C73.1994 51.0426 73.3287 51.3068 73.5872 51.4858C73.8485 51.6619 74.1795 51.75 74.5801 51.75ZM79.2623 52.5V45.9545H80.2338V46.9773H80.3191C80.4554 46.6278 80.6756 46.3565 80.9796 46.1634C81.2836 45.9673 81.6486 45.8693 82.0748 45.8693C82.5066 45.8693 82.8659 45.9673 83.1529 46.1634C83.4426 46.3565 83.6685 46.6278 83.8304 46.9773H83.8986C84.0662 46.6392 84.3176 46.3707 84.6529 46.1719C84.9881 45.9702 85.3901 45.8693 85.8588 45.8693C86.4441 45.8693 86.9228 46.0526 87.2949 46.419C87.6671 46.7827 87.8532 47.3494 87.8532 48.1193V52.5H86.8475V48.1193C86.8475 47.6364 86.7154 47.2912 86.4512 47.0838C86.187 46.8764 85.8759 46.7727 85.5179 46.7727C85.0577 46.7727 84.7012 46.9119 84.4483 47.1903C84.1955 47.4659 84.0691 47.8153 84.0691 48.2386V52.5H83.0463V48.017C83.0463 47.6449 82.9256 47.3452 82.6841 47.1179C82.4426 46.8878 82.1316 46.7727 81.7509 46.7727C81.4895 46.7727 81.2452 46.8423 81.0179 46.9815C80.7935 47.1207 80.6117 47.3139 80.4725 47.5611C80.3361 47.8054 80.2679 48.0881 80.2679 48.4091V52.5H79.2623ZM92.4363 52.6364C91.8056 52.6364 91.2615 52.4972 90.8042 52.2188C90.3496 51.9375 89.9988 51.5455 89.7516 51.0426C89.5073 50.5369 89.3851 49.9489 89.3851 49.2784C89.3851 48.608 89.5073 48.017 89.7516 47.5057C89.9988 46.9915 90.3425 46.5909 90.7828 46.304C91.226 46.0142 91.7431 45.8693 92.334 45.8693C92.6749 45.8693 93.0115 45.9261 93.3439 46.0398C93.6763 46.1534 93.9789 46.3381 94.2516 46.5938C94.5243 46.8466 94.7417 47.1818 94.9036 47.5994C95.0655 48.017 95.1465 48.5312 95.1465 49.142V49.5682H90.101V48.6989H94.1238C94.1238 48.3295 94.0499 48 93.9022 47.7102C93.7573 47.4205 93.5499 47.1918 93.28 47.0241C93.013 46.8565 92.6976 46.7727 92.334 46.7727C91.9334 46.7727 91.5868 46.8722 91.2942 47.071C91.0044 47.267 90.7814 47.5227 90.6252 47.8381C90.4689 48.1534 90.3908 48.4915 90.3908 48.8523V49.4318C90.3908 49.9261 90.476 50.3452 90.6465 50.6889C90.8198 51.0298 91.0598 51.2898 91.3667 51.4688C91.6735 51.6449 92.03 51.733 92.4363 51.733C92.7005 51.733 92.9391 51.696 93.1522 51.6222C93.3681 51.5455 93.5542 51.4318 93.7104 51.2812C93.8667 51.1278 93.9874 50.9375 94.0726 50.7102L95.0442 50.983C94.9419 51.3125 94.7701 51.6023 94.5286 51.8523C94.2871 52.0994 93.9888 52.2926 93.6337 52.4318C93.2786 52.5682 92.8794 52.6364 92.4363 52.6364ZM96.6763 52.5V45.9545H97.6479V46.9432H97.7161C97.8354 46.6193 98.0513 46.3565 98.3638 46.1548C98.6763 45.9531 99.0286 45.8523 99.4206 45.8523C99.4945 45.8523 99.5868 45.8537 99.6976 45.8565C99.8084 45.8594 99.8922 45.8636 99.949 45.8693V46.892C99.915 46.8835 99.8368 46.8707 99.7147 46.8537C99.5953 46.8338 99.4689 46.8239 99.3354 46.8239C99.0172 46.8239 98.7331 46.8906 98.4831 47.0241C98.236 47.1548 98.04 47.3366 97.8951 47.5696C97.753 47.7997 97.682 48.0625 97.682 48.358V52.5H96.6763ZM103.067 52.6534C102.653 52.6534 102.276 52.5753 101.938 52.419C101.6 52.2599 101.331 52.0312 101.133 51.733C100.934 51.4318 100.834 51.0682 100.834 50.642C100.834 50.267 100.908 49.9631 101.056 49.7301C101.204 49.4943 101.401 49.3097 101.648 49.1761C101.895 49.0426 102.168 48.9432 102.466 48.8778C102.768 48.8097 103.07 48.7557 103.374 48.7159C103.772 48.6648 104.094 48.6264 104.341 48.6009C104.591 48.5724 104.773 48.5256 104.887 48.4602C105.003 48.3949 105.062 48.2812 105.062 48.1193V48.0852C105.062 47.6648 104.947 47.3381 104.716 47.1051C104.489 46.8722 104.144 46.7557 103.681 46.7557C103.201 46.7557 102.824 46.8608 102.552 47.071C102.279 47.2812 102.087 47.5057 101.976 47.7443L101.022 47.4034C101.192 47.0057 101.42 46.696 101.704 46.4744C101.991 46.25 102.303 46.0937 102.641 46.0057C102.982 45.9148 103.317 45.8693 103.647 45.8693C103.857 45.8693 104.099 45.8949 104.371 45.946C104.647 45.9943 104.912 46.0952 105.168 46.2486C105.427 46.402 105.641 46.6335 105.812 46.9432C105.982 47.2528 106.067 47.6676 106.067 48.1875V52.5H105.062V51.6136H105.01C104.942 51.7557 104.829 51.9077 104.67 52.0696C104.51 52.2315 104.299 52.3693 104.035 52.483C103.77 52.5966 103.448 52.6534 103.067 52.6534ZM103.221 51.75C103.618 51.75 103.954 51.6719 104.226 51.5156C104.502 51.3594 104.709 51.1577 104.849 50.9105C104.991 50.6634 105.062 50.4034 105.062 50.1307V49.2102C105.019 49.2614 104.925 49.3082 104.78 49.3509C104.638 49.3906 104.474 49.4261 104.286 49.4574C104.101 49.4858 103.921 49.5114 103.745 49.5341C103.572 49.554 103.431 49.571 103.323 49.5852C103.062 49.6193 102.817 49.6747 102.59 49.7514C102.366 49.8253 102.184 49.9375 102.045 50.0881C101.908 50.2358 101.84 50.4375 101.84 50.6932C101.84 51.0426 101.969 51.3068 102.228 51.4858C102.489 51.6619 102.82 51.75 103.221 51.75Z" fill="#828282"/>
</svg>
