<svg width="390" height="22" viewBox="0 0 390 22" fill="none" xmlns="http://www.w3.org/2000/svg">
<line y1="10.75" x2="136.5" y2="10.75" stroke="#BFBFBF" stroke-width="0.5"/>
<path d="M148.676 16.1591C147.987 16.1591 147.382 15.995 146.862 15.6669C146.344 15.3388 145.94 14.8797 145.648 14.2898C145.36 13.6998 145.216 13.0104 145.216 12.2216C145.216 11.4261 145.36 10.7318 145.648 10.1385C145.94 9.54522 146.344 9.08452 146.862 8.75639C147.382 8.42827 147.987 8.2642 148.676 8.2642C149.366 8.2642 149.969 8.42827 150.486 8.75639C151.006 9.08452 151.411 9.54522 151.699 10.1385C151.991 10.7318 152.136 11.4261 152.136 12.2216C152.136 13.0104 151.991 13.6998 151.699 14.2898C151.411 14.8797 151.006 15.3388 150.486 15.6669C149.969 15.995 149.366 16.1591 148.676 16.1591ZM148.676 15.1051C149.2 15.1051 149.631 14.9709 149.969 14.7024C150.307 14.4339 150.557 14.081 150.719 13.6435C150.882 13.206 150.963 12.732 150.963 12.2216C150.963 11.7112 150.882 11.2356 150.719 10.7947C150.557 10.3539 150.307 9.99763 149.969 9.72585C149.631 9.45407 149.2 9.31818 148.676 9.31818C148.152 9.31818 147.722 9.45407 147.384 9.72585C147.045 9.99763 146.795 10.3539 146.633 10.7947C146.47 11.2356 146.389 11.7112 146.389 12.2216C146.389 12.732 146.47 13.206 146.633 13.6435C146.795 14.081 147.045 14.4339 147.384 14.7024C147.722 14.9709 148.152 15.1051 148.676 15.1051ZM153.927 16V8.36364H155.061V9.51705H155.14C155.28 9.1392 155.532 8.83262 155.896 8.5973C156.261 8.36198 156.672 8.24432 157.129 8.24432C157.215 8.24432 157.323 8.24597 157.452 8.24929C157.581 8.2526 157.679 8.25758 157.746 8.2642V9.45739C157.706 9.44744 157.615 9.43253 157.472 9.41264C157.333 9.38944 157.185 9.37784 157.03 9.37784C156.658 9.37784 156.327 9.45573 156.035 9.61151C155.747 9.76397 155.518 9.97609 155.349 10.2479C155.184 10.5163 155.101 10.8229 155.101 11.1676V16H153.927ZM163.074 16V8.36364H164.207V9.51705H164.287C164.426 9.1392 164.678 8.83262 165.043 8.5973C165.407 8.36198 165.818 8.24432 166.276 8.24432C166.362 8.24432 166.469 8.24597 166.599 8.24929C166.728 8.2526 166.826 8.25758 166.892 8.2642V9.45739C166.852 9.44744 166.761 9.43253 166.619 9.41264C166.479 9.38944 166.332 9.37784 166.176 9.37784C165.805 9.37784 165.473 9.45573 165.182 9.61151C164.893 9.76397 164.665 9.97609 164.496 10.2479C164.33 10.5163 164.247 10.8229 164.247 11.1676V16H163.074ZM171.252 16.1591C170.516 16.1591 169.882 15.9967 169.348 15.6719C168.818 15.3438 168.408 14.8864 168.12 14.2997C167.835 13.7098 167.692 13.0237 167.692 12.2415C167.692 11.4593 167.835 10.7699 168.12 10.1733C168.408 9.57339 168.809 9.10606 169.323 8.77131C169.84 8.43324 170.443 8.2642 171.133 8.2642C171.531 8.2642 171.923 8.33049 172.311 8.46307C172.699 8.59564 173.052 8.81108 173.37 9.10938C173.688 9.40436 173.942 9.79545 174.131 10.2827C174.32 10.7699 174.414 11.3698 174.414 12.0824V12.5795H168.528V11.5653H173.221C173.221 11.1345 173.135 10.75 172.962 10.4119C172.793 10.0739 172.551 9.80705 172.237 9.61151C171.925 9.41596 171.557 9.31818 171.133 9.31818C170.665 9.31818 170.261 9.43419 169.92 9.66619C169.582 9.89489 169.321 10.1932 169.139 10.5611C168.957 10.929 168.866 11.3234 168.866 11.7443V12.4205C168.866 12.9972 168.965 13.486 169.164 13.8871C169.366 14.2848 169.646 14.5881 170.004 14.7969C170.362 15.0024 170.778 15.1051 171.252 15.1051C171.56 15.1051 171.839 15.062 172.087 14.9759C172.339 14.8864 172.556 14.7538 172.739 14.5781C172.921 14.3991 173.062 14.1771 173.161 13.9119L174.295 14.2301C174.175 14.6146 173.975 14.9527 173.693 15.2443C173.411 15.5327 173.063 15.758 172.649 15.9205C172.235 16.0795 171.769 16.1591 171.252 16.1591ZM179.281 19.0227C178.714 19.0227 178.227 18.9498 177.82 18.804C177.412 18.6615 177.072 18.4725 176.8 18.2372C176.532 18.0052 176.318 17.7566 176.159 17.4915L177.094 16.8352C177.2 16.9744 177.334 17.1335 177.496 17.3125C177.659 17.4948 177.881 17.6522 178.163 17.7848C178.448 17.9207 178.821 17.9886 179.281 17.9886C179.898 17.9886 180.406 17.8395 180.808 17.5412C181.209 17.2429 181.409 16.7756 181.409 16.1392V14.5881H181.31C181.223 14.7273 181.101 14.8996 180.942 15.1051C180.786 15.3073 180.561 15.4879 180.266 15.647C179.974 15.8028 179.58 15.8807 179.082 15.8807C178.466 15.8807 177.912 15.7348 177.422 15.4432C176.935 15.1515 176.549 14.7273 176.263 14.1705C175.982 13.6136 175.841 12.9375 175.841 12.142C175.841 11.3598 175.978 10.6787 176.254 10.0987C176.529 9.51539 176.911 9.06463 177.402 8.74645C177.893 8.42495 178.459 8.2642 179.102 8.2642C179.599 8.2642 179.994 8.34706 180.286 8.51278C180.58 8.67519 180.806 8.8608 180.962 9.0696C181.121 9.27509 181.243 9.44413 181.33 9.5767H181.449V8.36364H182.582V16.2188C182.582 16.875 182.433 17.4086 182.135 17.8196C181.84 18.2339 181.442 18.5372 180.942 18.7294C180.445 18.925 179.891 19.0227 179.281 19.0227ZM179.241 14.8267C179.712 14.8267 180.11 14.719 180.435 14.5036C180.759 14.2881 181.006 13.9782 181.175 13.5739C181.344 13.1695 181.429 12.6856 181.429 12.1222C181.429 11.572 181.346 11.0864 181.18 10.6655C181.015 10.2446 180.769 9.91477 180.445 9.67614C180.12 9.4375 179.719 9.31818 179.241 9.31818C178.744 9.31818 178.33 9.44413 177.999 9.69602C177.67 9.94792 177.424 10.286 177.258 10.7102C177.095 11.1345 177.014 11.6051 177.014 12.1222C177.014 12.6525 177.097 13.1214 177.263 13.5291C177.432 13.9335 177.68 14.2517 178.009 14.4837C178.34 14.7124 178.751 14.8267 179.241 14.8267ZM184.73 16V8.36364H185.903V16H184.73ZM185.327 7.09091C185.098 7.09091 184.901 7.01302 184.735 6.85724C184.573 6.70147 184.491 6.5142 184.491 6.29545C184.491 6.0767 184.573 5.88944 184.735 5.73366C184.901 5.57789 185.098 5.5 185.327 5.5C185.555 5.5 185.751 5.57789 185.913 5.73366C186.079 5.88944 186.162 6.0767 186.162 6.29545C186.162 6.5142 186.079 6.70147 185.913 6.85724C185.751 7.01302 185.555 7.09091 185.327 7.09091ZM193.461 10.0739L192.407 10.3722C192.341 10.1965 192.243 10.0258 192.114 9.86009C191.988 9.69105 191.816 9.55185 191.597 9.44247C191.378 9.3331 191.098 9.27841 190.757 9.27841C190.29 9.27841 189.9 9.38613 189.589 9.60156C189.28 9.81368 189.126 10.0838 189.126 10.4119C189.126 10.7036 189.232 10.9339 189.444 11.103C189.657 11.272 189.988 11.4129 190.439 11.5256L191.572 11.804C192.255 11.9697 192.764 12.2232 193.099 12.5646C193.433 12.9027 193.601 13.3385 193.601 13.8722C193.601 14.3097 193.475 14.7008 193.223 15.0455C192.974 15.3902 192.626 15.6619 192.179 15.8608C191.731 16.0597 191.211 16.1591 190.618 16.1591C189.839 16.1591 189.194 15.9901 188.684 15.652C188.173 15.3139 187.85 14.8201 187.714 14.1705L188.828 13.892C188.934 14.303 189.135 14.6113 189.43 14.8168C189.728 15.0223 190.117 15.125 190.598 15.125C191.145 15.125 191.579 15.009 191.9 14.777C192.225 14.5417 192.388 14.2599 192.388 13.9318C192.388 13.6667 192.295 13.4446 192.109 13.2656C191.924 13.0833 191.639 12.9474 191.254 12.858L189.981 12.5597C189.282 12.3939 188.768 12.1371 188.44 11.7891C188.115 11.4377 187.953 10.9986 187.953 10.4716C187.953 10.0407 188.074 9.65956 188.316 9.32812C188.561 8.99669 188.894 8.73651 189.315 8.54758C189.739 8.35866 190.22 8.2642 190.757 8.2642C191.513 8.2642 192.106 8.42992 192.537 8.76136C192.971 9.0928 193.279 9.5303 193.461 10.0739ZM198.688 8.36364V9.35795H194.73V8.36364H198.688ZM195.884 6.53409H197.057V13.8125C197.057 14.1439 197.105 14.3925 197.201 14.5582C197.301 14.7206 197.427 14.83 197.579 14.8864C197.735 14.9394 197.899 14.9659 198.071 14.9659C198.201 14.9659 198.307 14.9593 198.39 14.946C198.472 14.9295 198.539 14.9162 198.588 14.9062L198.827 15.9602C198.748 15.9901 198.636 16.0199 198.494 16.0497C198.351 16.0829 198.171 16.0994 197.952 16.0994C197.621 16.0994 197.296 16.0282 196.978 15.8857C196.663 15.7431 196.401 15.526 196.192 15.2344C195.987 14.9427 195.884 14.5748 195.884 14.1307V6.53409ZM203.572 16.1591C202.837 16.1591 202.202 15.9967 201.668 15.6719C201.138 15.3438 200.729 14.8864 200.44 14.2997C200.155 13.7098 200.013 13.0237 200.013 12.2415C200.013 11.4593 200.155 10.7699 200.44 10.1733C200.729 9.57339 201.13 9.10606 201.643 8.77131C202.161 8.43324 202.764 8.2642 203.453 8.2642C203.851 8.2642 204.244 8.33049 204.631 8.46307C205.019 8.59564 205.372 8.81108 205.69 9.10938C206.009 9.40436 206.262 9.79545 206.451 10.2827C206.64 10.7699 206.734 11.3698 206.734 12.0824V12.5795H200.848V11.5653H205.541C205.541 11.1345 205.455 10.75 205.283 10.4119C205.114 10.0739 204.872 9.80705 204.557 9.61151C204.245 9.41596 203.877 9.31818 203.453 9.31818C202.986 9.31818 202.581 9.43419 202.24 9.66619C201.902 9.89489 201.642 10.1932 201.46 10.5611C201.277 10.929 201.186 11.3234 201.186 11.7443V12.4205C201.186 12.9972 201.286 13.486 201.484 13.8871C201.687 14.2848 201.967 14.5881 202.325 14.7969C202.683 15.0024 203.098 15.1051 203.572 15.1051C203.881 15.1051 204.159 15.062 204.408 14.9759C204.66 14.8864 204.877 14.7538 205.059 14.5781C205.241 14.3991 205.382 14.1771 205.482 13.9119L206.615 14.2301C206.496 14.6146 206.295 14.9527 206.013 15.2443C205.732 15.5327 205.384 15.758 204.969 15.9205C204.555 16.0795 204.089 16.1591 203.572 16.1591ZM208.519 16V8.36364H209.653V9.51705H209.732C209.871 9.1392 210.123 8.83262 210.488 8.5973C210.853 8.36198 211.263 8.24432 211.721 8.24432C211.807 8.24432 211.915 8.24597 212.044 8.24929C212.173 8.2526 212.271 8.25758 212.337 8.2642V9.45739C212.298 9.44744 212.206 9.43253 212.064 9.41264C211.925 9.38944 211.777 9.37784 211.621 9.37784C211.25 9.37784 210.919 9.45573 210.627 9.61151C210.339 9.76397 210.11 9.97609 209.941 10.2479C209.775 10.5163 209.692 10.8229 209.692 11.1676V16H208.519ZM219.396 16L217.069 8.36364H218.302L219.953 14.2102H220.032L221.663 8.36364H222.916L224.526 14.1903H224.606L226.257 8.36364H227.49L225.163 16H224.009L222.339 10.1335H222.22L220.549 16H219.396ZM229.041 16V8.36364H230.214V16H229.041ZM229.637 7.09091C229.409 7.09091 229.211 7.01302 229.046 6.85724C228.883 6.70147 228.802 6.5142 228.802 6.29545C228.802 6.0767 228.883 5.88944 229.046 5.73366C229.211 5.57789 229.409 5.5 229.637 5.5C229.866 5.5 230.061 5.57789 230.224 5.73366C230.39 5.88944 230.472 6.0767 230.472 6.29545C230.472 6.5142 230.39 6.70147 230.224 6.85724C230.061 7.01302 229.866 7.09091 229.637 7.09091ZM235.684 8.36364V9.35795H231.727V8.36364H235.684ZM232.88 6.53409H234.053V13.8125C234.053 14.1439 234.101 14.3925 234.197 14.5582C234.297 14.7206 234.423 14.83 234.575 14.8864C234.731 14.9394 234.895 14.9659 235.067 14.9659C235.197 14.9659 235.303 14.9593 235.386 14.946C235.469 14.9295 235.535 14.9162 235.585 14.9062L235.823 15.9602C235.744 15.9901 235.633 16.0199 235.49 16.0497C235.348 16.0829 235.167 16.0994 234.948 16.0994C234.617 16.0994 234.292 16.0282 233.974 15.8857C233.659 15.7431 233.397 15.526 233.188 15.2344C232.983 14.9427 232.88 14.5748 232.88 14.1307V6.53409ZM238.786 11.4062V16H237.613V5.81818H238.786V9.55682H238.886C239.065 9.16241 239.333 8.84919 239.691 8.61719C240.052 8.38187 240.533 8.2642 241.133 8.2642C241.653 8.2642 242.109 8.36861 242.5 8.57741C242.891 8.78291 243.194 9.09943 243.41 9.52699C243.629 9.95123 243.738 10.4915 243.738 11.1477V16H242.565V11.2273C242.565 10.6207 242.407 10.1518 242.092 9.82031C241.781 9.48556 241.348 9.31818 240.795 9.31818C240.41 9.31818 240.066 9.39938 239.761 9.56179C239.459 9.72419 239.22 9.96117 239.045 10.2727C238.872 10.5843 238.786 10.9621 238.786 11.4062Z" fill="#828282"/>
<line x1="253.5" y1="10.75" x2="390" y2="10.75" stroke="#BFBFBF" stroke-width="0.5"/>
</svg>
