<svg width="327" height="17" viewBox="0 0 327 17" fill="none" xmlns="http://www.w3.org/2000/svg">
<line y1="8" x2="133" y2="8" stroke="#DEDEDE"/>
<path d="M161.035 13.182C160.391 13.182 159.803 13.0163 159.271 12.685C158.744 12.3537 158.322 11.9103 158.004 11.355C157.692 10.795 157.535 10.1767 157.535 9.5C157.535 8.98667 157.626 8.50833 157.808 8.065C157.99 7.617 158.24 7.225 158.557 6.889C158.879 6.54833 159.253 6.28233 159.677 6.091C160.102 5.89967 160.555 5.804 161.035 5.804C161.679 5.804 162.265 5.96967 162.792 6.301C163.324 6.63233 163.747 7.078 164.059 7.638C164.377 8.198 164.535 8.81867 164.535 9.5C164.535 10.0087 164.444 10.4847 164.262 10.928C164.08 11.3713 163.828 11.7633 163.506 12.104C163.189 12.44 162.818 12.7037 162.393 12.895C161.973 13.0863 161.521 13.182 161.035 13.182ZM161.035 12.202C161.511 12.202 161.938 12.0783 162.316 11.831C162.699 11.579 163 11.2477 163.219 10.837C163.443 10.4263 163.555 9.98067 163.555 9.5C163.555 9.01 163.443 8.55967 163.219 8.149C162.995 7.73367 162.692 7.40233 162.309 7.155C161.931 6.90767 161.507 6.784 161.035 6.784C160.559 6.784 160.13 6.91 159.747 7.162C159.369 7.40933 159.068 7.73833 158.844 8.149C158.625 8.55967 158.515 9.01 158.515 9.5C158.515 10.004 158.63 10.4613 158.858 10.872C159.087 11.278 159.393 11.6023 159.775 11.845C160.158 12.083 160.578 12.202 161.035 12.202ZM165.721 13V6H166.701V6.966C166.948 6.61133 167.27 6.329 167.667 6.119C168.064 5.909 168.495 5.804 168.962 5.804C169.233 5.804 169.494 5.839 169.746 5.909L169.347 6.882C169.151 6.82133 168.96 6.791 168.773 6.791C168.395 6.791 168.047 6.88433 167.73 7.071C167.417 7.25767 167.168 7.50733 166.981 7.82C166.794 8.13267 166.701 8.48033 166.701 8.863V13H165.721Z" fill="#777777"/>
<line x1="194" y1="8" x2="327" y2="8" stroke="#DEDEDE"/>
</svg>
