<svg width="327" height="56" viewBox="0 0 327 56" fill="none" xmlns="http://www.w3.org/2000/svg">
<rect x="0.5" y="0.5" width="326" height="55" rx="27.5" fill="white"/>
<rect x="0.5" y="0.5" width="326" height="55" rx="27.5" stroke="#A0A0A0"/>
<path d="M97.4131 33.5V22.3H101.413C102.021 22.3 102.57 22.452 103.061 22.756C103.557 23.06 103.949 23.468 104.237 23.98C104.525 24.492 104.669 25.0547 104.669 25.668C104.669 26.2973 104.52 26.868 104.221 27.38C103.928 27.8867 103.533 28.292 103.037 28.596C102.541 28.8947 102 29.044 101.413 29.044H99.3651V33.5H97.4131ZM99.3651 27.092H101.205C101.482 27.092 101.736 27.0227 101.965 26.884C102.194 26.7453 102.376 26.5587 102.509 26.324C102.648 26.0893 102.717 25.828 102.717 25.54C102.717 25.2467 102.648 24.9827 102.509 24.748C102.376 24.5133 102.194 24.3267 101.965 24.188C101.736 24.0493 101.482 23.98 101.205 23.98H99.3651V27.092ZM113.46 28.444V33.5H111.508V28.956C111.508 28.6413 111.431 28.356 111.276 28.1C111.121 27.8387 110.913 27.6333 110.652 27.484C110.396 27.3293 110.111 27.252 109.796 27.252C109.481 27.252 109.193 27.3293 108.932 27.484C108.676 27.6333 108.471 27.8387 108.316 28.1C108.167 28.356 108.092 28.6413 108.092 28.956V33.5H106.14L106.132 21.5H108.084L108.092 26.212C108.364 25.924 108.689 25.6973 109.068 25.532C109.447 25.3613 109.855 25.276 110.292 25.276C110.873 25.276 111.404 25.42 111.884 25.708C112.364 25.9907 112.745 26.372 113.028 26.852C113.316 27.3267 113.46 27.8573 113.46 28.444ZM118.418 33.708C117.682 33.708 117.01 33.5187 116.402 33.14C115.799 32.7613 115.316 32.2547 114.954 31.62C114.596 30.98 114.418 30.2733 114.418 29.5C114.418 28.9133 114.522 28.3667 114.73 27.86C114.938 27.348 115.223 26.9 115.586 26.516C115.954 26.1267 116.38 25.8227 116.866 25.604C117.351 25.3853 117.868 25.276 118.418 25.276C119.154 25.276 119.823 25.4653 120.426 25.844C121.034 26.2227 121.516 26.732 121.874 27.372C122.236 28.012 122.418 28.7213 122.418 29.5C122.418 30.0813 122.314 30.6253 122.106 31.132C121.898 31.6387 121.61 32.0867 121.242 32.476C120.879 32.86 120.455 33.1613 119.97 33.38C119.49 33.5987 118.972 33.708 118.418 33.708ZM118.418 31.756C118.807 31.756 119.156 31.652 119.466 31.444C119.775 31.236 120.018 30.9613 120.194 30.62C120.375 30.2787 120.466 29.9053 120.466 29.5C120.466 29.084 120.372 28.7053 120.186 28.364C120.004 28.0173 119.756 27.7427 119.442 27.54C119.132 27.332 118.791 27.228 118.418 27.228C118.034 27.228 117.687 27.332 117.378 27.54C117.068 27.748 116.823 28.0253 116.642 28.372C116.46 28.7187 116.37 29.0947 116.37 29.5C116.37 29.9213 116.463 30.3027 116.65 30.644C116.836 30.9853 117.084 31.2573 117.394 31.46C117.708 31.6573 118.05 31.756 118.418 31.756ZM130.991 28.444V33.5H129.039V28.956C129.039 28.6413 128.962 28.356 128.807 28.1C128.652 27.8387 128.444 27.6333 128.183 27.484C127.927 27.3293 127.642 27.252 127.327 27.252C127.012 27.252 126.724 27.3293 126.463 27.484C126.207 27.6333 126.002 27.8387 125.847 28.1C125.698 28.356 125.623 28.6413 125.623 28.956V33.5H123.671L123.663 25.5H125.615L125.623 26.212C125.895 25.924 126.22 25.6973 126.599 25.532C126.978 25.3613 127.386 25.276 127.823 25.276C128.404 25.276 128.935 25.42 129.415 25.708C129.895 25.9907 130.276 26.372 130.559 26.852C130.847 27.3267 130.991 27.8573 130.991 28.444ZM135.949 33.708C135.213 33.708 134.541 33.5187 133.933 33.14C133.33 32.7613 132.847 32.252 132.485 31.612C132.127 30.972 131.949 30.2653 131.949 29.492C131.949 28.9107 132.053 28.3667 132.261 27.86C132.469 27.348 132.754 26.9 133.117 26.516C133.485 26.1267 133.911 25.8227 134.397 25.604C134.882 25.3853 135.399 25.276 135.949 25.276C136.573 25.276 137.143 25.4093 137.661 25.676C138.183 25.9373 138.626 26.2973 138.989 26.756C139.351 27.2147 139.615 27.7373 139.781 28.324C139.946 28.9107 139.983 29.524 139.893 30.164H134.045C134.119 30.4627 134.242 30.732 134.413 30.972C134.583 31.2067 134.799 31.396 135.061 31.54C135.322 31.6787 135.618 31.7507 135.949 31.756C136.29 31.7613 136.599 31.6813 136.877 31.516C137.159 31.3453 137.394 31.116 137.581 30.828L139.573 31.292C139.247 32.0013 138.762 32.5827 138.117 33.036C137.471 33.484 136.749 33.708 135.949 33.708ZM133.981 28.7H137.917C137.858 28.38 137.733 28.092 137.541 27.836C137.354 27.5747 137.122 27.3667 136.845 27.212C136.567 27.0573 136.269 26.98 135.949 26.98C135.629 26.98 135.333 27.0573 135.061 27.212C134.789 27.3613 134.557 27.5667 134.365 27.828C134.178 28.084 134.05 28.3747 133.981 28.7ZM145.226 33.5V22.3H147.338L152.066 29.972V22.3H154.018V33.5H151.914L147.178 25.828V33.5H145.226ZM155.624 30.54V25.5H157.576V30.028C157.576 30.3427 157.654 30.6307 157.808 30.892C157.963 31.148 158.168 31.3533 158.424 31.508C158.686 31.6573 158.971 31.732 159.28 31.732C159.6 31.732 159.888 31.6573 160.144 31.508C160.4 31.3533 160.606 31.148 160.76 30.892C160.915 30.6307 160.992 30.3427 160.992 30.028V25.5H162.944L162.952 33.5H161L160.992 32.772C160.715 33.06 160.387 33.2893 160.008 33.46C159.63 33.6253 159.224 33.708 158.792 33.708C158.211 33.708 157.68 33.5667 157.2 33.284C156.72 32.996 156.336 32.6147 156.048 32.14C155.766 31.66 155.624 31.1267 155.624 30.54ZM164.554 33.5V25.5H166.506V26.212C166.778 25.924 167.103 25.6973 167.482 25.532C167.86 25.3613 168.268 25.276 168.706 25.276C169.26 25.276 169.77 25.4067 170.234 25.668C170.703 25.9293 171.076 26.2787 171.354 26.716C171.636 26.2787 172.01 25.9293 172.474 25.668C172.938 25.4067 173.447 25.276 174.002 25.276C174.588 25.276 175.119 25.42 175.594 25.708C176.074 25.9907 176.455 26.372 176.738 26.852C177.026 27.3267 177.17 27.8573 177.17 28.444V33.5H175.218V28.964C175.218 28.6547 175.14 28.372 174.986 28.116C174.836 27.8547 174.634 27.6467 174.378 27.492C174.127 27.332 173.844 27.252 173.53 27.252C173.215 27.252 172.93 27.3293 172.674 27.484C172.423 27.6333 172.22 27.836 172.066 28.092C171.911 28.348 171.834 28.6387 171.834 28.964V33.5H169.882V28.964C169.882 28.6387 169.807 28.348 169.658 28.092C169.508 27.836 169.306 27.6333 169.05 27.484C168.794 27.3293 168.508 27.252 168.194 27.252C167.884 27.252 167.602 27.332 167.346 27.492C167.09 27.6467 166.884 27.8547 166.73 28.116C166.58 28.372 166.506 28.6547 166.506 28.964V33.5H164.554ZM183.075 25.276C183.854 25.276 184.563 25.4653 185.203 25.844C185.843 26.2227 186.353 26.732 186.731 27.372C187.11 28.0067 187.299 28.7107 187.299 29.484C187.299 30.0653 187.19 30.612 186.971 31.124C186.753 31.636 186.449 32.0867 186.059 32.476C185.675 32.86 185.227 33.1613 184.715 33.38C184.209 33.5987 183.662 33.708 183.075 33.708C182.574 33.708 182.129 33.596 181.739 33.372C181.355 33.1427 181.033 32.8467 180.771 32.484V33.5H178.819V21.5H180.771V26.5C181.033 26.1373 181.355 25.844 181.739 25.62C182.129 25.3907 182.574 25.276 183.075 25.276ZM183.051 31.82C183.467 31.82 183.843 31.716 184.179 31.508C184.521 31.2947 184.793 31.012 184.995 30.66C185.198 30.308 185.299 29.916 185.299 29.484C185.299 29.0573 185.198 28.668 184.995 28.316C184.793 27.9587 184.521 27.676 184.179 27.468C183.838 27.26 183.462 27.156 183.051 27.156C182.646 27.156 182.283 27.2627 181.963 27.476C181.643 27.684 181.393 27.9667 181.211 28.324C181.03 28.676 180.939 29.0627 180.939 29.484C180.939 29.916 181.03 30.3107 181.211 30.668C181.393 31.02 181.643 31.3 181.963 31.508C182.283 31.716 182.646 31.82 183.051 31.82ZM192.105 33.708C191.369 33.708 190.697 33.5187 190.089 33.14C189.486 32.7613 189.004 32.252 188.641 31.612C188.284 30.972 188.105 30.2653 188.105 29.492C188.105 28.9107 188.209 28.3667 188.417 27.86C188.625 27.348 188.91 26.9 189.273 26.516C189.641 26.1267 190.068 25.8227 190.553 25.604C191.038 25.3853 191.556 25.276 192.105 25.276C192.729 25.276 193.3 25.4093 193.817 25.676C194.34 25.9373 194.782 26.2973 195.145 26.756C195.508 27.2147 195.772 27.7373 195.937 28.324C196.102 28.9107 196.14 29.524 196.049 30.164H190.201C190.276 30.4627 190.398 30.732 190.569 30.972C190.74 31.2067 190.956 31.396 191.217 31.54C191.478 31.6787 191.774 31.7507 192.105 31.756C192.446 31.7613 192.756 31.6813 193.033 31.516C193.316 31.3453 193.55 31.116 193.737 30.828L195.729 31.292C195.404 32.0013 194.918 32.5827 194.273 33.036C193.628 33.484 192.905 33.708 192.105 33.708ZM190.137 28.7H194.073C194.014 28.38 193.889 28.092 193.697 27.836C193.51 27.5747 193.278 27.3667 193.001 27.212C192.724 27.0573 192.425 26.98 192.105 26.98C191.785 26.98 191.489 27.0573 191.217 27.212C190.945 27.3613 190.713 27.5667 190.521 27.828C190.334 28.084 190.206 28.3747 190.137 28.7ZM197.359 33.5L197.351 25.5H199.303L199.311 26.212C199.583 25.924 199.908 25.6973 200.287 25.532C200.665 25.3613 201.073 25.276 201.511 25.276C201.804 25.276 202.097 25.3187 202.391 25.404L201.623 27.372C201.42 27.292 201.217 27.252 201.015 27.252C200.7 27.252 200.412 27.3293 200.151 27.484C199.895 27.6333 199.689 27.8387 199.535 28.1C199.385 28.356 199.311 28.6413 199.311 28.956V33.5H197.359Z" fill="#262626"/>
<path d="M229.308 33.275C229.308 33.575 229.242 33.8833 229.1 34.1833C228.958 34.4833 228.775 34.7667 228.533 35.0333C228.125 35.4833 227.675 35.8083 227.167 36.0167C226.667 36.225 226.125 36.3333 225.542 36.3333C224.692 36.3333 223.783 36.1333 222.825 35.725C221.867 35.3167 220.908 34.7667 219.958 34.075C219 33.375 218.092 32.6 217.225 31.7417C216.367 30.875 215.592 29.9667 214.9 29.0167C214.217 28.0667 213.667 27.1167 213.267 26.175C212.867 25.225 212.667 24.3167 212.667 23.45C212.667 22.8833 212.767 22.3417 212.967 21.8417C213.167 21.3333 213.483 20.8667 213.925 20.45C214.458 19.925 215.042 19.6667 215.658 19.6667C215.892 19.6667 216.125 19.7167 216.333 19.8167C216.55 19.9167 216.742 20.0667 216.892 20.2833L218.825 23.0083C218.975 23.2167 219.083 23.4083 219.158 23.5917C219.233 23.7667 219.275 23.9417 219.275 24.1C219.275 24.3 219.217 24.5 219.1 24.6917C218.992 24.8833 218.833 25.0833 218.633 25.2833L218 25.9417C217.908 26.0333 217.867 26.1417 217.867 26.275C217.867 26.3417 217.875 26.4 217.892 26.4667C217.917 26.5333 217.942 26.5833 217.958 26.6333C218.108 26.9083 218.367 27.2667 218.733 27.7C219.108 28.1333 219.508 28.575 219.942 29.0167C220.392 29.4583 220.825 29.8667 221.267 30.2417C221.7 30.6083 222.058 30.8583 222.342 31.0083C222.383 31.025 222.433 31.05 222.492 31.075C222.558 31.1 222.625 31.1083 222.7 31.1083C222.842 31.1083 222.95 31.0583 223.042 30.9667L223.675 30.3417C223.883 30.1333 224.083 29.975 224.275 29.875C224.467 29.7583 224.658 29.7 224.867 29.7C225.025 29.7 225.192 29.7333 225.375 29.8083C225.558 29.8833 225.75 29.9917 225.958 30.1333L228.717 32.0917C228.933 32.2417 229.083 32.4167 229.175 32.625C229.258 32.8333 229.308 33.0417 229.308 33.275Z" stroke="#262626" stroke-width="1.5" stroke-miterlimit="10"/>
</svg>
