<svg width="80" height="24" viewBox="0 0 80 24" fill="none" xmlns="http://www.w3.org/2000/svg">
<rect width="80" height="24" rx="4" fill="#FF9807"/>
<path d="M9.05682 16V7.27273H12.0057C12.6903 7.27273 13.25 7.39631 13.6847 7.64347C14.1222 7.88778 14.446 8.21875 14.6562 8.63636C14.8665 9.05398 14.9716 9.51989 14.9716 10.0341C14.9716 10.5483 14.8665 11.0156 14.6562 11.4361C14.4489 11.8565 14.1278 12.1918 13.6932 12.4418C13.2585 12.6889 12.7017 12.8125 12.0227 12.8125H9.90909V11.875H11.9886C12.4574 11.875 12.8338 11.794 13.1179 11.6321C13.402 11.4702 13.608 11.2514 13.7358 10.9759C13.8665 10.6974 13.9318 10.3835 13.9318 10.0341C13.9318 9.68466 13.8665 9.37216 13.7358 9.09659C13.608 8.82102 13.4006 8.60511 13.1136 8.44886C12.8267 8.28977 12.446 8.21023 11.9716 8.21023H10.1136V16H9.05682ZM19.1264 16.1364C18.5355 16.1364 18.017 15.9957 17.571 15.7145C17.1278 15.4332 16.7812 15.0398 16.5312 14.5341C16.2841 14.0284 16.1605 13.4375 16.1605 12.7614C16.1605 12.0795 16.2841 11.4844 16.5312 10.9759C16.7812 10.4673 17.1278 10.0724 17.571 9.79119C18.017 9.50994 18.5355 9.36932 19.1264 9.36932C19.7173 9.36932 20.2344 9.50994 20.6776 9.79119C21.1236 10.0724 21.4702 10.4673 21.7173 10.9759C21.9673 11.4844 22.0923 12.0795 22.0923 12.7614C22.0923 13.4375 21.9673 14.0284 21.7173 14.5341C21.4702 15.0398 21.1236 15.4332 20.6776 15.7145C20.2344 15.9957 19.7173 16.1364 19.1264 16.1364ZM19.1264 15.233C19.5753 15.233 19.9446 15.1179 20.2344 14.8878C20.5241 14.6577 20.7386 14.3551 20.8778 13.9801C21.017 13.6051 21.0866 13.1989 21.0866 12.7614C21.0866 12.3239 21.017 11.9162 20.8778 11.5384C20.7386 11.1605 20.5241 10.8551 20.2344 10.6222C19.9446 10.3892 19.5753 10.2727 19.1264 10.2727C18.6776 10.2727 18.3082 10.3892 18.0185 10.6222C17.7287 10.8551 17.5142 11.1605 17.375 11.5384C17.2358 11.9162 17.1662 12.3239 17.1662 12.7614C17.1662 13.1989 17.2358 13.6051 17.375 13.9801C17.5142 14.3551 17.7287 14.6577 18.0185 14.8878C18.3082 15.1179 18.6776 15.233 19.1264 15.233ZM23.6275 18.4545V9.45455H24.5991V10.4943H24.7184C24.7923 10.3807 24.8945 10.2358 25.0252 10.0597C25.1587 9.88068 25.3491 9.72159 25.5962 9.58239C25.8462 9.44034 26.1843 9.36932 26.6104 9.36932C27.1616 9.36932 27.6474 9.5071 28.0678 9.78267C28.4883 10.0582 28.8164 10.4489 29.0522 10.9545C29.288 11.4602 29.4059 12.0568 29.4059 12.7443C29.4059 13.4375 29.288 14.0384 29.0522 14.5469C28.8164 15.0526 28.4897 15.4446 28.0721 15.723C27.6545 15.9986 27.1729 16.1364 26.6275 16.1364C26.207 16.1364 25.8704 16.0668 25.6175 15.9276C25.3647 15.7855 25.1701 15.625 25.0337 15.446C24.8974 15.2642 24.7923 15.1136 24.7184 14.9943H24.6332V18.4545H23.6275ZM24.6161 12.7273C24.6161 13.2216 24.6886 13.6577 24.8335 14.0355C24.9783 14.4105 25.19 14.7045 25.4684 14.9176C25.7468 15.1278 26.0877 15.233 26.4911 15.233C26.9116 15.233 27.2624 15.1222 27.5437 14.9006C27.8278 14.6761 28.0408 14.375 28.1829 13.9972C28.3278 13.6165 28.4002 13.1932 28.4002 12.7273C28.4002 12.267 28.3292 11.8523 28.1871 11.483C28.0479 11.1108 27.8363 10.8168 27.5522 10.6009C27.271 10.3821 26.9173 10.2727 26.4911 10.2727C26.082 10.2727 25.7383 10.3764 25.4599 10.5838C25.1815 10.7884 24.9712 11.0753 24.8292 11.4446C24.6871 11.8111 24.6161 12.2386 24.6161 12.7273ZM35.065 13.3239V9.45455H36.0707V16H35.065V14.892H34.9968C34.8434 15.2244 34.6048 15.5071 34.2809 15.7401C33.957 15.9702 33.5479 16.0852 33.0536 16.0852C32.6445 16.0852 32.2809 15.9957 31.9627 15.8168C31.6445 15.6349 31.3945 15.3622 31.2127 14.9986C31.0309 14.6321 30.94 14.1705 30.94 13.6136V9.45455H31.9457V13.5455C31.9457 14.0227 32.0792 14.4034 32.3462 14.6875C32.6161 14.9716 32.9599 15.1136 33.3775 15.1136C33.6275 15.1136 33.8817 15.0497 34.1403 14.9219C34.4016 14.794 34.6204 14.598 34.7965 14.3338C34.9755 14.0696 35.065 13.733 35.065 13.3239ZM38.9183 7.27273V16H37.9126V7.27273H38.9183ZM42.6864 16.1534C42.2717 16.1534 41.8952 16.0753 41.5572 15.919C41.2191 15.7599 40.9506 15.5312 40.7518 15.233C40.5529 14.9318 40.4535 14.5682 40.4535 14.142C40.4535 13.767 40.5273 13.4631 40.6751 13.2301C40.8228 12.9943 41.0202 12.8097 41.2674 12.6761C41.5146 12.5426 41.7873 12.4432 42.0856 12.3778C42.3867 12.3097 42.6893 12.2557 42.9933 12.2159C43.391 12.1648 43.7134 12.1264 43.9606 12.1009C44.2106 12.0724 44.3924 12.0256 44.506 11.9602C44.6225 11.8949 44.6808 11.7812 44.6808 11.6193V11.5852C44.6808 11.1648 44.5657 10.8381 44.3356 10.6051C44.1083 10.3722 43.7631 10.2557 43.3001 10.2557C42.82 10.2557 42.4435 10.3608 42.1708 10.571C41.8981 10.7812 41.7063 11.0057 41.5955 11.2443L40.641 10.9034C40.8114 10.5057 41.0387 10.196 41.3228 9.97443C41.6097 9.75 41.9222 9.59375 42.2603 9.50568C42.6012 9.41477 42.9364 9.36932 43.266 9.36932C43.4762 9.36932 43.7177 9.39489 43.9904 9.44602C44.266 9.49432 44.5316 9.59517 44.7873 9.74858C45.0458 9.90199 45.2603 10.1335 45.4308 10.4432C45.6012 10.7528 45.6864 11.1676 45.6864 11.6875V16H44.6808V15.1136H44.6296C44.5614 15.2557 44.4478 15.4077 44.2887 15.5696C44.1296 15.7315 43.918 15.8693 43.6538 15.983C43.3896 16.0966 43.0671 16.1534 42.6864 16.1534ZM42.8398 15.25C43.2376 15.25 43.5728 15.1719 43.8455 15.0156C44.1211 14.8594 44.3285 14.6577 44.4677 14.4105C44.6097 14.1634 44.6808 13.9034 44.6808 13.6307V12.7102C44.6381 12.7614 44.5444 12.8082 44.3995 12.8509C44.2575 12.8906 44.0927 12.9261 43.9052 12.9574C43.7205 12.9858 43.5401 13.0114 43.364 13.0341C43.1907 13.054 43.0501 13.071 42.9421 13.0852C42.6808 13.1193 42.4364 13.1747 42.2092 13.2514C41.9847 13.3253 41.8029 13.4375 41.6637 13.5881C41.5273 13.7358 41.4592 13.9375 41.4592 14.1932C41.4592 14.5426 41.5884 14.8068 41.8469 14.9858C42.1083 15.1619 42.4393 15.25 42.8398 15.25ZM47.522 16V9.45455H48.4936V10.4432H48.5618C48.6811 10.1193 48.897 9.85653 49.2095 9.65483C49.522 9.45312 49.8743 9.35227 50.2663 9.35227C50.3402 9.35227 50.4325 9.35369 50.5433 9.35653C50.6541 9.35937 50.7379 9.36364 50.7947 9.36932V10.392C50.7607 10.3835 50.6825 10.3707 50.5604 10.3537C50.4411 10.3338 50.3146 10.3239 50.1811 10.3239C49.8629 10.3239 49.5788 10.3906 49.3288 10.5241C49.0817 10.6548 48.8857 10.8366 48.7408 11.0696C48.5987 11.2997 48.5277 11.5625 48.5277 11.858V16H47.522Z" fill="white"/>
<path d="M65.1533 6.34001L66.3266 8.68668C66.4866 9.01334 66.9133 9.32668 67.2733 9.38668L69.3999 9.74001C70.7599 9.96668 71.0799 10.9533 70.0999 11.9267L68.4466 13.58C68.1666 13.86 68.0133 14.4 68.0999 14.7867L68.5733 16.8333C68.9466 18.4533 68.0866 19.08 66.6533 18.2333L64.6599 17.0533C64.2999 16.84 63.7066 16.84 63.3399 17.0533L61.3466 18.2333C59.9199 19.08 59.0533 18.4467 59.4266 16.8333L59.8999 14.7867C59.9866 14.4 59.8333 13.86 59.5533 13.58L57.8999 11.9267C56.9266 10.9533 57.2399 9.96668 58.5999 9.74001L60.7266 9.38668C61.0799 9.32668 61.5066 9.01334 61.6666 8.68668L62.8399 6.34001C63.4799 5.06668 64.5199 5.06668 65.1533 6.34001Z" fill="white"/>
</svg>
