<svg width="395" height="54" viewBox="0 0 395 54" fill="none" xmlns="http://www.w3.org/2000/svg">
<rect x="0.25" y="0.25" width="394.5" height="53.5" rx="9.75" fill="#F8F8F8"/>
<rect x="0.25" y="0.25" width="394.5" height="53.5" rx="9.75" stroke="#BFBFBF" stroke-width="0.5"/>
<path d="M23.6668 33C27.1646 33 30.0002 30.1645 30.0002 26.6667C30.0002 23.1689 27.1646 20.3333 23.6668 20.3333C20.169 20.3333 17.3335 23.1689 17.3335 26.6667C17.3335 30.1645 20.169 33 23.6668 33Z" stroke="#828282" stroke-width="1.5" stroke-linecap="round" stroke-linejoin="round"/>
<path d="M30.6668 33.6667L29.3335 32.3333" stroke="#828282" stroke-width="1.5" stroke-linecap="round" stroke-linejoin="round"/>
<path d="M44.8011 24.3636C44.7415 23.8598 44.4995 23.4688 44.0753 23.1903C43.651 22.9119 43.1307 22.7727 42.5142 22.7727C42.0634 22.7727 41.669 22.8456 41.331 22.9915C40.9962 23.1373 40.7344 23.3378 40.5455 23.593C40.3598 23.8482 40.267 24.1383 40.267 24.4631C40.267 24.7348 40.3317 24.9685 40.4609 25.1641C40.5935 25.3563 40.7625 25.517 40.968 25.6463C41.1735 25.7723 41.389 25.8767 41.6143 25.9595C41.8397 26.0391 42.0469 26.1037 42.2358 26.1534L43.2699 26.4318C43.535 26.5014 43.83 26.5975 44.1548 26.7202C44.483 26.8428 44.7962 27.0102 45.0945 27.2223C45.3961 27.4311 45.6446 27.6996 45.8402 28.0277C46.0357 28.3558 46.1335 28.7585 46.1335 29.2358C46.1335 29.786 45.9893 30.2831 45.701 30.7273C45.416 31.1714 44.9983 31.5244 44.4482 31.7862C43.9013 32.0481 43.2367 32.179 42.4545 32.179C41.7254 32.179 41.094 32.0613 40.5604 31.826C40.0301 31.5907 39.6125 31.2625 39.3075 30.8416C39.0059 30.4207 38.8352 29.9318 38.7955 29.375H40.0682C40.1013 29.7595 40.2306 30.0777 40.456 30.3295C40.6847 30.5781 40.973 30.7637 41.321 30.8864C41.6723 31.0057 42.0502 31.0653 42.4545 31.0653C42.9252 31.0653 43.3478 30.9891 43.7223 30.8366C44.0968 30.6809 44.3935 30.4654 44.6122 30.1903C44.831 29.9119 44.9403 29.5871 44.9403 29.2159C44.9403 28.8778 44.8459 28.6027 44.657 28.3906C44.468 28.1785 44.2195 28.0062 43.9112 27.8736C43.603 27.741 43.2699 27.625 42.9119 27.5256L41.6591 27.1676C40.8636 26.9389 40.2339 26.6125 39.7699 26.1882C39.3059 25.764 39.0739 25.2088 39.0739 24.5227C39.0739 23.9527 39.228 23.4555 39.5362 23.0312C39.8478 22.6037 40.2654 22.2723 40.7891 22.0369C41.3161 21.7983 41.9044 21.679 42.554 21.679C43.2102 21.679 43.7936 21.7966 44.304 22.032C44.8144 22.264 45.2188 22.5821 45.517 22.9865C45.8187 23.3909 45.9777 23.8499 45.9943 24.3636H44.8011ZM51.2033 32.1591C50.4675 32.1591 49.8328 31.9967 49.2992 31.6719C48.7689 31.3438 48.3596 30.8864 48.0712 30.2997C47.7862 29.7098 47.6436 29.0237 47.6436 28.2415C47.6436 27.4593 47.7862 26.7699 48.0712 26.1733C48.3596 25.5734 48.7606 25.1061 49.2743 24.7713C49.7914 24.4332 50.3946 24.2642 51.084 24.2642C51.4817 24.2642 51.8745 24.3305 52.2623 24.4631C52.65 24.5956 53.003 24.8111 53.3212 25.1094C53.6394 25.4044 53.8929 25.7955 54.0819 26.2827C54.2708 26.7699 54.3652 27.3698 54.3652 28.0824V28.5795H48.4789V27.5653H53.1721C53.1721 27.1345 53.0859 26.75 52.9135 26.4119C52.7445 26.0739 52.5025 25.8071 52.1877 25.6115C51.8761 25.416 51.5082 25.3182 51.084 25.3182C50.6167 25.3182 50.2123 25.4342 49.8709 25.6662C49.5328 25.8949 49.2727 26.1932 49.0904 26.5611C48.9081 26.929 48.8169 27.3234 48.8169 27.7443V28.4205C48.8169 28.9972 48.9164 29.486 49.1152 29.8871C49.3174 30.2848 49.5975 30.5881 49.9554 30.7969C50.3134 31.0024 50.7293 31.1051 51.2033 31.1051C51.5115 31.1051 51.79 31.062 52.0385 30.9759C52.2904 30.8864 52.5075 30.7538 52.6898 30.5781C52.8721 30.3991 53.013 30.1771 53.1124 29.9119L54.2459 30.2301C54.1266 30.6146 53.9261 30.9527 53.6444 31.2443C53.3626 31.5327 53.0146 31.758 52.6003 31.9205C52.186 32.0795 51.7203 32.1591 51.2033 32.1591ZM58.3972 32.179C57.9133 32.179 57.4741 32.0878 57.0797 31.9055C56.6853 31.7199 56.3721 31.4531 56.1401 31.1051C55.9081 30.7538 55.7921 30.3295 55.7921 29.8324C55.7921 29.3949 55.8783 29.0402 56.0506 28.7685C56.223 28.4934 56.4533 28.2779 56.7417 28.1222C57.03 27.9664 57.3482 27.8504 57.6962 27.7741C58.0475 27.6946 58.4005 27.6316 58.7551 27.5852C59.2192 27.5256 59.5953 27.4808 59.8837 27.451C60.1754 27.4179 60.3875 27.3632 60.5201 27.2869C60.656 27.2107 60.7239 27.0781 60.7239 26.8892V26.8494C60.7239 26.3589 60.5897 25.9777 60.3212 25.706C60.056 25.4342 59.6534 25.2983 59.1131 25.2983C58.553 25.2983 58.1138 25.4209 57.7956 25.6662C57.4775 25.9115 57.2537 26.1733 57.1245 26.4517L56.0108 26.054C56.2097 25.59 56.4748 25.2287 56.8063 24.9702C57.141 24.7083 57.5056 24.526 57.9 24.4233C58.2978 24.3172 58.6889 24.2642 59.0733 24.2642C59.3186 24.2642 59.6003 24.294 59.9185 24.3537C60.24 24.41 60.5499 24.5277 60.8482 24.7067C61.1498 24.8857 61.4 25.1558 61.5989 25.517C61.7978 25.8783 61.8972 26.3622 61.8972 26.9688V32H60.7239V30.9659H60.6642C60.5847 31.1316 60.4521 31.3089 60.2665 31.4979C60.0809 31.6868 59.834 31.8475 59.5257 31.9801C59.2175 32.1127 58.8413 32.179 58.3972 32.179ZM58.5762 31.125C59.0402 31.125 59.4313 31.0339 59.7495 30.8516C60.071 30.6693 60.3129 30.4339 60.4753 30.1456C60.641 29.8572 60.7239 29.554 60.7239 29.2358V28.1619C60.6742 28.2216 60.5648 28.2763 60.3958 28.326C60.2301 28.3724 60.0378 28.4138 59.8191 28.4503C59.6036 28.4834 59.3932 28.5133 59.1877 28.5398C58.9855 28.563 58.8214 28.5829 58.6955 28.5994C58.3906 28.6392 58.1055 28.7038 57.8404 28.7933C57.5785 28.8795 57.3664 29.0104 57.204 29.1861C57.0449 29.3584 56.9654 29.5937 56.9654 29.892C56.9654 30.2997 57.1162 30.608 57.4178 30.8168C57.7227 31.0223 58.1088 31.125 58.5762 31.125ZM64.0387 32V24.3636H65.1722V25.517H65.2518C65.391 25.1392 65.6429 24.8326 66.0075 24.5973C66.372 24.362 66.783 24.2443 67.2404 24.2443C67.3266 24.2443 67.4343 24.246 67.5636 24.2493C67.6928 24.2526 67.7906 24.2576 67.8569 24.2642V25.4574C67.8171 25.4474 67.726 25.4325 67.5835 25.4126C67.4442 25.3894 67.2968 25.3778 67.141 25.3778C66.7698 25.3778 66.4383 25.4557 66.1467 25.6115C65.8583 25.764 65.6296 25.9761 65.4606 26.2479C65.2949 26.5163 65.212 26.8229 65.212 27.1676V32H64.0387ZM72.1175 32.1591C71.4016 32.1591 70.7852 31.9901 70.2681 31.652C69.7511 31.3139 69.3533 30.8482 69.0749 30.255C68.7965 29.6617 68.6573 28.9839 68.6573 28.2216C68.6573 27.446 68.7998 26.7616 69.0849 26.1683C69.3732 25.5717 69.7743 25.1061 70.288 24.7713C70.805 24.4332 71.4083 24.2642 72.0977 24.2642C72.6346 24.2642 73.1185 24.3636 73.5494 24.5625C73.9802 24.7614 74.3332 25.0398 74.6083 25.3977C74.8834 25.7557 75.0541 26.1733 75.1204 26.6506H73.9471C73.8576 26.3026 73.6587 25.9943 73.3505 25.7259C73.0456 25.4541 72.6346 25.3182 72.1175 25.3182C71.6602 25.3182 71.2591 25.4375 70.9144 25.6761C70.573 25.9115 70.3062 26.2446 70.114 26.6754C69.9251 27.103 69.8306 27.6051 69.8306 28.1818C69.8306 28.7718 69.9234 29.2855 70.109 29.723C70.2979 30.1605 70.5631 30.5002 70.9045 30.7422C71.2492 30.9841 71.6535 31.1051 72.1175 31.1051C72.4225 31.1051 72.6992 31.0521 72.9478 30.946C73.1964 30.84 73.4068 30.6875 73.5792 30.4886C73.7515 30.2898 73.8742 30.0511 73.9471 29.7727H75.1204C75.0541 30.2235 74.89 30.6295 74.6282 30.9908C74.3697 31.3487 74.0266 31.6338 73.5991 31.8459C73.1748 32.0547 72.681 32.1591 72.1175 32.1591ZM78.0089 27.4062V32H76.8356V21.8182H78.0089V25.5568H78.1083C78.2873 25.1624 78.5558 24.8492 78.9137 24.6172C79.275 24.3819 79.7556 24.2642 80.3555 24.2642C80.8758 24.2642 81.3316 24.3686 81.7227 24.5774C82.1138 24.7829 82.417 25.0994 82.6325 25.527C82.8512 25.9512 82.9606 26.4915 82.9606 27.1477V32H81.7873V27.2273C81.7873 26.6207 81.6299 26.1518 81.315 25.8203C81.0034 25.4856 80.5709 25.3182 80.0174 25.3182C79.6329 25.3182 79.2882 25.3994 78.9833 25.5618C78.6817 25.7242 78.4431 25.9612 78.2674 26.2727C78.0951 26.5843 78.0089 26.9621 78.0089 27.4062ZM85.9622 32.0795C85.7169 32.0795 85.5065 31.9917 85.3308 31.8161C85.1551 31.6404 85.0673 31.4299 85.0673 31.1847C85.0673 30.9394 85.1551 30.7289 85.3308 30.5533C85.5065 30.3776 85.7169 30.2898 85.9622 30.2898C86.2074 30.2898 86.4179 30.3776 86.5936 30.5533C86.7692 30.7289 86.8571 30.9394 86.8571 31.1847C86.8571 31.3471 86.8156 31.4962 86.7328 31.6321C86.6532 31.768 86.5455 31.8774 86.4096 31.9602C86.277 32.0398 86.1279 32.0795 85.9622 32.0795ZM89.8176 32.0795C89.5724 32.0795 89.3619 31.9917 89.1863 31.8161C89.0106 31.6404 88.9228 31.4299 88.9228 31.1847C88.9228 30.9394 89.0106 30.7289 89.1863 30.5533C89.3619 30.3776 89.5724 30.2898 89.8176 30.2898C90.0629 30.2898 90.2734 30.3776 90.449 30.5533C90.6247 30.7289 90.7125 30.9394 90.7125 31.1847C90.7125 31.3471 90.6711 31.4962 90.5882 31.6321C90.5087 31.768 90.401 31.8774 90.2651 31.9602C90.1325 32.0398 89.9834 32.0795 89.8176 32.0795ZM93.6731 32.0795C93.4279 32.0795 93.2174 31.9917 93.0417 31.8161C92.8661 31.6404 92.7782 31.4299 92.7782 31.1847C92.7782 30.9394 92.8661 30.7289 93.0417 30.5533C93.2174 30.3776 93.4279 30.2898 93.6731 30.2898C93.9184 30.2898 94.1288 30.3776 94.3045 30.5533C94.4802 30.7289 94.568 30.9394 94.568 31.1847C94.568 31.3471 94.5266 31.4962 94.4437 31.6321C94.3642 31.768 94.2565 31.8774 94.1206 31.9602C93.988 32.0398 93.8388 32.0795 93.6731 32.0795Z" fill="#717171"/>
<path d="M146.731 29.9254C146.712 29.9706 146.68 30.0092 146.639 30.0364C146.598 30.0635 146.55 30.0781 146.501 30.0781H135.5C135.451 30.0782 135.403 30.0638 135.362 30.0366C135.321 30.0095 135.289 29.9708 135.27 29.9255C135.251 29.8802 135.245 29.8302 135.254 29.7818C135.263 29.7335 135.287 29.6889 135.321 29.6536L140.821 23.9969C140.844 23.9729 140.872 23.9539 140.903 23.9409C140.934 23.9278 140.967 23.9211 141 23.9211C141.034 23.9211 141.067 23.9278 141.098 23.9409C141.128 23.9539 141.156 23.9729 141.179 23.9969L146.679 29.6539C146.714 29.6891 146.737 29.7337 146.746 29.7819C146.755 29.8302 146.75 29.8801 146.73 29.9254H146.731Z" fill="#828282"/>
<line x1="162.25" y1="15" x2="162.25" y2="39" stroke="#828282" stroke-width="0.5"/>
<path fill-rule="evenodd" clip-rule="evenodd" d="M182.832 19.668C180.35 19.668 178.332 21.704 178.332 24.2153C178.332 25.066 178.707 26.1213 179.252 27.174C180.453 29.492 182.453 31.8266 182.453 31.8266C182.5 31.8813 182.558 31.9252 182.623 31.9552C182.689 31.9853 182.76 32.0009 182.832 32.0009C182.904 32.0009 182.975 31.9853 183.041 31.9552C183.106 31.9252 183.164 31.8813 183.211 31.8266C183.211 31.8266 185.211 29.492 186.412 27.174C186.957 26.1213 187.332 25.066 187.332 24.2153C187.332 21.704 185.314 19.668 182.832 19.668ZM182.832 22.3346C182.354 22.3475 181.901 22.5463 181.567 22.8887C181.234 23.2311 181.047 23.6901 181.047 24.168C181.047 24.6458 181.234 25.1048 181.567 25.4472C181.901 25.7896 182.354 25.9884 182.832 26.0013C183.31 25.9884 183.763 25.7896 184.097 25.4472C184.43 25.1048 184.617 24.6458 184.617 24.168C184.617 23.6901 184.43 23.2311 184.097 22.8887C183.763 22.5463 183.31 22.3475 182.832 22.3346Z" fill="#828282"/>
<path fill-rule="evenodd" clip-rule="evenodd" d="M186.023 30.4206C186.565 30.5833 187.011 30.7846 187.32 31.0206C187.52 31.1726 187.667 31.3213 187.667 31.5026C187.667 31.6093 187.606 31.7059 187.521 31.8026C187.379 31.9619 187.169 32.1053 186.909 32.2386C185.991 32.7086 184.505 33.0026 182.833 33.0026C181.161 33.0026 179.676 32.7086 178.757 32.2386C178.497 32.1053 178.287 31.9619 178.146 31.8026C178.061 31.7059 178 31.6093 178 31.5026C178 31.3213 178.147 31.1726 178.347 31.0206C178.655 30.7846 179.102 30.5833 179.644 30.4206C179.771 30.3824 179.878 30.2953 179.941 30.1785C180.003 30.0616 180.017 29.9246 179.979 29.7976C179.941 29.6705 179.854 29.5639 179.737 29.5011C179.62 29.4382 179.483 29.4244 179.356 29.4626C178.531 29.7113 177.889 30.0519 177.504 30.4286C177.165 30.7586 177 31.1279 177 31.5026C177 31.9706 177.265 32.4373 177.803 32.8266C178.747 33.5093 180.643 34.0026 182.833 34.0026C185.024 34.0026 186.92 33.5093 187.864 32.8266C188.402 32.4373 188.667 31.9706 188.667 31.5026C188.667 31.1279 188.501 30.7586 188.163 30.4286C187.777 30.0519 187.136 29.7113 186.311 29.4626C186.248 29.4437 186.182 29.4373 186.116 29.4439C186.051 29.4505 185.988 29.4699 185.93 29.5011C185.872 29.5322 185.821 29.5744 185.779 29.6252C185.738 29.6761 185.707 29.7347 185.688 29.7976C185.669 29.8605 185.662 29.9265 185.669 29.9919C185.676 30.0572 185.695 30.1206 185.726 30.1785C185.757 30.2363 185.799 30.2875 185.85 30.329C185.901 30.3706 185.96 30.4017 186.023 30.4206Z" fill="#828282"/>
<path d="M196.233 32V21.8182H197.466V30.9062H202.199V32H196.233ZM207.051 32.1591C206.362 32.1591 205.757 31.995 205.237 31.6669C204.719 31.3388 204.315 30.8797 204.023 30.2898C203.735 29.6998 203.591 29.0104 203.591 28.2216C203.591 27.4261 203.735 26.7318 204.023 26.1385C204.315 25.5452 204.719 25.0845 205.237 24.7564C205.757 24.4283 206.362 24.2642 207.051 24.2642C207.741 24.2642 208.344 24.4283 208.861 24.7564C209.381 25.0845 209.786 25.5452 210.074 26.1385C210.366 26.7318 210.511 27.4261 210.511 28.2216C210.511 29.0104 210.366 29.6998 210.074 30.2898C209.786 30.8797 209.381 31.3388 208.861 31.6669C208.344 31.995 207.741 32.1591 207.051 32.1591ZM207.051 31.1051C207.575 31.1051 208.006 30.9709 208.344 30.7024C208.682 30.4339 208.932 30.081 209.094 29.6435C209.257 29.206 209.338 28.732 209.338 28.2216C209.338 27.7112 209.257 27.2356 209.094 26.7947C208.932 26.3539 208.682 25.9976 208.344 25.7259C208.006 25.4541 207.575 25.3182 207.051 25.3182C206.527 25.3182 206.097 25.4541 205.759 25.7259C205.42 25.9976 205.17 26.3539 205.008 26.7947C204.845 27.2356 204.764 27.7112 204.764 28.2216C204.764 28.732 204.845 29.206 205.008 29.6435C205.17 30.081 205.42 30.4339 205.759 30.7024C206.097 30.9709 206.527 31.1051 207.051 31.1051ZM215.405 32.1591C214.689 32.1591 214.072 31.9901 213.555 31.652C213.038 31.3139 212.64 30.8482 212.362 30.255C212.084 29.6617 211.944 28.9839 211.944 28.2216C211.944 27.446 212.087 26.7616 212.372 26.1683C212.66 25.5717 213.061 25.1061 213.575 24.7713C214.092 24.4332 214.695 24.2642 215.385 24.2642C215.922 24.2642 216.406 24.3636 216.836 24.5625C217.267 24.7614 217.62 25.0398 217.895 25.3977C218.171 25.7557 218.341 26.1733 218.407 26.6506H217.234C217.145 26.3026 216.946 25.9943 216.638 25.7259C216.333 25.4541 215.922 25.3182 215.405 25.3182C214.947 25.3182 214.546 25.4375 214.202 25.6761C213.86 25.9115 213.593 26.2446 213.401 26.6754C213.212 27.103 213.118 27.6051 213.118 28.1818C213.118 28.7718 213.211 29.2855 213.396 29.723C213.585 30.1605 213.85 30.5002 214.192 30.7422C214.536 30.9841 214.941 31.1051 215.405 31.1051C215.71 31.1051 215.986 31.0521 216.235 30.946C216.483 30.84 216.694 30.6875 216.866 30.4886C217.039 30.2898 217.161 30.0511 217.234 29.7727H218.407C218.341 30.2235 218.177 30.6295 217.915 30.9908C217.657 31.3487 217.314 31.6338 216.886 31.8459C216.462 32.0547 215.968 32.1591 215.405 32.1591ZM222.37 32.179C221.886 32.179 221.447 32.0878 221.052 31.9055C220.658 31.7199 220.345 31.4531 220.113 31.1051C219.881 30.7538 219.765 30.3295 219.765 29.8324C219.765 29.3949 219.851 29.0402 220.023 28.7685C220.196 28.4934 220.426 28.2779 220.714 28.1222C221.003 27.9664 221.321 27.8504 221.669 27.7741C222.02 27.6946 222.373 27.6316 222.728 27.5852C223.192 27.5256 223.568 27.4808 223.856 27.451C224.148 27.4179 224.36 27.3632 224.493 27.2869C224.629 27.2107 224.697 27.0781 224.697 26.8892V26.8494C224.697 26.3589 224.562 25.9777 224.294 25.706C224.029 25.4342 223.626 25.2983 223.086 25.2983C222.526 25.2983 222.086 25.4209 221.768 25.6662C221.45 25.9115 221.226 26.1733 221.097 26.4517L219.983 26.054C220.182 25.59 220.448 25.2287 220.779 24.9702C221.114 24.7083 221.478 24.526 221.873 24.4233C222.27 24.3172 222.662 24.2642 223.046 24.2642C223.291 24.2642 223.573 24.294 223.891 24.3537C224.213 24.41 224.523 24.5277 224.821 24.7067C225.122 24.8857 225.373 25.1558 225.572 25.517C225.77 25.8783 225.87 26.3622 225.87 26.9688V32H224.697V30.9659H224.637C224.557 31.1316 224.425 31.3089 224.239 31.4979C224.054 31.6868 223.807 31.8475 223.498 31.9801C223.19 32.1127 222.814 32.179 222.37 32.179ZM222.549 31.125C223.013 31.125 223.404 31.0339 223.722 30.8516C224.044 30.6693 224.286 30.4339 224.448 30.1456C224.614 29.8572 224.697 29.554 224.697 29.2358V28.1619C224.647 28.2216 224.537 28.2763 224.368 28.326C224.203 28.3724 224.01 28.4138 223.792 28.4503C223.576 28.4834 223.366 28.5133 223.16 28.5398C222.958 28.563 222.794 28.5829 222.668 28.5994C222.363 28.6392 222.078 28.7038 221.813 28.7933C221.551 28.8795 221.339 29.0104 221.177 29.1861C221.018 29.3584 220.938 29.5937 220.938 29.892C220.938 30.2997 221.089 30.608 221.39 30.8168C221.695 31.0223 222.081 31.125 222.549 31.125ZM231.332 24.3636V25.358H227.375V24.3636H231.332ZM228.528 22.5341H229.702V29.8125C229.702 30.1439 229.75 30.3925 229.846 30.5582C229.945 30.7206 230.071 30.83 230.224 30.8864C230.379 30.9394 230.544 30.9659 230.716 30.9659C230.845 30.9659 230.951 30.9593 231.034 30.946C231.117 30.9295 231.183 30.9162 231.233 30.9062L231.472 31.9602C231.392 31.9901 231.281 32.0199 231.138 32.0497C230.996 32.0829 230.815 32.0994 230.597 32.0994C230.265 32.0994 229.94 32.0282 229.622 31.8857C229.307 31.7431 229.045 31.526 228.837 31.2344C228.631 30.9427 228.528 30.5748 228.528 30.1307V22.5341ZM233.097 32V24.3636H234.271V32H233.097ZM233.694 23.0909C233.465 23.0909 233.268 23.013 233.102 22.8572C232.94 22.7015 232.859 22.5142 232.859 22.2955C232.859 22.0767 232.94 21.8894 233.102 21.7337C233.268 21.5779 233.465 21.5 233.694 21.5C233.923 21.5 234.118 21.5779 234.281 21.7337C234.446 21.8894 234.529 22.0767 234.529 22.2955C234.529 22.5142 234.446 22.7015 234.281 22.8572C234.118 23.013 233.923 23.0909 233.694 23.0909ZM239.522 32.1591C238.832 32.1591 238.228 31.995 237.707 31.6669C237.19 31.3388 236.786 30.8797 236.494 30.2898C236.206 29.6998 236.062 29.0104 236.062 28.2216C236.062 27.4261 236.206 26.7318 236.494 26.1385C236.786 25.5452 237.19 25.0845 237.707 24.7564C238.228 24.4283 238.832 24.2642 239.522 24.2642C240.211 24.2642 240.814 24.4283 241.331 24.7564C241.852 25.0845 242.256 25.5452 242.545 26.1385C242.836 26.7318 242.982 27.4261 242.982 28.2216C242.982 29.0104 242.836 29.6998 242.545 30.2898C242.256 30.8797 241.852 31.3388 241.331 31.6669C240.814 31.995 240.211 32.1591 239.522 32.1591ZM239.522 31.1051C240.046 31.1051 240.476 30.9709 240.814 30.7024C241.153 30.4339 241.403 30.081 241.565 29.6435C241.728 29.206 241.809 28.732 241.809 28.2216C241.809 27.7112 241.728 27.2356 241.565 26.7947C241.403 26.3539 241.153 25.9976 240.814 25.7259C240.476 25.4541 240.046 25.3182 239.522 25.3182C238.998 25.3182 238.567 25.4541 238.229 25.7259C237.891 25.9976 237.641 26.3539 237.479 26.7947C237.316 27.2356 237.235 27.7112 237.235 28.2216C237.235 28.732 237.316 29.206 237.479 29.6435C237.641 30.081 237.891 30.4339 238.229 30.7024C238.567 30.9709 238.998 31.1051 239.522 31.1051ZM245.946 27.4062V32H244.773V24.3636H245.907V25.5568H246.006C246.185 25.169 246.457 24.8575 246.821 24.6222C247.186 24.3835 247.657 24.2642 248.233 24.2642C248.75 24.2642 249.203 24.3703 249.591 24.5824C249.978 24.7912 250.28 25.1094 250.495 25.5369C250.711 25.9612 250.819 26.4981 250.819 27.1477V32H249.645V27.2273C249.645 26.6274 249.489 26.16 249.178 25.8253C248.866 25.4872 248.439 25.3182 247.895 25.3182C247.521 25.3182 247.186 25.3994 246.891 25.5618C246.599 25.7242 246.369 25.9612 246.2 26.2727C246.031 26.5843 245.946 26.9621 245.946 27.4062Z" fill="#717171"/>
<path d="M317.731 29.9254C317.712 29.9706 317.68 30.0092 317.639 30.0364C317.598 30.0635 317.55 30.0781 317.501 30.0781H306.5C306.451 30.0782 306.403 30.0638 306.362 30.0366C306.321 30.0095 306.289 29.9708 306.27 29.9255C306.251 29.8802 306.245 29.8302 306.254 29.7818C306.263 29.7335 306.287 29.6889 306.321 29.6536L311.821 23.9969C311.844 23.9729 311.872 23.9539 311.903 23.9409C311.934 23.9278 311.967 23.9211 312 23.9211C312.034 23.9211 312.067 23.9278 312.098 23.9409C312.128 23.9539 312.156 23.9729 312.179 23.9969L317.679 29.6539C317.714 29.6891 317.737 29.7337 317.746 29.7819C317.755 29.8302 317.75 29.8801 317.73 29.9254H317.731Z" fill="#828282"/>
<path d="M331 0H385C390.523 0 395 4.47715 395 10V44C395 49.5228 390.523 54 385 54H331V0Z" fill="url(#paint0_linear_4029_3614)"/>
<path d="M357.171 33C357.583 31.8348 358.694 31 360 31C361.306 31 362.417 31.8348 362.829 33H373V35H362.829C362.417 36.1652 361.306 37 360 37C358.694 37 357.583 36.1652 357.171 35H353V33H357.171ZM363.171 26C363.583 24.8348 364.694 24 366 24C367.306 24 368.418 24.8348 368.829 26H373V28H368.829C368.418 29.1652 367.306 30 366 30C364.694 30 363.583 29.1652 363.171 28H353V26H363.171ZM357.171 19C357.583 17.8348 358.694 17 360 17C361.306 17 362.417 17.8348 362.829 19H373V21H362.829C362.417 22.1652 361.306 23 360 23C358.694 23 357.583 22.1652 357.171 21H353V19H357.171ZM360 21C360.552 21 361 20.5523 361 20C361 19.4477 360.552 19 360 19C359.448 19 359 19.4477 359 20C359 20.5523 359.448 21 360 21ZM366 28C366.552 28 367 27.5523 367 27C367 26.4477 366.552 26 366 26C365.448 26 365 26.4477 365 27C365 27.5523 365.448 28 366 28ZM360 35C360.552 35 361 34.5523 361 34C361 33.4477 360.552 33 360 33C359.448 33 359 33.4477 359 34C359 34.5523 359.448 35 360 35Z" fill="white"/>
<defs>
<linearGradient id="paint0_linear_4029_3614" x1="331" y1="43" x2="393.712" y2="42.2146" gradientUnits="userSpaceOnUse">
<stop stop-color="#4CA2FF"/>
<stop offset="1" stop-color="#1887FF"/>
</linearGradient>
</defs>
</svg>
