<svg width="327" height="56" viewBox="0 0 327 56" fill="none" xmlns="http://www.w3.org/2000/svg">
<path d="M6.24 22.26C5.46667 22.26 4.72333 22.14 4.01 21.9C3.30333 21.6533 2.68333 21.3033 2.15 20.85C1.61667 20.39 1.23333 19.84 1 19.2L3.29 18.36C3.38333 18.6267 3.57333 18.87 3.86 19.09C4.14667 19.31 4.49667 19.4867 4.91 19.62C5.32333 19.7533 5.76667 19.82 6.24 19.82C6.72667 19.82 7.18 19.7467 7.6 19.6C8.02667 19.4467 8.37 19.2367 8.63 18.97C8.89 18.6967 9.02 18.38 9.02 18.02C9.02 17.6533 8.88333 17.3533 8.61 17.12C8.33667 16.88 7.98667 16.69 7.56 16.55C7.13333 16.41 6.69333 16.3033 6.24 16.23C5.24667 16.0767 4.35667 15.84 3.57 15.52C2.78333 15.2 2.16 14.7567 1.7 14.19C1.24667 13.6233 1.02 12.89 1.02 11.99C1.02 11.1433 1.26333 10.4033 1.75 9.77C2.23667 9.13667 2.87667 8.64333 3.67 8.29C4.46333 7.93667 5.32 7.76 6.24 7.76C7.00667 7.76 7.74667 7.88 8.46 8.12C9.17333 8.36 9.79667 8.71 10.33 9.17C10.87 9.63 11.2567 10.1833 11.49 10.83L9.19 11.66C9.09667 11.3933 8.90667 11.15 8.62 10.93C8.33333 10.71 7.98333 10.5367 7.57 10.41C7.15667 10.2767 6.71333 10.21 6.24 10.21C5.76667 10.2033 5.31667 10.28 4.89 10.44C4.47 10.5933 4.12667 10.8033 3.86 11.07C3.59333 11.3367 3.46 11.6433 3.46 11.99C3.46 12.4367 3.58333 12.7733 3.83 13C4.08333 13.2267 4.42 13.3933 4.84 13.5C5.26 13.6 5.72667 13.6933 6.24 13.78C7.17333 13.9267 8.03667 14.1733 8.83 14.52C9.62333 14.8667 10.26 15.33 10.74 15.91C11.22 16.4833 11.46 17.1867 11.46 18.02C11.46 18.8667 11.22 19.61 10.74 20.25C10.26 20.8833 9.62333 21.3767 8.83 21.73C8.03667 22.0833 7.17333 22.26 6.24 22.26ZM13.4461 12H15.8861V22H13.4461V12ZM14.6861 10.71C14.3261 10.71 14.0228 10.5933 13.7761 10.36C13.5294 10.12 13.4061 9.82 13.4061 9.46C13.4061 9.10667 13.5294 8.81 13.7761 8.57C14.0228 8.33 14.3228 8.21 14.6761 8.21C15.0294 8.21 15.3261 8.33 15.5661 8.57C15.8128 8.81 15.9361 9.10667 15.9361 9.46C15.9361 9.82 15.8161 10.12 15.5761 10.36C15.3361 10.5933 15.0394 10.71 14.6861 10.71ZM25.4755 12H27.9155V22.19C27.9155 22.91 27.7688 23.5633 27.4755 24.15C27.1821 24.7433 26.7821 25.25 26.2755 25.67C25.7688 26.0967 25.1888 26.4233 24.5355 26.65C23.8821 26.8833 23.1955 27 22.4755 27C21.7755 27 21.1021 26.8567 20.4555 26.57C19.8088 26.2833 19.2355 25.89 18.7355 25.39C18.2421 24.8967 17.8655 24.3333 17.6055 23.7L19.8355 22.69C19.9688 23.0567 20.1688 23.3767 20.4355 23.65C20.7088 23.93 21.0221 24.1467 21.3755 24.3C21.7288 24.46 22.0955 24.54 22.4755 24.54C22.8621 24.54 23.2321 24.4867 23.5855 24.38C23.9455 24.2733 24.2688 24.1167 24.5555 23.91C24.8421 23.71 25.0655 23.4633 25.2255 23.17C25.3921 22.8833 25.4755 22.5567 25.4755 22.19V20.78C25.1621 21.22 24.7688 21.5767 24.2955 21.85C23.8221 22.1233 23.2755 22.26 22.6555 22.26C21.9355 22.26 21.2621 22.1233 20.6355 21.85C20.0088 21.5767 19.4555 21.2 18.9755 20.72C18.5021 20.2333 18.1288 19.6733 17.8555 19.04C17.5888 18.4067 17.4555 17.7267 17.4555 17C17.4555 16.2733 17.5888 15.5933 17.8555 14.96C18.1288 14.3267 18.5021 13.77 18.9755 13.29C19.4555 12.8033 20.0088 12.4233 20.6355 12.15C21.2621 11.8767 21.9355 11.74 22.6555 11.74C23.2755 11.74 23.8221 11.8767 24.2955 12.15C24.7688 12.4167 25.1621 12.77 25.4755 13.21V12ZM22.6855 19.91C23.1988 19.91 23.6521 19.78 24.0455 19.52C24.4455 19.2533 24.7588 18.9 24.9855 18.46C25.2121 18.0133 25.3255 17.5267 25.3255 17C25.3255 16.4667 25.2088 15.98 24.9755 15.54C24.7488 15.1 24.4355 14.7467 24.0355 14.48C23.6421 14.2133 23.1921 14.08 22.6855 14.08C22.1855 14.08 21.7288 14.2133 21.3155 14.48C20.9021 14.74 20.5721 15.09 20.3255 15.53C20.0788 15.97 19.9555 16.46 19.9555 17C19.9555 17.54 20.0788 18.03 20.3255 18.47C20.5721 18.91 20.9021 19.26 21.3155 19.52C21.7288 19.78 22.1855 19.91 22.6855 19.91ZM39.4811 15.68V22H37.0411V16.32C37.0411 15.9267 36.9444 15.57 36.7511 15.25C36.5578 14.9233 36.2978 14.6667 35.9711 14.48C35.6511 14.2867 35.2944 14.19 34.9011 14.19C34.5078 14.19 34.1478 14.2867 33.8211 14.48C33.5011 14.6667 33.2444 14.9233 33.0511 15.25C32.8644 15.57 32.7711 15.9267 32.7711 16.32V22H30.3311L30.3211 12H32.7611L32.7711 12.89C33.1111 12.53 33.5178 12.2467 33.9911 12.04C34.4644 11.8267 34.9744 11.72 35.5211 11.72C36.2478 11.72 36.9111 11.9 37.5111 12.26C38.1111 12.6133 38.5878 13.09 38.9411 13.69C39.3011 14.2833 39.4811 14.9467 39.4811 15.68ZM46.5781 22V8H49.0181V22H46.5781ZM60.8873 15.68V22H58.4473V16.32C58.4473 15.9267 58.3507 15.57 58.1573 15.25C57.964 14.9233 57.704 14.6667 57.3773 14.48C57.0573 14.2867 56.7007 14.19 56.3073 14.19C55.914 14.19 55.554 14.2867 55.2273 14.48C54.9073 14.6667 54.6507 14.9233 54.4573 15.25C54.2707 15.57 54.1773 15.9267 54.1773 16.32V22H51.7373L51.7273 12H54.1673L54.1773 12.89C54.5173 12.53 54.924 12.2467 55.3973 12.04C55.8707 11.8267 56.3807 11.72 56.9273 11.72C57.654 11.72 58.3173 11.9 58.9173 12.26C59.5173 12.6133 59.994 13.09 60.3473 13.69C60.7073 14.2833 60.8873 14.9467 60.8873 15.68ZM66.4844 23.4H86.4844V3.4H66.4844V23.4Z" fill="#1A1A1A"/>
<path d="M6.867 40.2H8.043V50H6.867V45.338H2.016V50H0.84V40.2H2.016V44.162H6.867V40.2ZM12.7384 50.182C12.0944 50.182 11.5064 50.0163 10.9744 49.685C10.447 49.3537 10.0247 48.9103 9.70736 48.355C9.39469 47.795 9.23836 47.1767 9.23836 46.5C9.23836 45.9867 9.32936 45.5083 9.51136 45.065C9.69336 44.617 9.94303 44.225 10.2604 43.889C10.5824 43.5483 10.9557 43.2823 11.3804 43.091C11.805 42.8997 12.2577 42.804 12.7384 42.804C13.2657 42.804 13.7487 42.9113 14.1874 43.126C14.6307 43.336 15.0087 43.63 15.3214 44.008C15.6387 44.386 15.8744 44.8247 16.0284 45.324C16.187 45.8233 16.2454 46.3577 16.2034 46.927H10.4914C10.5474 47.3237 10.678 47.6783 10.8834 47.991C11.0887 48.299 11.35 48.544 11.6674 48.726C11.9894 48.908 12.3464 49.0013 12.7384 49.006C13.1584 49.006 13.5387 48.8987 13.8794 48.684C14.22 48.4647 14.4954 48.166 14.7054 47.788L15.9024 48.068C15.6224 48.6887 15.2 49.1973 14.6354 49.594C14.0707 49.986 13.4384 50.182 12.7384 50.182ZM10.4564 46.003H15.0204C14.983 45.611 14.857 45.254 14.6424 44.932C14.4277 44.6053 14.1547 44.344 13.8234 44.148C13.492 43.952 13.1304 43.854 12.7384 43.854C12.3464 43.854 11.987 43.9497 11.6604 44.141C11.3337 44.3323 11.063 44.5913 10.8484 44.918C10.6384 45.24 10.5077 45.6017 10.4564 46.003ZM17.3146 50V39.5H18.4906V50H17.3146ZM20.172 50V39.5H21.348V50H20.172ZM26.0411 50.182C25.3971 50.182 24.8091 50.0163 24.2771 49.685C23.7498 49.3537 23.3274 48.9103 23.0101 48.355C22.6974 47.795 22.5411 47.1767 22.5411 46.5C22.5411 45.9867 22.6321 45.5083 22.8141 45.065C22.9961 44.617 23.2458 44.225 23.5631 43.889C23.8851 43.5483 24.2584 43.2823 24.6831 43.091C25.1078 42.8997 25.5604 42.804 26.0411 42.804C26.6851 42.804 27.2708 42.9697 27.7981 43.301C28.3301 43.6323 28.7524 44.078 29.0651 44.638C29.3824 45.198 29.5411 45.8187 29.5411 46.5C29.5411 47.0087 29.4501 47.4847 29.2681 47.928C29.0861 48.3713 28.8341 48.7633 28.5121 49.104C28.1948 49.44 27.8238 49.7037 27.3991 49.895C26.9791 50.0863 26.5264 50.182 26.0411 50.182ZM26.0411 49.006C26.4798 49.006 26.8741 48.8917 27.2241 48.663C27.5788 48.4297 27.8564 48.124 28.0571 47.746C28.2624 47.3633 28.3651 46.948 28.3651 46.5C28.3651 46.0427 28.2601 45.6227 28.0501 45.24C27.8448 44.8573 27.5671 44.5517 27.2171 44.323C26.8671 44.0943 26.4751 43.98 26.0411 43.98C25.6024 43.98 25.2081 44.0967 24.8581 44.33C24.5081 44.5587 24.2304 44.8643 24.0251 45.247C23.8198 45.6297 23.7171 46.0473 23.7171 46.5C23.7171 46.9667 23.8221 47.3913 24.0321 47.774C24.2421 48.152 24.5244 48.453 24.8791 48.677C25.2338 48.8963 25.6211 49.006 26.0411 49.006ZM39.7864 43H40.9624V50H39.7864L39.7374 48.817C39.518 49.223 39.2147 49.552 38.8274 49.804C38.4447 50.056 37.9874 50.182 37.4554 50.182C36.942 50.182 36.4614 50.0863 36.0134 49.895C35.5654 49.699 35.1687 49.4307 34.8234 49.09C34.4827 48.7447 34.2167 48.348 34.0254 47.9C33.834 47.452 33.7384 46.969 33.7384 46.451C33.7384 45.9517 33.8317 45.4803 34.0184 45.037C34.205 44.5937 34.464 44.2063 34.7954 43.875C35.1314 43.539 35.5187 43.2777 35.9574 43.091C36.396 42.8997 36.8674 42.804 37.3714 42.804C37.922 42.804 38.405 42.9347 38.8204 43.196C39.2357 43.4527 39.5717 43.7863 39.8284 44.197L39.7864 43ZM37.4344 49.041C37.8964 49.041 38.2954 48.929 38.6314 48.705C38.972 48.4763 39.2334 48.1683 39.4154 47.781C39.602 47.3937 39.6954 46.9667 39.6954 46.5C39.6954 46.024 39.602 45.5947 39.4154 45.212C39.2287 44.8247 38.965 44.519 38.6244 44.295C38.2884 44.0663 37.8917 43.952 37.4344 43.952C36.9724 43.952 36.5524 44.0663 36.1744 44.295C35.7964 44.5237 35.4954 44.8317 35.2714 45.219C35.052 45.6017 34.9424 46.0287 34.9424 46.5C34.9424 46.9713 35.0567 47.4007 35.2854 47.788C35.514 48.1707 35.8174 48.4763 36.1954 48.705C36.5734 48.929 36.9864 49.041 37.4344 49.041ZM47.6918 43H48.8678V50.224C48.8678 50.686 48.7674 51.1153 48.5668 51.512C48.3708 51.9133 48.1048 52.261 47.7688 52.555C47.4328 52.8537 47.0501 53.0847 46.6208 53.248C46.1914 53.416 45.7434 53.5 45.2768 53.5C44.7914 53.5 44.3224 53.3903 43.8698 53.171C43.4171 52.9563 43.0204 52.667 42.6798 52.303C42.3438 51.9437 42.1011 51.54 41.9518 51.092L43.0298 50.602C43.1184 50.924 43.2771 51.2133 43.5058 51.47C43.7391 51.7313 44.0098 51.9367 44.3178 52.086C44.6304 52.24 44.9501 52.317 45.2768 52.317C45.5848 52.317 45.8811 52.2633 46.1658 52.156C46.4551 52.0487 46.7141 51.8993 46.9428 51.708C47.1761 51.5213 47.3581 51.2997 47.4888 51.043C47.6241 50.791 47.6918 50.518 47.6918 50.224V48.831C47.4538 49.2323 47.1388 49.559 46.7468 49.811C46.3594 50.0583 45.9068 50.182 45.3888 50.182C44.8941 50.182 44.4298 50.0863 43.9958 49.895C43.5618 49.7037 43.1814 49.44 42.8548 49.104C42.5281 48.7633 42.2714 48.3713 42.0848 47.928C41.8981 47.4847 41.8048 47.0087 41.8048 46.5C41.8048 45.9913 41.8981 45.5153 42.0848 45.072C42.2714 44.624 42.5281 44.232 42.8548 43.896C43.1814 43.5553 43.5618 43.2893 43.9958 43.098C44.4298 42.9067 44.8941 42.811 45.3888 42.811C45.9068 42.811 46.3594 42.9347 46.7468 43.182C47.1388 43.4293 47.4538 43.756 47.6918 44.162V43ZM45.3958 49.041C45.8484 49.041 46.2404 48.9243 46.5718 48.691C46.9078 48.4577 47.1668 48.1473 47.3488 47.76C47.5308 47.3727 47.6218 46.9527 47.6218 46.5C47.6218 46.0333 47.5284 45.6087 47.3418 45.226C47.1598 44.8387 46.9008 44.5307 46.5648 44.302C46.2334 44.0687 45.8438 43.952 45.3958 43.952C44.9571 43.952 44.5558 44.0663 44.1918 44.295C43.8278 44.5237 43.5384 44.8317 43.3238 45.219C43.1138 45.6017 43.0088 46.0287 43.0088 46.5C43.0088 46.9713 43.1161 47.4007 43.3308 47.788C43.5501 48.1707 43.8394 48.4763 44.1988 48.705C44.5628 48.929 44.9618 49.041 45.3958 49.041ZM56.0832 43H57.2592V50H56.0832L56.0342 48.817C55.8149 49.223 55.5116 49.552 55.1242 49.804C54.7416 50.056 54.2842 50.182 53.7522 50.182C53.2389 50.182 52.7582 50.0863 52.3102 49.895C51.8622 49.699 51.4656 49.4307 51.1202 49.09C50.7796 48.7447 50.5136 48.348 50.3222 47.9C50.1309 47.452 50.0352 46.969 50.0352 46.451C50.0352 45.9517 50.1286 45.4803 50.3152 45.037C50.5019 44.5937 50.7609 44.2063 51.0922 43.875C51.4282 43.539 51.8156 43.2777 52.2542 43.091C52.6929 42.8997 53.1642 42.804 53.6682 42.804C54.2189 42.804 54.7019 42.9347 55.1172 43.196C55.5326 43.4527 55.8686 43.7863 56.1252 44.197L56.0832 43ZM53.7312 49.041C54.1932 49.041 54.5922 48.929 54.9282 48.705C55.2689 48.4763 55.5302 48.1683 55.7122 47.781C55.8989 47.3937 55.9922 46.9667 55.9922 46.5C55.9922 46.024 55.8989 45.5947 55.7122 45.212C55.5256 44.8247 55.2619 44.519 54.9212 44.295C54.5852 44.0663 54.1886 43.952 53.7312 43.952C53.2692 43.952 52.8492 44.0663 52.4712 44.295C52.0932 44.5237 51.7922 44.8317 51.5682 45.219C51.3489 45.6017 51.2392 46.0287 51.2392 46.5C51.2392 46.9713 51.3536 47.4007 51.5822 47.788C51.8109 48.1707 52.1142 48.4763 52.4922 48.705C52.8702 48.929 53.2832 49.041 53.7312 49.041ZM58.6584 43H59.8344V50H58.6584V43ZM59.2604 41.859C59.0737 41.859 58.9174 41.7983 58.7914 41.677C58.6654 41.5557 58.6024 41.404 58.6024 41.222C58.6024 41.04 58.6654 40.8883 58.7914 40.767C58.9174 40.6457 59.0714 40.585 59.2534 40.585C59.4354 40.585 59.5894 40.6457 59.7154 40.767C59.8414 40.8883 59.9044 41.04 59.9044 41.222C59.9044 41.404 59.8414 41.5557 59.7154 41.677C59.594 41.7983 59.4424 41.859 59.2604 41.859ZM67.6628 45.646V50H66.4868V45.905C66.4868 45.5503 66.4004 45.2283 66.2278 44.939C66.0551 44.6497 65.8241 44.421 65.5348 44.253C65.2454 44.0803 64.9234 43.994 64.5688 43.994C64.2188 43.994 63.8968 44.0803 63.6028 44.253C63.3134 44.421 63.0824 44.6497 62.9098 44.939C62.7371 45.2283 62.6508 45.5503 62.6508 45.905V50H61.4748V43H62.6508V43.875C62.8981 43.5483 63.2108 43.2893 63.5888 43.098C63.9668 42.902 64.3774 42.804 64.8208 42.804C65.3434 42.804 65.8194 42.9323 66.2488 43.189C66.6828 43.441 67.0258 43.7817 67.2778 44.211C67.5344 44.6403 67.6628 45.1187 67.6628 45.646ZM68.7827 50.784L69.2167 48.418H70.3927L69.5667 50.784H68.7827ZM80.2288 43H81.4748L77.6458 53.5H76.3998L77.6668 50L75.1538 43H76.4417L78.2548 48.383L80.2288 43ZM85.4591 50.182C84.8151 50.182 84.2271 50.0163 83.6951 49.685C83.1677 49.3537 82.7454 48.9103 82.4281 48.355C82.1154 47.795 81.9591 47.1767 81.9591 46.5C81.9591 45.9867 82.0501 45.5083 82.2321 45.065C82.4141 44.617 82.6637 44.225 82.9811 43.889C83.3031 43.5483 83.6764 43.2823 84.1011 43.091C84.5257 42.8997 84.9784 42.804 85.4591 42.804C86.1031 42.804 86.6887 42.9697 87.2161 43.301C87.7481 43.6323 88.1704 44.078 88.4831 44.638C88.8004 45.198 88.9591 45.8187 88.9591 46.5C88.9591 47.0087 88.8681 47.4847 88.6861 47.928C88.5041 48.3713 88.2521 48.7633 87.9301 49.104C87.6127 49.44 87.2417 49.7037 86.8171 49.895C86.3971 50.0863 85.9444 50.182 85.4591 50.182ZM85.4591 49.006C85.8977 49.006 86.2921 48.8917 86.6421 48.663C86.9967 48.4297 87.2744 48.124 87.4751 47.746C87.6804 47.3633 87.7831 46.948 87.7831 46.5C87.7831 46.0427 87.6781 45.6227 87.4681 45.24C87.2627 44.8573 86.9851 44.5517 86.6351 44.323C86.2851 44.0943 85.8931 43.98 85.4591 43.98C85.0204 43.98 84.6261 44.0967 84.2761 44.33C83.9261 44.5587 83.6484 44.8643 83.4431 45.247C83.2377 45.6297 83.1351 46.0473 83.1351 46.5C83.1351 46.9667 83.2401 47.3913 83.4501 47.774C83.6601 48.152 83.9424 48.453 84.2971 48.677C84.6517 48.8963 85.0391 49.006 85.4591 49.006ZM89.7416 47.34V43H90.9176V47.081C90.9176 47.4357 91.004 47.7577 91.1766 48.047C91.3493 48.3363 91.5803 48.5673 91.8696 48.74C92.1636 48.908 92.4856 48.992 92.8356 48.992C93.1903 48.992 93.51 48.908 93.7946 48.74C94.084 48.5673 94.315 48.3363 94.4876 48.047C94.6603 47.7577 94.7466 47.4357 94.7466 47.081V43H95.9226L95.9296 50H94.7536L94.7466 49.111C94.4993 49.4377 94.1866 49.699 93.8086 49.895C93.4306 50.0863 93.0223 50.182 92.5836 50.182C92.061 50.182 91.5826 50.056 91.1486 49.804C90.7193 49.5473 90.3763 49.2043 90.1196 48.775C89.8676 48.3457 89.7416 47.8673 89.7416 47.34ZM96.7761 43.854L97.2101 40.2H98.3861L97.5601 43.854H96.7761ZM103.287 50H101.782L99.2266 42.986H100.48L102.531 48.635L104.582 42.986H105.835L103.287 50ZM109.781 50.182C109.137 50.182 108.549 50.0163 108.017 49.685C107.49 49.3537 107.068 48.9103 106.75 48.355C106.438 47.795 106.281 47.1767 106.281 46.5C106.281 45.9867 106.372 45.5083 106.554 45.065C106.736 44.617 106.986 44.225 107.303 43.889C107.625 43.5483 107.999 43.2823 108.423 43.091C108.848 42.8997 109.301 42.804 109.781 42.804C110.309 42.804 110.792 42.9113 111.23 43.126C111.674 43.336 112.052 43.63 112.364 44.008C112.682 44.386 112.917 44.8247 113.071 45.324C113.23 45.8233 113.288 46.3577 113.246 46.927H107.534C107.59 47.3237 107.721 47.6783 107.926 47.991C108.132 48.299 108.393 48.544 108.71 48.726C109.032 48.908 109.389 49.0013 109.781 49.006C110.201 49.006 110.582 48.8987 110.922 48.684C111.263 48.4647 111.538 48.166 111.748 47.788L112.945 48.068C112.665 48.6887 112.243 49.1973 111.678 49.594C111.114 49.986 110.481 50.182 109.781 50.182ZM107.499 46.003H112.063C112.026 45.611 111.9 45.254 111.685 44.932C111.471 44.6053 111.198 44.344 110.866 44.148C110.535 43.952 110.173 43.854 109.781 43.854C109.389 43.854 109.03 43.9497 108.703 44.141C108.377 44.3323 108.106 44.5913 107.891 44.918C107.681 45.24 107.551 45.6017 107.499 46.003ZM121.427 42.804C122.108 42.804 122.727 42.9697 123.282 43.301C123.842 43.6323 124.288 44.078 124.619 44.638C124.95 45.1933 125.116 45.8117 125.116 46.493C125.116 47.0017 125.02 47.48 124.829 47.928C124.638 48.3713 124.372 48.7633 124.031 49.104C123.695 49.44 123.303 49.7037 122.855 49.895C122.412 50.0863 121.936 50.182 121.427 50.182C120.886 50.182 120.414 50.056 120.013 49.804C119.616 49.5473 119.299 49.2137 119.061 48.803V50H117.885V39.5H119.061V44.183C119.299 43.7723 119.616 43.441 120.013 43.189C120.414 42.9323 120.886 42.804 121.427 42.804ZM121.413 49.034C121.875 49.034 122.295 48.9197 122.673 48.691C123.051 48.4623 123.352 48.1567 123.576 47.774C123.8 47.3867 123.912 46.9597 123.912 46.493C123.912 46.017 123.798 45.5877 123.569 45.205C123.34 44.8177 123.037 44.512 122.659 44.288C122.281 44.0593 121.866 43.945 121.413 43.945C120.956 43.945 120.557 44.0593 120.216 44.288C119.88 44.5167 119.619 44.8247 119.432 45.212C119.25 45.5993 119.159 46.0263 119.159 46.493C119.159 46.9643 119.25 47.3937 119.432 47.781C119.619 48.1637 119.882 48.4693 120.223 48.698C120.564 48.922 120.96 49.034 121.413 49.034ZM129.318 50.182C128.674 50.182 128.086 50.0163 127.554 49.685C127.027 49.3537 126.605 48.9103 126.287 48.355C125.975 47.795 125.818 47.1767 125.818 46.5C125.818 45.9867 125.909 45.5083 126.091 45.065C126.273 44.617 126.523 44.225 126.84 43.889C127.162 43.5483 127.536 43.2823 127.96 43.091C128.385 42.8997 128.838 42.804 129.318 42.804C129.846 42.804 130.329 42.9113 130.767 43.126C131.211 43.336 131.589 43.63 131.901 44.008C132.219 44.386 132.454 44.8247 132.608 45.324C132.767 45.8233 132.825 46.3577 132.783 46.927H127.071C127.127 47.3237 127.258 47.6783 127.463 47.991C127.669 48.299 127.93 48.544 128.247 48.726C128.569 48.908 128.926 49.0013 129.318 49.006C129.738 49.006 130.119 48.8987 130.459 48.684C130.8 48.4647 131.075 48.166 131.285 47.788L132.482 48.068C132.202 48.6887 131.78 49.1973 131.215 49.594C130.651 49.986 130.018 50.182 129.318 50.182ZM127.036 46.003H131.6C131.563 45.611 131.437 45.254 131.222 44.932C131.008 44.6053 130.735 44.344 130.403 44.148C130.072 43.952 129.71 43.854 129.318 43.854C128.926 43.854 128.567 43.9497 128.24 44.141C127.914 44.3323 127.643 44.5913 127.428 44.918C127.218 45.24 127.088 45.6017 127.036 46.003ZM137.002 50.182C136.358 50.182 135.77 50.0163 135.238 49.685C134.711 49.3537 134.288 48.9103 133.971 48.355C133.658 47.795 133.502 47.1767 133.502 46.5C133.502 45.9867 133.593 45.5083 133.775 45.065C133.957 44.617 134.207 44.225 134.524 43.889C134.846 43.5483 135.219 43.2823 135.644 43.091C136.069 42.8997 136.521 42.804 137.002 42.804C137.529 42.804 138.012 42.9113 138.451 43.126C138.894 43.336 139.272 43.63 139.585 44.008C139.902 44.386 140.138 44.8247 140.292 45.324C140.451 45.8233 140.509 46.3577 140.467 46.927H134.755C134.811 47.3237 134.942 47.6783 135.147 47.991C135.352 48.299 135.614 48.544 135.931 48.726C136.253 48.908 136.61 49.0013 137.002 49.006C137.422 49.006 137.802 48.8987 138.143 48.684C138.484 48.4647 138.759 48.166 138.969 47.788L140.166 48.068C139.886 48.6887 139.464 49.1973 138.899 49.594C138.334 49.986 137.702 50.182 137.002 50.182ZM134.72 46.003H139.284C139.247 45.611 139.121 45.254 138.906 44.932C138.691 44.6053 138.418 44.344 138.087 44.148C137.756 43.952 137.394 43.854 137.002 43.854C136.61 43.854 136.251 43.9497 135.924 44.141C135.597 44.3323 135.327 44.5913 135.112 44.918C134.902 45.24 134.771 45.6017 134.72 46.003ZM147.835 45.646V50H146.659V45.905C146.659 45.5503 146.572 45.2283 146.4 44.939C146.227 44.6497 145.996 44.421 145.707 44.253C145.417 44.0803 145.095 43.994 144.741 43.994C144.391 43.994 144.069 44.0803 143.775 44.253C143.485 44.421 143.254 44.6497 143.082 44.939C142.909 45.2283 142.823 45.5503 142.823 45.905V50H141.647V43H142.823V43.875C143.07 43.5483 143.383 43.2893 143.761 43.098C144.139 42.902 144.549 42.804 144.993 42.804C145.515 42.804 145.991 42.9323 146.421 43.189C146.855 43.441 147.198 43.7817 147.45 44.211C147.706 44.6403 147.835 45.1187 147.835 45.646ZM152.598 50V43H153.774V43.875C154.021 43.5483 154.331 43.2893 154.705 43.098C155.083 42.902 155.493 42.804 155.937 42.804C156.455 42.804 156.928 42.93 157.358 43.182C157.787 43.434 158.125 43.7677 158.373 44.183C158.62 43.7677 158.956 43.434 159.381 43.182C159.81 42.93 160.281 42.804 160.795 42.804C161.322 42.804 161.8 42.9323 162.23 43.189C162.659 43.441 163 43.7817 163.252 44.211C163.508 44.6403 163.637 45.1187 163.637 45.646V50H162.461V45.926C162.461 45.5807 162.377 45.261 162.209 44.967C162.041 44.673 161.814 44.4373 161.53 44.26C161.245 44.0827 160.93 43.994 160.585 43.994C160.239 43.994 159.924 44.078 159.64 44.246C159.355 44.4093 159.129 44.638 158.961 44.932C158.793 45.2213 158.709 45.5527 158.709 45.926V50H157.533V45.926C157.533 45.5527 157.449 45.2213 157.281 44.932C157.113 44.638 156.884 44.4093 156.595 44.246C156.31 44.078 155.995 43.994 155.65 43.994C155.309 43.994 154.994 44.0827 154.705 44.26C154.42 44.4373 154.194 44.673 154.026 44.967C153.858 45.261 153.774 45.5807 153.774 45.926V50H152.598ZM165.039 43H166.215V50H165.039V43ZM165.641 41.859C165.455 41.859 165.298 41.7983 165.172 41.677C165.046 41.5557 164.983 41.404 164.983 41.222C164.983 41.04 165.046 40.8883 165.172 40.767C165.298 40.6457 165.452 40.585 165.634 40.585C165.816 40.585 165.97 40.6457 166.096 40.767C166.222 40.8883 166.285 41.04 166.285 41.222C166.285 41.404 166.222 41.5557 166.096 41.677C165.975 41.7983 165.823 41.859 165.641 41.859ZM169.963 50.133C169.585 50.119 169.217 50.049 168.857 49.923C168.503 49.7923 168.19 49.6173 167.919 49.398C167.653 49.174 167.46 48.9173 167.338 48.628L168.346 48.194C168.416 48.3527 168.542 48.502 168.724 48.642C168.906 48.782 169.116 48.894 169.354 48.978C169.592 49.062 169.833 49.104 170.075 49.104C170.332 49.104 170.572 49.0643 170.796 48.985C171.02 48.9057 171.202 48.789 171.342 48.635C171.487 48.4763 171.559 48.2873 171.559 48.068C171.559 47.8347 171.48 47.6527 171.321 47.522C171.167 47.3867 170.971 47.2817 170.733 47.207C170.5 47.1277 170.262 47.053 170.019 46.983C169.539 46.8617 169.109 46.717 168.731 46.549C168.353 46.3763 168.055 46.1593 167.835 45.898C167.621 45.632 167.513 45.2937 167.513 44.883C167.513 44.449 167.632 44.0733 167.87 43.756C168.113 43.4387 168.43 43.1937 168.822 43.021C169.214 42.8483 169.634 42.762 170.082 42.762C170.647 42.762 171.163 42.8833 171.629 43.126C172.096 43.3687 172.444 43.6977 172.672 44.113L171.727 44.666C171.648 44.498 171.527 44.351 171.363 44.225C171.2 44.0943 171.013 43.9917 170.803 43.917C170.593 43.8423 170.379 43.8027 170.159 43.798C169.889 43.7887 169.634 43.8237 169.396 43.903C169.163 43.9823 168.974 44.1037 168.829 44.267C168.689 44.4257 168.619 44.624 168.619 44.862C168.619 45.0953 168.694 45.2727 168.843 45.394C168.997 45.5153 169.196 45.6133 169.438 45.688C169.686 45.758 169.954 45.8397 170.243 45.933C170.668 46.0683 171.065 46.2247 171.433 46.402C171.802 46.5793 172.098 46.801 172.322 47.067C172.551 47.333 172.663 47.662 172.658 48.054C172.658 48.4833 172.53 48.859 172.273 49.181C172.017 49.4983 171.683 49.741 171.272 49.909C170.866 50.077 170.43 50.1517 169.963 50.133ZM175.993 50.133C175.615 50.119 175.246 50.049 174.887 49.923C174.532 49.7923 174.219 49.6173 173.949 49.398C173.683 49.174 173.489 48.9173 173.368 48.628L174.376 48.194C174.446 48.3527 174.572 48.502 174.754 48.642C174.936 48.782 175.146 48.894 175.384 48.978C175.622 49.062 175.862 49.104 176.105 49.104C176.361 49.104 176.602 49.0643 176.826 48.985C177.05 48.9057 177.232 48.789 177.372 48.635C177.516 48.4763 177.589 48.2873 177.589 48.068C177.589 47.8347 177.509 47.6527 177.351 47.522C177.197 47.3867 177.001 47.2817 176.763 47.207C176.529 47.1277 176.291 47.053 176.049 46.983C175.568 46.8617 175.139 46.717 174.761 46.549C174.383 46.3763 174.084 46.1593 173.865 45.898C173.65 45.632 173.543 45.2937 173.543 44.883C173.543 44.449 173.662 44.0733 173.9 43.756C174.142 43.4387 174.46 43.1937 174.852 43.021C175.244 42.8483 175.664 42.762 176.112 42.762C176.676 42.762 177.192 42.8833 177.659 43.126C178.125 43.3687 178.473 43.6977 178.702 44.113L177.757 44.666C177.677 44.498 177.556 44.351 177.393 44.225C177.229 44.0943 177.043 43.9917 176.833 43.917C176.623 43.8423 176.408 43.8027 176.189 43.798C175.918 43.7887 175.664 43.8237 175.426 43.903C175.192 43.9823 175.003 44.1037 174.859 44.267C174.719 44.4257 174.649 44.624 174.649 44.862C174.649 45.0953 174.723 45.2727 174.873 45.394C175.027 45.5153 175.225 45.6133 175.468 45.688C175.715 45.758 175.983 45.8397 176.273 45.933C176.697 46.0683 177.094 46.2247 177.463 46.402C177.831 46.5793 178.128 46.801 178.352 47.067C178.58 47.333 178.692 47.662 178.688 48.054C178.688 48.4833 178.559 48.859 178.303 49.181C178.046 49.4983 177.712 49.741 177.302 49.909C176.896 50.077 176.459 50.1517 175.993 50.133ZM182.899 50.182C182.255 50.182 181.667 50.0163 181.135 49.685C180.607 49.3537 180.185 48.9103 179.868 48.355C179.555 47.795 179.399 47.1767 179.399 46.5C179.399 45.9867 179.49 45.5083 179.672 45.065C179.854 44.617 180.103 44.225 180.421 43.889C180.743 43.5483 181.116 43.2823 181.541 43.091C181.965 42.8997 182.418 42.804 182.899 42.804C183.426 42.804 183.909 42.9113 184.348 43.126C184.791 43.336 185.169 43.63 185.482 44.008C185.799 44.386 186.035 44.8247 186.189 45.324C186.347 45.8233 186.406 46.3577 186.364 46.927H180.652C180.708 47.3237 180.838 47.6783 181.044 47.991C181.249 48.299 181.51 48.544 181.828 48.726C182.15 48.908 182.507 49.0013 182.899 49.006C183.319 49.006 183.699 48.8987 184.04 48.684C184.38 48.4647 184.656 48.166 184.866 47.788L186.063 48.068C185.783 48.6887 185.36 49.1973 184.796 49.594C184.231 49.986 183.599 50.182 182.899 50.182ZM180.617 46.003H185.181C185.143 45.611 185.017 45.254 184.803 44.932C184.588 44.6053 184.315 44.344 183.984 44.148C183.652 43.952 183.291 43.854 182.899 43.854C182.507 43.854 182.147 43.9497 181.821 44.141C181.494 44.3323 181.223 44.5913 181.009 44.918C180.799 45.24 180.668 45.6017 180.617 46.003ZM193.137 39.5H194.313V50H193.137V48.81C192.899 49.2207 192.579 49.552 192.178 49.804C191.777 50.056 191.305 50.182 190.764 50.182C190.255 50.182 189.779 50.0863 189.336 49.895C188.893 49.7037 188.501 49.44 188.16 49.104C187.824 48.7633 187.56 48.3713 187.369 47.928C187.178 47.4847 187.082 47.0087 187.082 46.5C187.082 45.9913 187.178 45.5153 187.369 45.072C187.56 44.624 187.824 44.232 188.16 43.896C188.501 43.5553 188.893 43.2893 189.336 43.098C189.779 42.9067 190.255 42.811 190.764 42.811C191.305 42.811 191.777 42.937 192.178 43.189C192.579 43.441 192.899 43.7723 193.137 44.183V39.5ZM190.778 49.041C191.24 49.041 191.639 48.929 191.975 48.705C192.316 48.4763 192.577 48.1683 192.759 47.781C192.946 47.3937 193.039 46.9667 193.039 46.5C193.039 46.024 192.946 45.5947 192.759 45.212C192.572 44.8247 192.309 44.519 191.968 44.295C191.632 44.0663 191.235 43.952 190.778 43.952C190.316 43.952 189.896 44.0663 189.518 44.295C189.145 44.5237 188.846 44.8317 188.622 45.219C188.398 45.6017 188.286 46.0287 188.286 46.5C188.286 46.9713 188.4 47.4007 188.629 47.788C188.858 48.1707 189.161 48.4763 189.539 48.705C189.917 48.929 190.33 49.041 190.778 49.041Z" fill="#777777"/>
</svg>
