<svg width="86" height="24" viewBox="0 0 86 24" fill="none" xmlns="http://www.w3.org/2000/svg">
<path d="M5.24 19.26C4.46667 19.26 3.72333 19.14 3.01 18.9C2.30333 18.6533 1.68333 18.3033 1.15 17.85C0.616667 17.39 0.233333 16.84 1.49012e-08 16.2L2.29 15.36C2.38333 15.6267 2.57333 15.87 2.86 16.09C3.14667 16.31 3.49667 16.4867 3.91 16.62C4.32333 16.7533 4.76667 16.82 5.24 16.82C5.72667 16.82 6.18 16.7467 6.6 16.6C7.02667 16.4467 7.37 16.2367 7.63 15.97C7.89 15.6967 8.02 15.38 8.02 15.02C8.02 14.6533 7.88333 14.3533 7.61 14.12C7.33667 13.88 6.98667 13.69 6.56 13.55C6.13333 13.41 5.69333 13.3033 5.24 13.23C4.24667 13.0767 3.35667 12.84 2.57 12.52C1.78333 12.2 1.16 11.7567 0.7 11.19C0.246667 10.6233 0.0200001 9.89 0.0200001 8.99C0.0200001 8.14333 0.263333 7.40333 0.75 6.77C1.23667 6.13667 1.87667 5.64333 2.67 5.29C3.46333 4.93667 4.32 4.76 5.24 4.76C6.00667 4.76 6.74667 4.88 7.46 5.12C8.17333 5.36 8.79667 5.71 9.33 6.17C9.87 6.63 10.2567 7.18333 10.49 7.83L8.19 8.66C8.09667 8.39333 7.90667 8.15 7.62 7.93C7.33333 7.71 6.98333 7.53667 6.57 7.41C6.15667 7.27667 5.71333 7.21 5.24 7.21C4.76667 7.20333 4.31667 7.28 3.89 7.44C3.47 7.59333 3.12667 7.80333 2.86 8.07C2.59333 8.33667 2.46 8.64333 2.46 8.99C2.46 9.43667 2.58333 9.77333 2.83 10C3.08333 10.2267 3.42 10.3933 3.84 10.5C4.26 10.6 4.72667 10.6933 5.24 10.78C6.17333 10.9267 7.03667 11.1733 7.83 11.52C8.62333 11.8667 9.26 12.33 9.74 12.91C10.22 13.4833 10.46 14.1867 10.46 15.02C10.46 15.8667 10.22 16.61 9.74 17.25C9.26 17.8833 8.62333 18.3767 7.83 18.73C7.03667 19.0833 6.17333 19.26 5.24 19.26ZM12.4461 9H14.8861V19H12.4461V9ZM13.6861 7.71C13.3261 7.71 13.0228 7.59333 12.7761 7.36C12.5294 7.12 12.4061 6.82 12.4061 6.46C12.4061 6.10667 12.5294 5.81 12.7761 5.57C13.0228 5.33 13.3228 5.21 13.6761 5.21C14.0294 5.21 14.3261 5.33 14.5661 5.57C14.8128 5.81 14.9361 6.10667 14.9361 6.46C14.9361 6.82 14.8161 7.12 14.5761 7.36C14.3361 7.59333 14.0394 7.71 13.6861 7.71ZM24.4755 9H26.9155V19.19C26.9155 19.91 26.7688 20.5633 26.4755 21.15C26.1821 21.7433 25.7821 22.25 25.2755 22.67C24.7688 23.0967 24.1888 23.4233 23.5355 23.65C22.8821 23.8833 22.1955 24 21.4755 24C20.7755 24 20.1021 23.8567 19.4555 23.57C18.8088 23.2833 18.2355 22.89 17.7355 22.39C17.2421 21.8967 16.8655 21.3333 16.6055 20.7L18.8355 19.69C18.9688 20.0567 19.1688 20.3767 19.4355 20.65C19.7088 20.93 20.0221 21.1467 20.3755 21.3C20.7288 21.46 21.0955 21.54 21.4755 21.54C21.8621 21.54 22.2321 21.4867 22.5855 21.38C22.9455 21.2733 23.2688 21.1167 23.5555 20.91C23.8421 20.71 24.0655 20.4633 24.2255 20.17C24.3921 19.8833 24.4755 19.5567 24.4755 19.19V17.78C24.1621 18.22 23.7688 18.5767 23.2955 18.85C22.8221 19.1233 22.2755 19.26 21.6555 19.26C20.9355 19.26 20.2621 19.1233 19.6355 18.85C19.0088 18.5767 18.4555 18.2 17.9755 17.72C17.5021 17.2333 17.1288 16.6733 16.8555 16.04C16.5888 15.4067 16.4555 14.7267 16.4555 14C16.4555 13.2733 16.5888 12.5933 16.8555 11.96C17.1288 11.3267 17.5021 10.77 17.9755 10.29C18.4555 9.80333 19.0088 9.42333 19.6355 9.15C20.2621 8.87667 20.9355 8.74 21.6555 8.74C22.2755 8.74 22.8221 8.87667 23.2955 9.15C23.7688 9.41667 24.1621 9.77 24.4755 10.21V9ZM21.6855 16.91C22.1988 16.91 22.6521 16.78 23.0455 16.52C23.4455 16.2533 23.7588 15.9 23.9855 15.46C24.2121 15.0133 24.3255 14.5267 24.3255 14C24.3255 13.4667 24.2088 12.98 23.9755 12.54C23.7488 12.1 23.4355 11.7467 23.0355 11.48C22.6421 11.2133 22.1921 11.08 21.6855 11.08C21.1855 11.08 20.7288 11.2133 20.3155 11.48C19.9021 11.74 19.5721 12.09 19.3255 12.53C19.0788 12.97 18.9555 13.46 18.9555 14C18.9555 14.54 19.0788 15.03 19.3255 15.47C19.5721 15.91 19.9021 16.26 20.3155 16.52C20.7288 16.78 21.1855 16.91 21.6855 16.91ZM38.4811 12.68V19H36.0411V13.32C36.0411 12.9267 35.9444 12.57 35.7511 12.25C35.5578 11.9233 35.2978 11.6667 34.9711 11.48C34.6511 11.2867 34.2944 11.19 33.9011 11.19C33.5078 11.19 33.1478 11.2867 32.8211 11.48C32.5011 11.6667 32.2444 11.9233 32.0511 12.25C31.8644 12.57 31.7711 12.9267 31.7711 13.32V19H29.3311L29.3211 9H31.7611L31.7711 9.89C32.1111 9.53 32.5178 9.24667 32.9911 9.04C33.4644 8.82667 33.9744 8.72 34.5211 8.72C35.2478 8.72 35.9111 8.9 36.5111 9.26C37.1111 9.61333 37.5878 10.09 37.9411 10.69C38.3011 11.2833 38.4811 11.9467 38.4811 12.68ZM45.5781 19V5H48.0181V19H45.5781ZM59.8873 12.68V19H57.4473V13.32C57.4473 12.9267 57.3507 12.57 57.1573 12.25C56.964 11.9233 56.704 11.6667 56.3773 11.48C56.0573 11.2867 55.7007 11.19 55.3073 11.19C54.914 11.19 54.554 11.2867 54.2273 11.48C53.9073 11.6667 53.6507 11.9233 53.4573 12.25C53.2707 12.57 53.1773 12.9267 53.1773 13.32V19H50.7373L50.7273 9H53.1673L53.1773 9.89C53.5173 9.53 53.924 9.24667 54.3973 9.04C54.8707 8.82667 55.3807 8.72 55.9273 8.72C56.654 8.72 57.3173 8.9 57.9173 9.26C58.5173 9.61333 58.994 10.09 59.3473 10.69C59.7073 11.2833 59.8873 11.9467 59.8873 12.68ZM65.4844 20.4H85.4844V0.4H65.4844V20.4Z" fill="#1A1A1A"/>
</svg>
