<svg width="20" height="20" viewBox="0 0 20 20" fill="none" xmlns="http://www.w3.org/2000/svg">
<path d="M14.1666 2.91675H5.83329C3.33329 2.91675 1.66663 4.16675 1.66663 7.08342V12.9167C1.66663 15.8334 3.33329 17.0834 5.83329 17.0834H14.1666C16.6666 17.0834 18.3333 15.8334 18.3333 12.9167V7.08342C18.3333 4.16675 16.6666 2.91675 14.1666 2.91675ZM14.5583 7.99175L11.95 10.0751C11.4 10.5167 10.7 10.7334 9.99996 10.7334C9.29996 10.7334 8.59163 10.5167 8.04996 10.0751L5.44163 7.99175C5.17496 7.77508 5.13329 7.37508 5.34163 7.10841C5.55829 6.84175 5.94996 6.79175 6.21663 7.00841L8.82496 9.09175C9.45829 9.60008 10.5333 9.60008 11.1666 9.09175L13.775 7.00841C14.0416 6.79175 14.4416 6.83341 14.65 7.10841C14.8666 7.37508 14.825 7.77508 14.5583 7.99175Z" fill="url(#paint0_linear_4029_4760)"/>
<defs>
<linearGradient id="paint0_linear_4029_4760" x1="1.66663" y1="14.1976" x2="17.998" y2="13.9946" gradientUnits="userSpaceOnUse">
<stop stop-color="#4CA2FF"/>
<stop offset="1" stop-color="#1887FF"/>
</linearGradient>
</defs>
</svg>
