<svg width="79" height="24" viewBox="0 0 79 24" fill="none" xmlns="http://www.w3.org/2000/svg">
<rect x="0.5" width="78" height="24" rx="4" fill="url(#paint0_linear_4029_3694)"/>
<path d="M14.3295 9.45455C14.2784 9.02273 14.071 8.6875 13.7074 8.44886C13.3438 8.21023 12.8977 8.09091 12.3693 8.09091C11.983 8.09091 11.6449 8.15341 11.3551 8.27841C11.0682 8.40341 10.8438 8.57528 10.6818 8.79403C10.5227 9.01278 10.4432 9.26136 10.4432 9.53977C10.4432 9.77273 10.4986 9.97301 10.6094 10.1406C10.723 10.3054 10.8679 10.4432 11.044 10.554C11.2202 10.6619 11.4048 10.7514 11.598 10.8224C11.7912 10.8906 11.9688 10.946 12.1307 10.9886L13.017 11.2273C13.2443 11.2869 13.4972 11.3693 13.7756 11.4744C14.0568 11.5795 14.3253 11.723 14.581 11.9048C14.8395 12.0838 15.0526 12.3139 15.2202 12.5952C15.3878 12.8764 15.4716 13.2216 15.4716 13.6307C15.4716 14.1023 15.348 14.5284 15.1009 14.9091C14.8565 15.2898 14.4986 15.5923 14.027 15.8168C13.5582 16.0412 12.9886 16.1534 12.3182 16.1534C11.6932 16.1534 11.152 16.0526 10.6946 15.8509C10.2401 15.6491 9.8821 15.3679 9.62074 15.0071C9.36222 14.6463 9.21591 14.2273 9.18182 13.75H10.2727C10.3011 14.0795 10.4119 14.3523 10.6051 14.5682C10.8011 14.7812 11.0483 14.9403 11.3466 15.0455C11.6477 15.1477 11.9716 15.1989 12.3182 15.1989C12.7216 15.1989 13.0838 15.1335 13.4048 15.0028C13.7259 14.8693 13.9801 14.6847 14.1676 14.4489C14.3551 14.2102 14.4489 13.9318 14.4489 13.6136C14.4489 13.3239 14.3679 13.0881 14.206 12.9062C14.044 12.7244 13.831 12.5767 13.5668 12.4631C13.3026 12.3494 13.017 12.25 12.7102 12.1648L11.6364 11.858C10.9545 11.6619 10.4148 11.3821 10.017 11.0185C9.61932 10.6548 9.42045 10.179 9.42045 9.59091C9.42045 9.10227 9.55256 8.67614 9.81676 8.3125C10.0838 7.94602 10.4418 7.66193 10.8906 7.46023C11.3423 7.25568 11.8466 7.15341 12.4034 7.15341C12.9659 7.15341 13.4659 7.25426 13.9034 7.45597C14.3409 7.65483 14.6875 7.92756 14.9432 8.27415C15.2017 8.62074 15.3381 9.0142 15.3523 9.45455H14.3295ZM19.7319 16.1364C19.141 16.1364 18.6225 15.9957 18.1765 15.7145C17.7333 15.4332 17.3867 15.0398 17.1367 14.5341C16.8896 14.0284 16.766 13.4375 16.766 12.7614C16.766 12.0795 16.8896 11.4844 17.1367 10.9759C17.3867 10.4673 17.7333 10.0724 18.1765 9.79119C18.6225 9.50994 19.141 9.36932 19.7319 9.36932C20.3228 9.36932 20.8398 9.50994 21.283 9.79119C21.729 10.0724 22.0756 10.4673 22.3228 10.9759C22.5728 11.4844 22.6978 12.0795 22.6978 12.7614C22.6978 13.4375 22.5728 14.0284 22.3228 14.5341C22.0756 15.0398 21.729 15.4332 21.283 15.7145C20.8398 15.9957 20.3228 16.1364 19.7319 16.1364ZM19.7319 15.233C20.1808 15.233 20.5501 15.1179 20.8398 14.8878C21.1296 14.6577 21.3441 14.3551 21.4833 13.9801C21.6225 13.6051 21.6921 13.1989 21.6921 12.7614C21.6921 12.3239 21.6225 11.9162 21.4833 11.5384C21.3441 11.1605 21.1296 10.8551 20.8398 10.6222C20.5501 10.3892 20.1808 10.2727 19.7319 10.2727C19.283 10.2727 18.9137 10.3892 18.6239 10.6222C18.3342 10.8551 18.1197 11.1605 17.9805 11.5384C17.8413 11.9162 17.7717 12.3239 17.7717 12.7614C17.7717 13.1989 17.8413 13.6051 17.9805 13.9801C18.1197 14.3551 18.3342 14.6577 18.6239 14.8878C18.9137 15.1179 19.283 15.233 19.7319 15.233ZM24.233 16V9.45455H25.2045V10.4432H25.2727C25.392 10.1193 25.608 9.85653 25.9205 9.65483C26.233 9.45312 26.5852 9.35227 26.9773 9.35227C27.0511 9.35227 27.1435 9.35369 27.2543 9.35653C27.3651 9.35937 27.4489 9.36364 27.5057 9.36932V10.392C27.4716 10.3835 27.3935 10.3707 27.2713 10.3537C27.152 10.3338 27.0256 10.3239 26.892 10.3239C26.5739 10.3239 26.2898 10.3906 26.0398 10.5241C25.7926 10.6548 25.5966 10.8366 25.4517 11.0696C25.3097 11.2997 25.2386 11.5625 25.2386 11.858V16H24.233ZM31.9545 9.45455V10.3068H28.5625V9.45455H31.9545ZM29.5511 7.88636H30.5568V14.125C30.5568 14.4091 30.598 14.6222 30.6804 14.7642C30.7656 14.9034 30.8736 14.9972 31.0043 15.0455C31.1378 15.0909 31.2784 15.1136 31.4261 15.1136C31.5369 15.1136 31.6278 15.108 31.6989 15.0966C31.7699 15.0824 31.8267 15.071 31.8693 15.0625L32.0739 15.9659C32.0057 15.9915 31.9105 16.017 31.7884 16.0426C31.6662 16.071 31.5114 16.0852 31.3239 16.0852C31.0398 16.0852 30.7614 16.0241 30.4886 15.902C30.2188 15.7798 29.9943 15.5938 29.8153 15.3438C29.6392 15.0938 29.5511 14.7784 29.5511 14.3977V7.88636ZM36.9787 16V7.27273H37.9844V10.4943H38.0696C38.1435 10.3807 38.2457 10.2358 38.3764 10.0597C38.5099 9.88068 38.7003 9.72159 38.9474 9.58239C39.1974 9.44034 39.5355 9.36932 39.9616 9.36932C40.5128 9.36932 40.9986 9.5071 41.419 9.78267C41.8395 10.0582 42.1676 10.4489 42.4034 10.9545C42.6392 11.4602 42.7571 12.0568 42.7571 12.7443C42.7571 13.4375 42.6392 14.0384 42.4034 14.5469C42.1676 15.0526 41.8409 15.4446 41.4233 15.723C41.0057 15.9986 40.5241 16.1364 39.9787 16.1364C39.5582 16.1364 39.2216 16.0668 38.9688 15.9276C38.7159 15.7855 38.5213 15.625 38.3849 15.446C38.2486 15.2642 38.1435 15.1136 38.0696 14.9943H37.9503V16H36.9787ZM37.9673 12.7273C37.9673 13.2216 38.0398 13.6577 38.1847 14.0355C38.3295 14.4105 38.5412 14.7045 38.8196 14.9176C39.098 15.1278 39.4389 15.233 39.8423 15.233C40.2628 15.233 40.6136 15.1222 40.8949 14.9006C41.179 14.6761 41.392 14.375 41.5341 13.9972C41.679 13.6165 41.7514 13.1932 41.7514 12.7273C41.7514 12.267 41.6804 11.8523 41.5384 11.483C41.3991 11.1108 41.1875 10.8168 40.9034 10.6009C40.6222 10.3821 40.2685 10.2727 39.8423 10.2727C39.4332 10.2727 39.0895 10.3764 38.8111 10.5838C38.5327 10.7884 38.3224 11.0753 38.1804 11.4446C38.0384 11.8111 37.9673 12.2386 37.9673 12.7273ZM44.7088 18.4545C44.5384 18.4545 44.3864 18.4403 44.2528 18.4119C44.1193 18.3864 44.027 18.3608 43.9759 18.3352L44.2315 17.4489C44.4759 17.5114 44.6918 17.5341 44.8793 17.517C45.0668 17.5 45.233 17.4162 45.3778 17.2656C45.5256 17.1179 45.6605 16.8778 45.7827 16.5455L45.9702 16.0341L43.5497 9.45455H44.6406L46.4474 14.6705H46.5156L48.3224 9.45455H49.4134L46.6349 16.9545C46.5099 17.2926 46.3551 17.5724 46.1705 17.794C45.9858 18.0185 45.7713 18.1847 45.527 18.2926C45.2855 18.4006 45.0128 18.4545 44.7088 18.4545Z" fill="white"/>
<path d="M67.7802 9.96667L63.4335 14.3133C62.9202 14.8267 62.0802 14.8267 61.5669 14.3133L57.2202 9.96667" stroke="white" stroke-width="1.5" stroke-miterlimit="10" stroke-linecap="round" stroke-linejoin="round"/>
<defs>
<linearGradient id="paint0_linear_4029_3694" x1="0.5" y1="19.1111" x2="76.8526" y2="16.489" gradientUnits="userSpaceOnUse">
<stop stop-color="#4CA2FF"/>
<stop offset="1" stop-color="#1887FF"/>
</linearGradient>
</defs>
</svg>
