<svg width="20" height="20" viewBox="0 0 20 20" fill="none" xmlns="http://www.w3.org/2000/svg">
<path d="M12.825 4.34157L14 6.69157C14.1584 7.01657 14.5834 7.3249 14.9417 7.39157L17.0667 7.74157C18.425 7.96657 18.7417 8.9499 17.7667 9.93324L16.1084 11.5916C15.8334 11.8666 15.675 12.4082 15.7667 12.7999L16.2417 14.8499C16.6167 16.4666 15.75 17.0999 14.325 16.2499L12.3334 15.0666C11.975 14.8499 11.375 14.8499 11.0167 15.0666L9.02503 16.2499C7.60003 17.0916 6.73337 16.4666 7.10837 14.8499L7.58337 12.7999C7.65837 12.3999 7.50003 11.8582 7.22503 11.5832L5.5667 9.9249C4.5917 8.9499 4.90837 7.96657 6.2667 7.73324L8.3917 7.38324C8.75003 7.3249 9.17503 7.00824 9.33337 6.68324L10.5084 4.33324C11.15 3.06657 12.1834 3.06657 12.825 4.34157Z" fill="url(#paint0_linear_4029_4778)"/>
<path d="M6.66663 4.79175H1.66663C1.32496 4.79175 1.04163 4.50841 1.04163 4.16675C1.04163 3.82508 1.32496 3.54175 1.66663 3.54175H6.66663C7.00829 3.54175 7.29163 3.82508 7.29163 4.16675C7.29163 4.50841 7.00829 4.79175 6.66663 4.79175Z" fill="url(#paint1_linear_4029_4778)"/>
<path d="M4.16663 16.4583H1.66663C1.32496 16.4583 1.04163 16.1749 1.04163 15.8333C1.04163 15.4916 1.32496 15.2083 1.66663 15.2083H4.16663C4.50829 15.2083 4.79163 15.4916 4.79163 15.8333C4.79163 16.1749 4.50829 16.4583 4.16663 16.4583Z" fill="url(#paint2_linear_4029_4778)"/>
<path d="M2.49996 10.625H1.66663C1.32496 10.625 1.04163 10.3417 1.04163 10C1.04163 9.65833 1.32496 9.375 1.66663 9.375H2.49996C2.84163 9.375 3.12496 9.65833 3.12496 10C3.12496 10.3417 2.84163 10.625 2.49996 10.625Z" fill="url(#paint3_linear_4029_4778)"/>
<defs>
<linearGradient id="paint0_linear_4029_4778" x1="5.00049" y1="13.9301" x2="18.0652" y2="13.7912" gradientUnits="userSpaceOnUse">
<stop stop-color="#4CA2FF"/>
<stop offset="1" stop-color="#1887FF"/>
</linearGradient>
<linearGradient id="paint1_linear_4029_4778" x1="1.04163" y1="4.53712" x2="7.14979" y2="4.2144" gradientUnits="userSpaceOnUse">
<stop stop-color="#4CA2FF"/>
<stop offset="1" stop-color="#1887FF"/>
</linearGradient>
<linearGradient id="paint2_linear_4029_4778" x1="1.04163" y1="16.2036" x2="4.71306" y2="16.0872" gradientUnits="userSpaceOnUse">
<stop stop-color="#4CA2FF"/>
<stop offset="1" stop-color="#1887FF"/>
</linearGradient>
<linearGradient id="paint3_linear_4029_4778" x1="1.04163" y1="10.3704" x2="3.08273" y2="10.3344" gradientUnits="userSpaceOnUse">
<stop stop-color="#4CA2FF"/>
<stop offset="1" stop-color="#1887FF"/>
</linearGradient>
</defs>
</svg>
