<svg width="370" height="66" viewBox="0 0 370 66" fill="none" xmlns="http://www.w3.org/2000/svg">
<rect x="167" width="36" height="36" rx="18" fill="url(#paint0_linear_4029_3294)"/>
<g clip-path="url(#clip0_4029_3294)">
<path d="M180 15L185 10L190 15" stroke="white" stroke-width="2" stroke-linecap="round" stroke-linejoin="round"/>
<path d="M177 23V25C177 25.5304 177.211 26.0391 177.586 26.4142C177.961 26.7893 178.47 27 179 27H191C191.53 27 192.039 26.7893 192.414 26.4142C192.789 26.0391 193 25.5304 193 25V23" stroke="white" stroke-width="2" stroke-linecap="round" stroke-linejoin="round"/>
<path d="M185 10V22" stroke="white" stroke-width="2" stroke-linecap="round" stroke-linejoin="round"/>
</g>
<path d="M110.904 49.8182H112.137V56.5597C112.137 57.2557 111.973 57.8771 111.645 58.424C111.32 58.9676 110.861 59.3968 110.268 59.7116C109.674 60.0232 108.978 60.179 108.18 60.179C107.381 60.179 106.685 60.0232 106.092 59.7116C105.498 59.3968 105.038 58.9676 104.709 58.424C104.385 57.8771 104.222 57.2557 104.222 56.5597V49.8182H105.455V56.4602C105.455 56.9574 105.565 57.3999 105.783 57.7876C106.002 58.1721 106.314 58.4754 106.718 58.6974C107.126 58.9162 107.613 59.0256 108.18 59.0256C108.746 59.0256 109.234 58.9162 109.641 58.6974C110.049 58.4754 110.36 58.1721 110.576 57.7876C110.795 57.3999 110.904 56.9574 110.904 56.4602V49.8182ZM114.44 62.8636V52.3636H115.574V53.5767H115.713C115.799 53.4441 115.918 53.2751 116.071 53.0696C116.227 52.8608 116.449 52.6752 116.737 52.5128C117.029 52.3471 117.423 52.2642 117.92 52.2642C118.563 52.2642 119.13 52.425 119.62 52.7464C120.111 53.0679 120.494 53.5237 120.769 54.1136C121.044 54.7036 121.182 55.3996 121.182 56.2017C121.182 57.0104 121.044 57.7114 120.769 58.3047C120.494 58.8946 120.113 59.352 119.625 59.6768C119.138 59.9983 118.576 60.1591 117.94 60.1591C117.45 60.1591 117.057 60.0779 116.762 59.9155C116.467 59.7498 116.24 59.5625 116.081 59.3537C115.922 59.1416 115.799 58.9659 115.713 58.8267H115.613V62.8636H114.44ZM115.593 56.1818C115.593 56.7585 115.678 57.2673 115.847 57.7081C116.016 58.1456 116.263 58.4886 116.588 58.7372C116.913 58.9825 117.31 59.1051 117.781 59.1051C118.272 59.1051 118.681 58.9759 119.009 58.7173C119.34 58.4555 119.589 58.1042 119.755 57.6634C119.924 57.2192 120.008 56.7254 120.008 56.1818C120.008 55.6449 119.925 55.161 119.76 54.7301C119.597 54.2959 119.35 53.9529 119.019 53.701C118.691 53.4458 118.278 53.3182 117.781 53.3182C117.304 53.3182 116.903 53.4392 116.578 53.6811C116.253 53.9197 116.008 54.2545 115.842 54.6854C115.676 55.1129 115.593 55.6117 115.593 56.1818ZM124.145 49.8182V60H122.971V49.8182H124.145ZM129.396 60.1591C128.706 60.1591 128.102 59.995 127.581 59.6669C127.064 59.3388 126.66 58.8797 126.368 58.2898C126.08 57.6998 125.936 57.0104 125.936 56.2216C125.936 55.4261 126.08 54.7318 126.368 54.1385C126.66 53.5452 127.064 53.0845 127.581 52.7564C128.102 52.4283 128.706 52.2642 129.396 52.2642C130.085 52.2642 130.688 52.4283 131.206 52.7564C131.726 53.0845 132.13 53.5452 132.419 54.1385C132.71 54.7318 132.856 55.4261 132.856 56.2216C132.856 57.0104 132.71 57.6998 132.419 58.2898C132.13 58.8797 131.726 59.3388 131.206 59.6669C130.688 59.995 130.085 60.1591 129.396 60.1591ZM129.396 59.1051C129.92 59.1051 130.35 58.9709 130.688 58.7024C131.027 58.4339 131.277 58.081 131.439 57.6435C131.602 57.206 131.683 56.732 131.683 56.2216C131.683 55.7112 131.602 55.2356 131.439 54.7947C131.277 54.3539 131.027 53.9976 130.688 53.7259C130.35 53.4541 129.92 53.3182 129.396 53.3182C128.872 53.3182 128.441 53.4541 128.103 53.7259C127.765 53.9976 127.515 54.3539 127.353 54.7947C127.19 55.2356 127.109 55.7112 127.109 56.2216C127.109 56.732 127.19 57.206 127.353 57.6435C127.515 58.081 127.765 58.4339 128.103 58.7024C128.441 58.9709 128.872 59.1051 129.396 59.1051ZM136.894 60.179C136.41 60.179 135.971 60.0878 135.577 59.9055C135.182 59.7199 134.869 59.4531 134.637 59.1051C134.405 58.7538 134.289 58.3295 134.289 57.8324C134.289 57.3949 134.375 57.0402 134.548 56.7685C134.72 56.4934 134.95 56.2779 135.239 56.1222C135.527 55.9664 135.845 55.8504 136.193 55.7741C136.545 55.6946 136.898 55.6316 137.252 55.5852C137.716 55.5256 138.092 55.4808 138.381 55.451C138.672 55.4179 138.885 55.3632 139.017 55.2869C139.153 55.2107 139.221 55.0781 139.221 54.8892V54.8494C139.221 54.3589 139.087 53.9777 138.818 53.706C138.553 53.4342 138.15 53.2983 137.61 53.2983C137.05 53.2983 136.611 53.4209 136.293 53.6662C135.975 53.9115 135.751 54.1733 135.622 54.4517L134.508 54.054C134.707 53.59 134.972 53.2287 135.303 52.9702C135.638 52.7083 136.003 52.526 136.397 52.4233C136.795 52.3172 137.186 52.2642 137.57 52.2642C137.816 52.2642 138.097 52.294 138.416 52.3537C138.737 52.41 139.047 52.5277 139.345 52.7067C139.647 52.8857 139.897 53.1558 140.096 53.517C140.295 53.8783 140.394 54.3622 140.394 54.9688V60H139.221V58.9659H139.161C139.082 59.1316 138.949 59.3089 138.764 59.4979C138.578 59.6868 138.331 59.8475 138.023 59.9801C137.715 60.1127 137.338 60.179 136.894 60.179ZM137.073 59.125C137.537 59.125 137.928 59.0339 138.247 58.8516C138.568 58.6693 138.81 58.4339 138.972 58.1456C139.138 57.8572 139.221 57.554 139.221 57.2358V56.1619C139.171 56.2216 139.062 56.2763 138.893 56.326C138.727 56.3724 138.535 56.4138 138.316 56.4503C138.101 56.4834 137.89 56.5133 137.685 56.5398C137.483 56.563 137.319 56.5829 137.193 56.5994C136.888 56.6392 136.603 56.7038 136.337 56.7933C136.076 56.8795 135.863 57.0104 135.701 57.1861C135.542 57.3584 135.462 57.5937 135.462 57.892C135.462 58.2997 135.613 58.608 135.915 58.8168C136.22 59.0223 136.606 59.125 137.073 59.125ZM145.419 60.1591C144.783 60.1591 144.221 59.9983 143.734 59.6768C143.247 59.352 142.866 58.8946 142.59 58.3047C142.315 57.7114 142.178 57.0104 142.178 56.2017C142.178 55.3996 142.315 54.7036 142.59 54.1136C142.866 53.5237 143.248 53.0679 143.739 52.7464C144.229 52.425 144.796 52.2642 145.439 52.2642C145.936 52.2642 146.329 52.3471 146.617 52.5128C146.909 52.6752 147.131 52.8608 147.284 53.0696C147.439 53.2751 147.56 53.4441 147.647 53.5767H147.746V49.8182H148.919V60H147.786V58.8267H147.647C147.56 58.9659 147.438 59.1416 147.279 59.3537C147.12 59.5625 146.893 59.7498 146.598 59.9155C146.303 60.0779 145.91 60.1591 145.419 60.1591ZM145.578 59.1051C146.049 59.1051 146.447 58.9825 146.772 58.7372C147.096 58.4886 147.343 58.1456 147.512 57.7081C147.681 57.2673 147.766 56.7585 147.766 56.1818C147.766 55.6117 147.683 55.1129 147.517 54.6854C147.352 54.2545 147.106 53.9197 146.782 53.6811C146.457 53.4392 146.056 53.3182 145.578 53.3182C145.081 53.3182 144.667 53.4458 144.335 53.701C144.007 53.9529 143.76 54.2959 143.595 54.7301C143.432 55.161 143.351 55.6449 143.351 56.1818C143.351 56.7254 143.434 57.2192 143.6 57.6634C143.769 58.1042 144.017 58.4555 144.345 58.7173C144.677 58.9759 145.088 59.1051 145.578 59.1051ZM155.328 60V49.8182H158.768C159.567 49.8182 160.22 49.9624 160.727 50.2507C161.237 50.5357 161.615 50.9219 161.86 51.4091C162.106 51.8963 162.228 52.4399 162.228 53.0398C162.228 53.6397 162.106 54.1849 161.86 54.6754C161.618 55.166 161.244 55.5571 160.737 55.8487C160.23 56.1371 159.58 56.2812 158.788 56.2812H156.322V55.1875H158.748C159.295 55.1875 159.734 55.093 160.066 54.9041C160.397 54.7152 160.637 54.46 160.786 54.1385C160.939 53.8137 161.015 53.4474 161.015 53.0398C161.015 52.6321 160.939 52.2675 160.786 51.946C160.637 51.6245 160.395 51.3726 160.061 51.1903C159.726 51.0047 159.282 50.9119 158.728 50.9119H156.561V60H155.328ZM165.229 55.4062V60H164.055V49.8182H165.229V53.5568H165.328C165.507 53.1624 165.775 52.8492 166.133 52.6172C166.495 52.3819 166.975 52.2642 167.575 52.2642C168.096 52.2642 168.551 52.3686 168.942 52.5774C169.333 52.7829 169.637 53.0994 169.852 53.527C170.071 53.9512 170.18 54.4915 170.18 55.1477V60H169.007V55.2273C169.007 54.6207 168.85 54.1518 168.535 53.8203C168.223 53.4856 167.791 53.3182 167.237 53.3182C166.853 53.3182 166.508 53.3994 166.203 53.5618C165.901 53.7242 165.663 53.9612 165.487 54.2727C165.315 54.5843 165.229 54.9621 165.229 55.4062ZM175.429 60.1591C174.74 60.1591 174.135 59.995 173.614 59.6669C173.097 59.3388 172.693 58.8797 172.401 58.2898C172.113 57.6998 171.969 57.0104 171.969 56.2216C171.969 55.4261 172.113 54.7318 172.401 54.1385C172.693 53.5452 173.097 53.0845 173.614 52.7564C174.135 52.4283 174.74 52.2642 175.429 52.2642C176.118 52.2642 176.722 52.4283 177.239 52.7564C177.759 53.0845 178.163 53.5452 178.452 54.1385C178.743 54.7318 178.889 55.4261 178.889 56.2216C178.889 57.0104 178.743 57.6998 178.452 58.2898C178.163 58.8797 177.759 59.3388 177.239 59.6669C176.722 59.995 176.118 60.1591 175.429 60.1591ZM175.429 59.1051C175.953 59.1051 176.384 58.9709 176.722 58.7024C177.06 58.4339 177.31 58.081 177.472 57.6435C177.635 57.206 177.716 56.732 177.716 56.2216C177.716 55.7112 177.635 55.2356 177.472 54.7947C177.31 54.3539 177.06 53.9976 176.722 53.7259C176.384 53.4541 175.953 53.3182 175.429 53.3182C174.905 53.3182 174.475 53.4541 174.136 53.7259C173.798 53.9976 173.548 54.3539 173.386 54.7947C173.223 55.2356 173.142 55.7112 173.142 56.2216C173.142 56.732 173.223 57.206 173.386 57.6435C173.548 58.081 173.798 58.4339 174.136 58.7024C174.475 58.9709 174.905 59.1051 175.429 59.1051ZM184.001 52.3636V53.358H180.044V52.3636H184.001ZM181.197 50.5341H182.371V57.8125C182.371 58.1439 182.419 58.3925 182.515 58.5582C182.614 58.7206 182.74 58.83 182.893 58.8864C183.048 58.9394 183.213 58.9659 183.385 58.9659C183.514 58.9659 183.62 58.9593 183.703 58.946C183.786 58.9295 183.852 58.9162 183.902 58.9062L184.141 59.9602C184.061 59.9901 183.95 60.0199 183.807 60.0497C183.665 60.0829 183.484 60.0994 183.266 60.0994C182.934 60.0994 182.609 60.0282 182.291 59.8857C181.976 59.7431 181.714 59.526 181.506 59.2344C181.3 58.9427 181.197 58.5748 181.197 58.1307V50.5341ZM188.786 60.1591C188.097 60.1591 187.492 59.995 186.972 59.6669C186.455 59.3388 186.05 58.8797 185.759 58.2898C185.47 57.6998 185.326 57.0104 185.326 56.2216C185.326 55.4261 185.47 54.7318 185.759 54.1385C186.05 53.5452 186.455 53.0845 186.972 52.7564C187.492 52.4283 188.097 52.2642 188.786 52.2642C189.476 52.2642 190.079 52.4283 190.596 52.7564C191.117 53.0845 191.521 53.5452 191.809 54.1385C192.101 54.7318 192.247 55.4261 192.247 56.2216C192.247 57.0104 192.101 57.6998 191.809 58.2898C191.521 58.8797 191.117 59.3388 190.596 59.6669C190.079 59.995 189.476 60.1591 188.786 60.1591ZM188.786 59.1051C189.31 59.1051 189.741 58.9709 190.079 58.7024C190.417 58.4339 190.667 58.081 190.83 57.6435C190.992 57.206 191.073 56.732 191.073 56.2216C191.073 55.7112 190.992 55.2356 190.83 54.7947C190.667 54.3539 190.417 53.9976 190.079 53.7259C189.741 53.4541 189.31 53.3182 188.786 53.3182C188.263 53.3182 187.832 53.4541 187.494 53.7259C187.156 53.9976 186.906 54.3539 186.743 54.7947C186.581 55.2356 186.5 55.7112 186.5 56.2216C186.5 56.732 186.581 57.206 186.743 57.6435C186.906 58.081 187.156 58.4339 187.494 58.7024C187.832 58.9709 188.263 59.1051 188.786 59.1051ZM199.447 54.0739L198.393 54.3722C198.327 54.1965 198.229 54.0258 198.1 53.8601C197.974 53.6911 197.801 53.5518 197.582 53.4425C197.364 53.3331 197.084 53.2784 196.742 53.2784C196.275 53.2784 195.886 53.3861 195.574 53.6016C195.266 53.8137 195.112 54.0838 195.112 54.4119C195.112 54.7036 195.218 54.9339 195.43 55.103C195.642 55.272 195.973 55.4129 196.424 55.5256L197.558 55.804C198.24 55.9697 198.749 56.2232 199.084 56.5646C199.419 56.9027 199.586 57.3385 199.586 57.8722C199.586 58.3097 199.46 58.7008 199.208 59.0455C198.96 59.3902 198.612 59.6619 198.164 59.8608C197.717 60.0597 197.196 60.1591 196.603 60.1591C195.824 60.1591 195.18 59.9901 194.669 59.652C194.159 59.3139 193.836 58.8201 193.7 58.1705L194.813 57.892C194.919 58.303 195.12 58.6113 195.415 58.8168C195.713 59.0223 196.103 59.125 196.583 59.125C197.13 59.125 197.564 59.009 197.886 58.777C198.211 58.5417 198.373 58.2599 198.373 57.9318C198.373 57.6667 198.28 57.4446 198.095 57.2656C197.909 57.0833 197.624 56.9474 197.239 56.858L195.967 56.5597C195.267 56.3939 194.754 56.1371 194.426 55.7891C194.101 55.4377 193.938 54.9986 193.938 54.4716C193.938 54.0407 194.059 53.6596 194.301 53.3281C194.546 52.9967 194.88 52.7365 195.301 52.5476C195.725 52.3587 196.205 52.2642 196.742 52.2642C197.498 52.2642 198.091 52.4299 198.522 52.7614C198.956 53.0928 199.265 53.5303 199.447 54.0739ZM208.392 60.1591C207.703 60.1591 207.098 59.995 206.577 59.6669C206.06 59.3388 205.656 58.8797 205.364 58.2898C205.076 57.6998 204.932 57.0104 204.932 56.2216C204.932 55.4261 205.076 54.7318 205.364 54.1385C205.656 53.5452 206.06 53.0845 206.577 52.7564C207.098 52.4283 207.703 52.2642 208.392 52.2642C209.081 52.2642 209.685 52.4283 210.202 52.7564C210.722 53.0845 211.126 53.5452 211.415 54.1385C211.706 54.7318 211.852 55.4261 211.852 56.2216C211.852 57.0104 211.706 57.6998 211.415 58.2898C211.126 58.8797 210.722 59.3388 210.202 59.6669C209.685 59.995 209.081 60.1591 208.392 60.1591ZM208.392 59.1051C208.916 59.1051 209.347 58.9709 209.685 58.7024C210.023 58.4339 210.273 58.081 210.435 57.6435C210.598 57.206 210.679 56.732 210.679 56.2216C210.679 55.7112 210.598 55.2356 210.435 54.7947C210.273 54.3539 210.023 53.9976 209.685 53.7259C209.347 53.4541 208.916 53.3182 208.392 53.3182C207.868 53.3182 207.437 53.4541 207.099 53.7259C206.761 53.9976 206.511 54.3539 206.349 54.7947C206.186 55.2356 206.105 55.7112 206.105 56.2216C206.105 56.732 206.186 57.206 206.349 57.6435C206.511 58.081 206.761 58.4339 207.099 58.7024C207.437 58.9709 207.868 59.1051 208.392 59.1051ZM213.643 60V52.3636H214.777V53.517H214.856C214.995 53.1392 215.247 52.8326 215.612 52.5973C215.977 52.362 216.388 52.2443 216.845 52.2443C216.931 52.2443 217.039 52.246 217.168 52.2493C217.297 52.2526 217.395 52.2576 217.461 52.2642V53.4574C217.422 53.4474 217.33 53.4325 217.188 53.4126C217.049 53.3894 216.901 53.3778 216.745 53.3778C216.374 53.3778 216.043 53.4557 215.751 53.6115C215.463 53.764 215.234 53.9761 215.065 54.2479C214.899 54.5163 214.816 54.8229 214.816 55.1676V60H213.643ZM223.366 49.8182L226.389 58.3892H226.508L229.531 49.8182H230.824L227.085 60H225.812L222.074 49.8182H223.366ZM232.251 60V52.3636H233.424V60H232.251ZM232.847 51.0909C232.619 51.0909 232.421 51.013 232.256 50.8572C232.093 50.7015 232.012 50.5142 232.012 50.2955C232.012 50.0767 232.093 49.8894 232.256 49.7337C232.421 49.5779 232.619 49.5 232.847 49.5C233.076 49.5 233.271 49.5779 233.434 49.7337C233.6 49.8894 233.682 50.0767 233.682 50.2955C233.682 50.5142 233.6 50.7015 233.434 50.8572C233.271 51.013 233.076 51.0909 232.847 51.0909ZM238.456 60.1591C237.82 60.1591 237.258 59.9983 236.771 59.6768C236.284 59.352 235.903 58.8946 235.628 58.3047C235.352 57.7114 235.215 57.0104 235.215 56.2017C235.215 55.3996 235.352 54.7036 235.628 54.1136C235.903 53.5237 236.285 53.0679 236.776 52.7464C237.267 52.425 237.833 52.2642 238.476 52.2642C238.973 52.2642 239.366 52.3471 239.655 52.5128C239.946 52.6752 240.168 52.8608 240.321 53.0696C240.477 53.2751 240.598 53.4441 240.684 53.5767H240.783V49.8182H241.956V60H240.823V58.8267H240.684C240.598 58.9659 240.475 59.1416 240.316 59.3537C240.157 59.5625 239.93 59.7498 239.635 59.9155C239.34 60.0779 238.947 60.1591 238.456 60.1591ZM238.616 59.1051C239.086 59.1051 239.484 58.9825 239.809 58.7372C240.133 58.4886 240.38 58.1456 240.549 57.7081C240.718 57.2673 240.803 56.7585 240.803 56.1818C240.803 55.6117 240.72 55.1129 240.554 54.6854C240.389 54.2545 240.143 53.9197 239.819 53.6811C239.494 53.4392 239.093 53.3182 238.616 53.3182C238.118 53.3182 237.704 53.4458 237.373 53.701C237.044 53.9529 236.798 54.2959 236.632 54.7301C236.469 55.161 236.388 55.6449 236.388 56.1818C236.388 56.7254 236.471 57.2192 236.637 57.6634C236.806 58.1042 237.054 58.4555 237.383 58.7173C237.714 58.9759 238.125 59.1051 238.616 59.1051ZM247.47 60.1591C246.734 60.1591 246.099 59.9967 245.566 59.6719C245.035 59.3438 244.626 58.8864 244.338 58.2997C244.053 57.7098 243.91 57.0237 243.91 56.2415C243.91 55.4593 244.053 54.7699 244.338 54.1733C244.626 53.5734 245.027 53.1061 245.541 52.7713C246.058 52.4332 246.661 52.2642 247.351 52.2642C247.748 52.2642 248.141 52.3305 248.529 52.4631C248.917 52.5956 249.27 52.8111 249.588 53.1094C249.906 53.4044 250.16 53.7955 250.348 54.2827C250.537 54.7699 250.632 55.3698 250.632 56.0824V56.5795H244.745V55.5653H249.439C249.439 55.1345 249.352 54.75 249.18 54.4119C249.011 54.0739 248.769 53.8071 248.454 53.6115C248.143 53.416 247.775 53.3182 247.351 53.3182C246.883 53.3182 246.479 53.4342 246.138 53.6662C245.799 53.8949 245.539 54.1932 245.357 54.5611C245.175 54.929 245.084 55.3234 245.084 55.7443V56.4205C245.084 56.9972 245.183 57.486 245.382 57.8871C245.584 58.2848 245.864 58.5881 246.222 58.7969C246.58 59.0024 246.996 59.1051 247.47 59.1051C247.778 59.1051 248.057 59.062 248.305 58.9759C248.557 58.8864 248.774 58.7538 248.956 58.5781C249.139 58.3991 249.28 58.1771 249.379 57.9119L250.513 58.2301C250.393 58.6146 250.193 58.9527 249.911 59.2443C249.629 59.5327 249.281 59.758 248.867 59.9205C248.453 60.0795 247.987 60.1591 247.47 60.1591ZM255.519 60.1591C254.83 60.1591 254.225 59.995 253.704 59.6669C253.187 59.3388 252.783 58.8797 252.491 58.2898C252.203 57.6998 252.059 57.0104 252.059 56.2216C252.059 55.4261 252.203 54.7318 252.491 54.1385C252.783 53.5452 253.187 53.0845 253.704 52.7564C254.225 52.4283 254.83 52.2642 255.519 52.2642C256.208 52.2642 256.812 52.4283 257.329 52.7564C257.849 53.0845 258.253 53.5452 258.542 54.1385C258.833 54.7318 258.979 55.4261 258.979 56.2216C258.979 57.0104 258.833 57.6998 258.542 58.2898C258.253 58.8797 257.849 59.3388 257.329 59.6669C256.812 59.995 256.208 60.1591 255.519 60.1591ZM255.519 59.1051C256.043 59.1051 256.473 58.9709 256.812 58.7024C257.15 58.4339 257.4 58.081 257.562 57.6435C257.725 57.206 257.806 56.732 257.806 56.2216C257.806 55.7112 257.725 55.2356 257.562 54.7947C257.4 54.3539 257.15 53.9976 256.812 53.7259C256.473 53.4541 256.043 53.3182 255.519 53.3182C254.995 53.3182 254.564 53.4541 254.226 53.7259C253.888 53.9976 253.638 54.3539 253.476 54.7947C253.313 55.2356 253.232 55.7112 253.232 56.2216C253.232 56.732 253.313 57.206 253.476 57.6435C253.638 58.081 253.888 58.4339 254.226 58.7024C254.564 58.9709 254.995 59.1051 255.519 59.1051ZM266.179 54.0739L265.125 54.3722C265.059 54.1965 264.961 54.0258 264.832 53.8601C264.706 53.6911 264.534 53.5518 264.315 53.4425C264.096 53.3331 263.816 53.2784 263.475 53.2784C263.007 53.2784 262.618 53.3861 262.306 53.6016C261.998 53.8137 261.844 54.0838 261.844 54.4119C261.844 54.7036 261.95 54.9339 262.162 55.103C262.374 55.272 262.706 55.4129 263.157 55.5256L264.29 55.804C264.973 55.9697 265.482 56.2232 265.816 56.5646C266.151 56.9027 266.318 57.3385 266.318 57.8722C266.318 58.3097 266.193 58.7008 265.941 59.0455C265.692 59.3902 265.344 59.6619 264.897 59.8608C264.449 60.0597 263.929 60.1591 263.335 60.1591C262.557 60.1591 261.912 59.9901 261.402 59.652C260.891 59.3139 260.568 58.8201 260.432 58.1705L261.546 57.892C261.652 58.303 261.852 58.6113 262.147 58.8168C262.446 59.0223 262.835 59.125 263.316 59.125C263.862 59.125 264.297 59.009 264.618 58.777C264.943 58.5417 265.105 58.2599 265.105 57.9318C265.105 57.6667 265.013 57.4446 264.827 57.2656C264.641 57.0833 264.356 56.9474 263.972 56.858L262.699 56.5597C262 56.3939 261.486 56.1371 261.158 55.7891C260.833 55.4377 260.671 54.9986 260.671 54.4716C260.671 54.0407 260.792 53.6596 261.034 53.3281C261.279 52.9967 261.612 52.7365 262.033 52.5476C262.457 52.3587 262.938 52.2642 263.475 52.2642C264.23 52.2642 264.824 52.4299 265.255 52.7614C265.689 53.0928 265.997 53.5303 266.179 54.0739Z" fill="#717171"/>
<defs>
<linearGradient id="paint0_linear_4029_3294" x1="167" y1="28.6667" x2="202.277" y2="28.2939" gradientUnits="userSpaceOnUse">
<stop stop-color="#4CA2FF"/>
<stop offset="1" stop-color="#1887FF"/>
</linearGradient>
<clipPath id="clip0_4029_3294">
<rect width="24" height="24" fill="white" transform="translate(173 6)"/>
</clipPath>
</defs>
</svg>
