<svg width="110" height="37" viewBox="0 0 110 37" fill="none" xmlns="http://www.w3.org/2000/svg">
<rect x="0.5" y="1" width="109" height="35" rx="5.5" fill="url(#paint0_linear_4029_3149)"/>
<rect x="0.5" y="1" width="109" height="35" rx="5.5" stroke="url(#paint1_linear_4029_3149)"/>
<path d="M32.071 13.7727H33.392V19.5128C33.392 20.1236 33.2486 20.6648 32.9616 21.1364C32.6747 21.6051 32.2713 21.9744 31.7514 22.2443C31.2315 22.5114 30.6222 22.6449 29.9233 22.6449C29.2273 22.6449 28.6193 22.5114 28.0994 22.2443C27.5795 21.9744 27.1761 21.6051 26.8892 21.1364C26.6023 20.6648 26.4588 20.1236 26.4588 19.5128V13.7727H27.7756V19.4062C27.7756 19.8011 27.8622 20.152 28.0355 20.4588C28.2116 20.7656 28.4602 21.0071 28.7812 21.1832C29.1023 21.3565 29.483 21.4432 29.9233 21.4432C30.3665 21.4432 30.7486 21.3565 31.0696 21.1832C31.3935 21.0071 31.6406 20.7656 31.8111 20.4588C31.9844 20.152 32.071 19.8011 32.071 19.4062V13.7727ZM35.2042 24.9545V15.9545H36.4485V17.0156H36.555C36.6289 16.8793 36.7354 16.7216 36.8746 16.5426C37.0138 16.3636 37.207 16.2074 37.4542 16.0739C37.7013 15.9375 38.0281 15.8693 38.4343 15.8693C38.9627 15.8693 39.4343 16.0028 39.8491 16.2699C40.2638 16.5369 40.5891 16.9219 40.8249 17.4247C41.0636 17.9276 41.1829 18.5327 41.1829 19.2401C41.1829 19.9474 41.065 20.554 40.8292 21.0597C40.5934 21.5625 40.2695 21.9503 39.8576 22.223C39.4457 22.4929 38.9755 22.6278 38.4471 22.6278C38.0494 22.6278 37.7241 22.5611 37.4712 22.4276C37.2212 22.294 37.0252 22.1378 36.8832 21.9588C36.7411 21.7798 36.6317 21.6207 36.555 21.4815H36.4783V24.9545H35.2042ZM36.4528 19.2273C36.4528 19.6875 36.5195 20.0909 36.6531 20.4375C36.7866 20.7841 36.9798 21.0554 37.2326 21.2514C37.4854 21.4446 37.7951 21.5412 38.1616 21.5412C38.5423 21.5412 38.8604 21.4403 39.1161 21.2386C39.3718 21.0341 39.565 20.7571 39.6957 20.4077C39.8292 20.0582 39.896 19.6648 39.896 19.2273C39.896 18.7955 39.8306 18.4077 39.6999 18.0639C39.5721 17.7202 39.3789 17.4489 39.1204 17.25C38.8647 17.0511 38.5451 16.9517 38.1616 16.9517C37.7923 16.9517 37.4798 17.0469 37.2241 17.2372C36.9712 17.4276 36.7795 17.6932 36.6488 18.0341C36.5181 18.375 36.4528 18.7727 36.4528 19.2273ZM43.8846 13.7727V22.5H42.6104V13.7727H43.8846ZM48.3558 22.6321C47.7422 22.6321 47.2067 22.4915 46.7493 22.2102C46.2919 21.929 45.9368 21.5355 45.6839 21.0298C45.4311 20.5241 45.3047 19.9332 45.3047 19.2571C45.3047 18.5781 45.4311 17.9844 45.6839 17.4759C45.9368 16.9673 46.2919 16.5724 46.7493 16.2912C47.2067 16.0099 47.7422 15.8693 48.3558 15.8693C48.9695 15.8693 49.505 16.0099 49.9624 16.2912C50.4197 16.5724 50.7749 16.9673 51.0277 17.4759C51.2805 17.9844 51.407 18.5781 51.407 19.2571C51.407 19.9332 51.2805 20.5241 51.0277 21.0298C50.7749 21.5355 50.4197 21.929 49.9624 22.2102C49.505 22.4915 48.9695 22.6321 48.3558 22.6321ZM48.3601 21.5625C48.7578 21.5625 49.0874 21.4574 49.3487 21.2472C49.6101 21.0369 49.8033 20.7571 49.9283 20.4077C50.0561 20.0582 50.12 19.6733 50.12 19.2528C50.12 18.8352 50.0561 18.4517 49.9283 18.1023C49.8033 17.75 49.6101 17.4673 49.3487 17.2543C49.0874 17.0412 48.7578 16.9347 48.3601 16.9347C47.9595 16.9347 47.6271 17.0412 47.3629 17.2543C47.1016 17.4673 46.907 17.75 46.7791 18.1023C46.6541 18.4517 46.5916 18.8352 46.5916 19.2528C46.5916 19.6733 46.6541 20.0582 46.7791 20.4077C46.907 20.7571 47.1016 21.0369 47.3629 21.2472C47.6271 21.4574 47.9595 21.5625 48.3601 21.5625ZM54.734 22.6449C54.3192 22.6449 53.9442 22.5682 53.609 22.4148C53.2738 22.2585 53.0082 22.0327 52.8121 21.7372C52.619 21.4418 52.5224 21.0795 52.5224 20.6506C52.5224 20.2812 52.5934 19.9773 52.7354 19.7386C52.8775 19.5 53.0692 19.3111 53.3107 19.1719C53.5522 19.0327 53.8221 18.9276 54.1204 18.8565C54.4187 18.7855 54.7227 18.7315 55.0323 18.6946C55.4244 18.6491 55.7425 18.6122 55.9869 18.5838C56.2312 18.5526 56.4087 18.5028 56.5195 18.4347C56.6303 18.3665 56.6857 18.2557 56.6857 18.1023V18.0724C56.6857 17.7003 56.5806 17.4119 56.3704 17.2074C56.163 17.0028 55.8533 16.9006 55.4414 16.9006C55.0124 16.9006 54.6744 16.9957 54.4272 17.1861C54.1829 17.3736 54.0138 17.5824 53.9201 17.8125L52.7227 17.5398C52.8647 17.142 53.0721 16.821 53.3448 16.5767C53.6204 16.3295 53.9371 16.1506 54.2951 16.0398C54.6531 15.9261 55.0295 15.8693 55.4244 15.8693C55.6857 15.8693 55.9627 15.9006 56.2553 15.9631C56.5508 16.0227 56.8263 16.1335 57.082 16.2955C57.3406 16.4574 57.5522 16.6889 57.717 16.9901C57.8817 17.2884 57.9641 17.6761 57.9641 18.1534V22.5H56.7198V21.6051H56.6687C56.5863 21.7699 56.4627 21.9318 56.2979 22.0909C56.1332 22.25 55.9215 22.3821 55.663 22.4872C55.4045 22.5923 55.0948 22.6449 54.734 22.6449ZM55.011 21.6222C55.3633 21.6222 55.6644 21.5526 55.9144 21.4134C56.1673 21.2741 56.359 21.0923 56.4897 20.8679C56.6232 20.6406 56.69 20.3977 56.69 20.1392V19.2955C56.6445 19.3409 56.5565 19.3835 56.4258 19.4233C56.2979 19.4602 56.1516 19.4929 55.9869 19.5213C55.8221 19.5469 55.6616 19.571 55.5053 19.5938C55.3491 19.6136 55.2184 19.6307 55.1133 19.6449C54.8661 19.6761 54.6403 19.7287 54.4357 19.8026C54.234 19.8764 54.0721 19.983 53.9499 20.1222C53.8306 20.2585 53.771 20.4403 53.771 20.6676C53.771 20.983 53.8874 21.2216 54.1204 21.3835C54.3533 21.5426 54.6502 21.6222 55.011 21.6222ZM62.1115 22.6278C61.5831 22.6278 61.1115 22.4929 60.6967 22.223C60.2848 21.9503 59.9609 21.5625 59.7251 21.0597C59.4922 20.554 59.3757 19.9474 59.3757 19.2401C59.3757 18.5327 59.4936 17.9276 59.7294 17.4247C59.968 16.9219 60.2947 16.5369 60.7095 16.2699C61.1243 16.0028 61.5945 15.8693 62.12 15.8693C62.5263 15.8693 62.853 15.9375 63.1001 16.0739C63.3501 16.2074 63.5433 16.3636 63.6797 16.5426C63.8189 16.7216 63.9268 16.8793 64.0036 17.0156H64.0803V13.7727H65.3544V22.5H64.1101V21.4815H64.0036C63.9268 21.6207 63.8161 21.7798 63.6712 21.9588C63.5291 22.1378 63.3331 22.294 63.0831 22.4276C62.8331 22.5611 62.5092 22.6278 62.1115 22.6278ZM62.3928 21.5412C62.7592 21.5412 63.0689 21.4446 63.3217 21.2514C63.5774 21.0554 63.7706 20.7841 63.9013 20.4375C64.0348 20.0909 64.1016 19.6875 64.1016 19.2273C64.1016 18.7727 64.0362 18.375 63.9055 18.0341C63.7749 17.6932 63.5831 17.4276 63.3303 17.2372C63.0774 17.0469 62.7649 16.9517 62.3928 16.9517C62.0092 16.9517 61.6896 17.0511 61.4339 17.25C61.1783 17.4489 60.9851 17.7202 60.8544 18.0639C60.7266 18.4077 60.6626 18.7955 60.6626 19.2273C60.6626 19.6648 60.728 20.0582 60.8587 20.4077C60.9893 20.7571 61.1825 21.0341 61.4382 21.2386C61.6967 21.4403 62.0149 21.5412 62.3928 21.5412Z" fill="white"/>
<path d="M73.9592 17.0825L77.5001 13.5417L81.0409 17.0825" stroke="white" stroke-miterlimit="10" stroke-linecap="round" stroke-linejoin="round"/>
<path d="M77.5 23.4583L77.5 13.6408" stroke="white" stroke-miterlimit="10" stroke-linecap="round" stroke-linejoin="round"/>
<defs>
<linearGradient id="paint0_linear_4029_3149" x1="2.1081e-07" y1="29.1667" x2="107.691" y2="25.6896" gradientUnits="userSpaceOnUse">
<stop stop-color="#4CA2FF"/>
<stop offset="1" stop-color="#1887FF"/>
</linearGradient>
<linearGradient id="paint1_linear_4029_3149" x1="2.1081e-07" y1="29.1667" x2="107.691" y2="25.6896" gradientUnits="userSpaceOnUse">
<stop stop-color="#4CA2FF"/>
<stop offset="1" stop-color="#1887FF"/>
</linearGradient>
</defs>
</svg>
