<svg width="355" height="28" viewBox="0 0 355 28" fill="none" xmlns="http://www.w3.org/2000/svg">
<path d="M1.9082 10.4834V18.5917C1.9082 20.175 3.0332 20.825 4.39987 20.0417L6.3582 18.925C6.7832 18.6834 7.49154 18.6584 7.9332 18.8834L12.3082 21.075C12.7499 21.2917 13.4582 21.275 13.8832 21.0334L17.4915 18.9667C17.9499 18.7 18.3332 18.05 18.3332 17.5167V9.40835C18.3332 7.82502 17.2082 7.17502 15.8415 7.95835L13.8832 9.07502C13.4582 9.31669 12.7499 9.34169 12.3082 9.11669L7.9332 6.93335C7.49154 6.71669 6.7832 6.73335 6.3582 6.97502L2.74987 9.04169C2.2832 9.30835 1.9082 9.95835 1.9082 10.4834Z" stroke="#828282" stroke-width="1.5" stroke-linecap="round" stroke-linejoin="round"/>
<path d="M7.1333 7.33331V18.1666" stroke="#828282" stroke-width="1.5" stroke-linecap="round" stroke-linejoin="round"/>
<path d="M13.1084 9.51666V20.6667" stroke="#828282" stroke-width="1.5" stroke-linecap="round" stroke-linejoin="round"/>
<path d="M25.6506 8.81818L28.6733 17.3892H28.7926L31.8153 8.81818H33.108L29.3693 19H28.0966L24.358 8.81818H25.6506ZM34.5348 19V11.3636H35.7081V19H34.5348ZM35.1314 10.0909C34.9027 10.0909 34.7055 10.013 34.5398 9.85724C34.3774 9.70147 34.2962 9.5142 34.2962 9.29545C34.2962 9.0767 34.3774 8.88944 34.5398 8.73366C34.7055 8.57789 34.9027 8.5 35.1314 8.5C35.3601 8.5 35.5556 8.57789 35.718 8.73366C35.8838 8.88944 35.9666 9.0767 35.9666 9.29545C35.9666 9.5142 35.8838 9.70147 35.718 9.85724C35.5556 10.013 35.3601 10.0909 35.1314 10.0909ZM41.0588 19.1591C40.323 19.1591 39.6883 18.9967 39.1547 18.6719C38.6243 18.3438 38.215 17.8864 37.9267 17.2997C37.6416 16.7098 37.4991 16.0237 37.4991 15.2415C37.4991 14.4593 37.6416 13.7699 37.9267 13.1733C38.215 12.5734 38.6161 12.1061 39.1298 11.7713C39.6468 11.4332 40.2501 11.2642 40.9395 11.2642C41.3372 11.2642 41.7299 11.3305 42.1177 11.4631C42.5055 11.5956 42.8585 11.8111 43.1767 12.1094C43.4949 12.4044 43.7484 12.7955 43.9373 13.2827C44.1262 13.7699 44.2207 14.3698 44.2207 15.0824V15.5795H38.3343V14.5653H43.0275C43.0275 14.1345 42.9413 13.75 42.769 13.4119C42.6 13.0739 42.358 12.8071 42.0431 12.6115C41.7316 12.416 41.3637 12.3182 40.9395 12.3182C40.4721 12.3182 40.0678 12.4342 39.7264 12.6662C39.3883 12.8949 39.1281 13.1932 38.9458 13.5611C38.7636 13.929 38.6724 14.3234 38.6724 14.7443V15.4205C38.6724 15.9972 38.7718 16.486 38.9707 16.8871C39.1729 17.2848 39.4529 17.5881 39.8109 17.7969C40.1689 18.0024 40.5848 18.1051 41.0588 18.1051C41.367 18.1051 41.6454 18.062 41.894 17.9759C42.1459 17.8864 42.363 17.7538 42.5453 17.5781C42.7276 17.3991 42.8684 17.1771 42.9679 16.9119L44.1014 17.2301C43.9821 17.6146 43.7815 17.9527 43.4998 18.2443C43.2181 18.5327 42.8701 18.758 42.4558 18.9205C42.0415 19.0795 41.5758 19.1591 41.0588 19.1591ZM47.7356 19L45.4089 11.3636H46.6419L48.2924 17.2102H48.372L50.0027 11.3636H51.2555L52.8663 17.1903H52.9458L54.5964 11.3636H55.8294L53.5027 19H52.3493L50.6788 13.1335H50.5595L48.889 19H47.7356ZM61.318 19V11.3636H62.4515V12.5568H62.551C62.71 12.1491 62.9669 11.8326 63.3216 11.6072C63.6762 11.3786 64.1021 11.2642 64.5993 11.2642C65.103 11.2642 65.5223 11.3786 65.8571 11.6072C66.1951 11.8326 66.4586 12.1491 66.6475 12.5568H66.7271C66.9226 12.1624 67.216 11.8492 67.6071 11.6172C67.9982 11.3819 68.4672 11.2642 69.014 11.2642C69.6968 11.2642 70.2553 11.478 70.6895 11.9055C71.1236 12.3298 71.3407 12.991 71.3407 13.8892V19H70.1674V13.8892C70.1674 13.3258 70.0133 12.9231 69.7051 12.6811C69.3968 12.4392 69.0339 12.3182 68.6163 12.3182C68.0794 12.3182 67.6634 12.4806 67.3684 12.8054C67.0734 13.1269 66.926 13.5346 66.926 14.0284V19H65.7328V13.7699C65.7328 13.3357 65.5919 12.986 65.3102 12.7209C65.0285 12.4524 64.6655 12.3182 64.2214 12.3182C63.9165 12.3182 63.6315 12.3994 63.3663 12.5618C63.1045 12.7242 62.8923 12.9496 62.7299 13.2379C62.5708 13.523 62.4913 13.8527 62.4913 14.2273V19H61.318ZM75.7331 19.179C75.2492 19.179 74.8101 19.0878 74.4157 18.9055C74.0212 18.7199 73.708 18.4531 73.476 18.1051C73.244 17.7538 73.128 17.3295 73.128 16.8324C73.128 16.3949 73.2142 16.0402 73.3865 15.7685C73.5589 15.4934 73.7892 15.2779 74.0776 15.1222C74.3659 14.9664 74.6841 14.8504 75.0321 14.7741C75.3835 14.6946 75.7364 14.6316 76.0911 14.5852C76.5551 14.5256 76.9313 14.4808 77.2196 14.451C77.5113 14.4179 77.7234 14.3632 77.856 14.2869C77.9919 14.2107 78.0598 14.0781 78.0598 13.8892V13.8494C78.0598 13.3589 77.9256 12.9777 77.6571 12.706C77.392 12.4342 76.9893 12.2983 76.449 12.2983C75.8889 12.2983 75.4498 12.4209 75.1316 12.6662C74.8134 12.9115 74.5897 13.1733 74.4604 13.4517L73.3468 13.054C73.5456 12.59 73.8108 12.2287 74.1422 11.9702C74.477 11.7083 74.8416 11.526 75.236 11.4233C75.6337 11.3172 76.0248 11.2642 76.4093 11.2642C76.6545 11.2642 76.9363 11.294 77.2544 11.3537C77.5759 11.41 77.8858 11.5277 78.1841 11.7067C78.4857 11.8857 78.736 12.1558 78.9348 12.517C79.1337 12.8783 79.2331 13.3622 79.2331 13.9688V19H78.0598V17.9659H78.0002C77.9206 18.1316 77.7881 18.3089 77.6025 18.4979C77.4168 18.6868 77.1699 18.8475 76.8617 18.9801C76.5534 19.1127 76.1773 19.179 75.7331 19.179ZM75.9121 18.125C76.3761 18.125 76.7672 18.0339 77.0854 17.8516C77.4069 17.6693 77.6489 17.4339 77.8113 17.1456C77.977 16.8572 78.0598 16.554 78.0598 16.2358V15.1619C78.0101 15.2216 77.9007 15.2763 77.7317 15.326C77.566 15.3724 77.3738 15.4138 77.155 15.4503C76.9396 15.4834 76.7291 15.5133 76.5236 15.5398C76.3214 15.563 76.1574 15.5829 76.0314 15.5994C75.7265 15.6392 75.4415 15.7038 75.1763 15.7933C74.9145 15.8795 74.7024 16.0104 74.54 16.1861C74.3809 16.3584 74.3013 16.5937 74.3013 16.892C74.3013 17.2997 74.4521 17.608 74.7537 17.8168C75.0587 18.0223 75.4448 18.125 75.9121 18.125ZM81.3746 21.8636V11.3636H82.5082V12.5767H82.6474C82.7335 12.4441 82.8529 12.2751 83.0053 12.0696C83.1611 11.8608 83.3832 11.6752 83.6715 11.5128C83.9632 11.3471 84.3576 11.2642 84.8548 11.2642C85.4978 11.2642 86.0645 11.425 86.555 11.7464C87.0456 12.0679 87.4284 12.5237 87.7035 13.1136C87.9786 13.7036 88.1161 14.3996 88.1161 15.2017C88.1161 16.0104 87.9786 16.7114 87.7035 17.3047C87.4284 17.8946 87.0472 18.352 86.56 18.6768C86.0728 18.9983 85.511 19.1591 84.8746 19.1591C84.3841 19.1591 83.9914 19.0779 83.6964 18.9155C83.4014 18.7498 83.1744 18.5625 83.0153 18.3537C82.8562 18.1416 82.7335 17.9659 82.6474 17.8267H82.5479V21.8636H81.3746ZM82.5281 15.1818C82.5281 15.7585 82.6126 16.2673 82.7816 16.7081C82.9506 17.1456 83.1976 17.4886 83.5224 17.7372C83.8472 17.9825 84.2449 18.1051 84.7156 18.1051C85.2061 18.1051 85.6154 17.9759 85.9435 17.7173C86.275 17.4555 86.5236 17.1042 86.6893 16.6634C86.8583 16.2192 86.9428 15.7254 86.9428 15.1818C86.9428 14.6449 86.86 14.161 86.6942 13.7301C86.5318 13.2959 86.2849 12.9529 85.9535 12.701C85.6254 12.4458 85.2127 12.3182 84.7156 12.3182C84.2383 12.3182 83.8372 12.4392 83.5124 12.6811C83.1876 12.9197 82.9424 13.2545 82.7766 13.6854C82.6109 14.1129 82.5281 14.6117 82.5281 15.1818Z" fill="#828282"/>
<path d="M345.43 7.92999L351.5 14L345.43 20.07" stroke="#828282" stroke-width="1.5" stroke-miterlimit="10" stroke-linecap="round" stroke-linejoin="round"/>
<path d="M334.5 14H351.33" stroke="#828282" stroke-width="1.5" stroke-miterlimit="10" stroke-linecap="round" stroke-linejoin="round"/>
</svg>
